<svg width="40" height="40" viewBox="0 0 40 40" fill="none" xmlns="http://www.w3.org/2000/svg">
<g clip-path="url(#clip0_1833_1053)">
<path d="M31.315 32.2715C37.32 26.0052 37.1082 16.0573 30.8419 10.0523C24.5756 4.04734 14.6277 4.25921 8.62275 10.5255C2.79781 16.6039 2.79781 26.193 8.62275 32.2715L4.5397 37.7145C4.06633 38.3458 4.19423 39.2412 4.82539 39.7146C5.45656 40.188 6.35207 40.0601 6.82544 39.4289L10.7828 34.1516C16.2573 38.1404 23.6804 38.1404 29.1548 34.1516L33.1122 39.4289C33.5855 40.0601 34.481 40.188 35.1122 39.7146C35.7434 39.2412 35.8714 38.3457 35.3979 37.7145L31.315 32.2715ZM21.3976 21.4282C21.3976 21.7374 21.2973 22.0381 21.1119 22.2854L16.826 27.9999C16.3526 28.6312 15.4571 28.7591 14.826 28.2856C14.1948 27.8122 14.0668 26.9167 14.5403 26.2856L18.5404 20.9525V12.8565C18.5404 12.0674 19.1801 11.4278 19.9691 11.4278C20.7581 11.4278 21.3977 12.0674 21.3977 12.8565V21.4282H21.3976Z" fill="#FEE074"/>
<path d="M12.1613 2.09141C9.33678 -0.662765 4.81443 -0.60576 2.06018 2.21873C-0.644779 4.99275 -0.645114 9.41741 2.05951 12.1918C2.61742 12.7496 3.52173 12.7496 4.07956 12.1918L12.1613 4.11155C12.719 3.55363 12.719 2.64933 12.1613 2.09141Z" fill="#FEE074"/>
<path d="M37.878 2.09143C35.0886 -0.697145 30.567 -0.697145 27.7777 2.09143C27.2199 2.64935 27.2199 3.55365 27.7777 4.11149L35.858 12.1918C36.4159 12.7495 37.3202 12.7495 37.878 12.1918C40.6666 9.40245 40.6666 4.88085 37.878 2.09143Z" fill="#FEE074"/>
</g>
<defs>
<clipPath id="clip0_1833_1053">
<rect width="40" height="40" fill="white"/>
</clipPath>
</defs>
</svg>
