<svg width="60" height="60" viewBox="0 0 60 60" fill="none" xmlns="http://www.w3.org/2000/svg">
<path d="M25.4461 18.8972L29.9981 16.4855L34.5501 18.8972C34.7862 19.0223 35.0523 19.0784 35.3183 19.059C35.5844 19.0396 35.8397 18.9456 36.0555 18.7876C36.2713 18.6297 36.439 18.414 36.5395 18.165C36.64 17.916 36.6694 17.6436 36.6243 17.3787L35.7547 12.2704L39.4376 8.65283C39.6286 8.4652 39.7637 8.22746 39.8276 7.9665C39.8915 7.70553 39.8817 7.43175 39.7993 7.17611C39.7169 6.92047 39.5651 6.69316 39.3612 6.51989C39.1573 6.34662 38.9093 6.2343 38.6454 6.19563L33.556 5.45036L31.28 0.803084C31.162 0.562023 30.9793 0.359056 30.7528 0.217135C30.5263 0.0752134 30.2648 0 29.9981 0C29.7314 0 29.4699 0.0752134 29.2434 0.217135C29.0169 0.359056 28.8342 0.562023 28.7162 0.803084L26.4402 5.45036L21.3508 6.19563C21.0869 6.2343 20.8389 6.34662 20.635 6.51989C20.4311 6.69316 20.2793 6.92047 20.1969 7.17611C20.1145 7.43175 20.1047 7.70553 20.1686 7.9665C20.2325 8.22746 20.3676 8.4652 20.5586 8.65283L24.2413 12.2704L23.3716 17.3787C23.3266 17.6436 23.356 17.916 23.4565 18.165C23.557 18.414 23.7246 18.6297 23.9404 18.7876C24.1562 18.9456 24.4116 19.0396 24.6776 19.059C24.9437 19.0784 25.2098 19.0223 25.4458 18.8972H25.4461Z" fill="#FEE074"/>
<path d="M59.4283 21.3908L55.3138 18.2815L55.5229 13.1028C55.5338 12.8342 55.4698 12.5678 55.3383 12.3339C55.2068 12.1 55.0129 11.9078 54.7786 11.7792C54.5444 11.6505 54.279 11.5905 54.0127 11.6059C53.7463 11.6213 53.4895 11.7115 53.2714 11.8663L49.0661 14.849L44.2435 13.0482C43.9934 12.9549 43.7224 12.9339 43.4611 12.9876C43.1997 13.0414 42.9585 13.1678 42.7648 13.3524C42.571 13.5371 42.4323 13.7728 42.3645 14.0327C42.2966 14.2927 42.3023 14.5665 42.3809 14.8234L43.896 19.7762L40.7066 23.842C40.5411 24.0528 40.4376 24.3061 40.4075 24.5732C40.3775 24.8403 40.4222 25.1106 40.5366 25.3534C40.6511 25.5962 40.8306 25.8019 41.055 25.9473C41.2794 26.0926 41.5396 26.1718 41.8063 26.1759L46.9485 26.254L49.7999 30.5674C49.9304 30.7648 50.1072 30.9267 50.3147 31.0387C50.5222 31.1507 50.7539 31.2093 50.9892 31.2093C51.0509 31.2093 51.1125 31.2053 51.1736 31.1973C51.4382 31.1627 51.6878 31.0542 51.8943 30.8841C52.1008 30.7139 52.256 30.4889 52.3422 30.2345L54.0051 25.3301L58.9568 23.9302C59.2136 23.8576 59.4451 23.714 59.6252 23.5157C59.8053 23.3174 59.9267 23.0723 59.9757 22.8081C60.0248 22.5439 59.9995 22.2711 59.9028 22.0206C59.806 21.7701 59.6417 21.552 59.4283 21.3908Z" fill="#FEE074"/>
<path d="M18.1935 26.176C18.4602 26.1719 18.7205 26.0927 18.9449 25.9474C19.1693 25.8021 19.3488 25.5963 19.4632 25.3535C19.5777 25.1107 19.6224 24.8405 19.5923 24.5734C19.5623 24.3063 19.4587 24.053 19.2933 23.8421L16.1038 19.7763L17.619 14.8235C17.6976 14.5667 17.7033 14.2928 17.6355 14.0328C17.5676 13.7728 17.429 13.5372 17.2352 13.3525C17.0414 13.1678 16.8002 13.0414 16.5389 12.9876C16.2775 12.9339 16.0065 12.9548 15.7564 13.0482L10.9338 14.849L6.72869 11.8663C6.51057 11.7115 6.2538 11.6213 5.98744 11.6059C5.72108 11.5905 5.45576 11.6505 5.22149 11.7792C4.98722 11.9078 4.79335 12.1 4.66182 12.3339C4.5303 12.5678 4.46635 12.8342 4.47723 13.1028L4.68629 18.2815L0.571829 21.3908C0.358446 21.552 0.194092 21.7703 0.0973479 22.0208C0.000604174 22.2712 -0.0246697 22.544 0.024384 22.8082C0.0734378 23.0724 0.194862 23.3175 0.374929 23.5158C0.554995 23.7141 0.78652 23.8577 1.04333 23.9303L5.995 25.3302L7.65763 30.2347C7.74388 30.489 7.89903 30.714 8.10553 30.8841C8.31203 31.0543 8.56164 31.1628 8.82615 31.1974C9.09065 31.2321 9.3595 31.1914 9.60229 31.0801C9.84507 30.9688 10.0521 30.7913 10.2 30.5676L13.0514 26.2541L18.1935 26.176Z" fill="#FEE074"/>
<path d="M47.6298 41.2721C48.2637 41.272 48.8797 41.0597 49.3809 40.6686C49.8821 40.2775 50.2401 39.7296 50.3988 39.1111C50.2401 38.4927 49.8821 37.9448 49.3809 37.5537C48.8797 37.1625 48.2637 36.9503 47.6298 36.9502H37.1468V30.3475C37.1468 28.5513 37.1468 24.9703 32.4709 24.513C32.3388 24.5005 32.2055 24.5159 32.0796 24.5584C31.9537 24.6008 31.838 24.6692 31.7399 24.7593C31.6418 24.8494 31.5635 24.9592 31.5099 25.0816C31.4563 25.204 31.4287 25.3363 31.4288 25.47V31.9965C31.4288 32.1742 31.3798 32.3484 31.2874 32.4997L28.5698 36.9502H28.6889L24.7578 39.5374V58.0441C25.3369 58.3823 25.9945 58.5601 26.6638 58.5593H45.7238C46.3577 58.5593 46.9737 58.347 47.4749 57.9559C47.9761 57.5647 48.3341 57.0169 48.4928 56.3984C48.3341 55.7799 47.9761 55.2321 47.4749 54.8409C46.9737 54.4498 46.3577 54.2376 45.7238 54.2375H42.8648V52.7969H46.6768C47.3107 52.7969 47.9267 52.5846 48.4279 52.1935C48.9291 51.8023 49.2871 51.2545 49.4458 50.636C49.2871 50.0175 48.9291 49.4697 48.4279 49.0785C47.9267 48.6874 47.3107 48.4751 46.6768 48.4751H42.8648V47.0345H47.6298C48.2637 47.0344 48.8797 46.8222 49.3809 46.431C49.8821 46.0399 50.2401 45.4921 50.3988 44.8736C50.2401 44.2551 49.8821 43.7072 49.3809 43.3161C48.8797 42.925 48.2637 42.7127 47.6298 42.7127H42.8648V41.2721H47.6298Z" fill="#FEE074"/>
<path d="M21.899 36.9502H12.369C11.9898 36.9502 11.6262 37.102 11.3581 37.3721C11.0901 37.6423 10.9395 38.0087 10.9395 38.3908V58.5593C10.9395 58.9414 11.0901 59.3078 11.3581 59.578C11.6262 59.8481 11.9898 59.9999 12.369 59.9999H21.899C22.2781 59.9999 22.6417 59.8481 22.9098 59.578C23.1779 59.3078 23.3285 58.9414 23.3285 58.5593V38.3908C23.3285 38.0087 23.1779 37.6423 22.9098 37.3721C22.6417 37.102 22.2781 36.9502 21.899 36.9502ZM17.134 57.7189C16.8512 57.7189 16.5749 57.6344 16.3398 57.4762C16.1047 57.3179 15.9215 57.0929 15.8133 56.8296C15.7051 56.5664 15.6768 56.2767 15.7319 55.9973C15.7871 55.7178 15.9232 55.4611 16.1232 55.2597C16.3231 55.0582 16.5778 54.921 16.8551 54.8654C17.1324 54.8098 17.4198 54.8383 17.681 54.9474C17.9422 55.0564 18.1655 55.2411 18.3225 55.478C18.4796 55.7149 18.5635 55.9934 18.5635 56.2783C18.5635 56.6604 18.4129 57.0268 18.1448 57.297C17.8767 57.5672 17.5131 57.7189 17.134 57.7189Z" fill="#FEE074"/>
</svg>
