<svg width="60" height="60" viewBox="0 0 60 60" fill="none" xmlns="http://www.w3.org/2000/svg">
<path d="M48.9747 10.4561C46.998 10.4561 45.1022 9.67737 43.7045 8.29131C42.3067 6.90525 41.5215 5.02534 41.5215 3.06516V0.498698C41.5215 0.433209 41.5084 0.36836 41.4832 0.307855C41.4579 0.247351 41.4209 0.192375 41.3742 0.146066C41.3275 0.0997574 41.272 0.0630234 41.211 0.0379613C41.15 0.0128993 41.0846 0 41.0186 0H13.2555C11.7291 0 10.2651 0.601308 9.18575 1.67164C8.10638 2.74198 7.5 4.19366 7.5 5.70735V54.2925C7.5 55.8062 8.1064 57.258 9.18579 58.3283C10.2652 59.3987 11.7291 60 13.2556 60H46.7443C48.2708 60 49.7348 59.3987 50.8142 58.3283C51.8936 57.258 52.5 55.8062 52.5 54.2925V10.9547C52.5 10.8225 52.447 10.6956 52.3527 10.6021C52.2584 10.5086 52.1305 10.4561 51.9971 10.4561H48.9747ZM16.5937 55.3227C15.9286 55.3764 15.2628 55.2264 14.6864 54.8929C14.11 54.5595 13.6507 54.0586 13.3705 53.458C13.0902 52.8575 13.0027 52.1861 13.1195 51.5345C13.2364 50.883 13.5521 50.2827 14.0239 49.8148C14.4958 49.3469 15.1011 49.0338 15.7581 48.9179C16.4152 48.802 17.0922 48.8888 17.6979 49.1667C18.3035 49.4445 18.8086 49.9 19.1449 50.4715C19.4812 51.0431 19.6325 51.7033 19.5784 52.3629C19.5156 53.127 19.1809 53.8442 18.6342 54.3863C18.0875 54.9285 17.3643 55.2603 16.5937 55.3227ZM16.5937 45.8233C15.9286 45.877 15.2628 45.727 14.6864 45.3936C14.11 45.0601 13.6507 44.5593 13.3705 43.9587C13.0902 43.3581 13.0027 42.6867 13.1195 42.0352C13.2364 41.3836 13.5521 40.7834 14.0239 40.3154C14.4958 39.8475 15.1011 39.5344 15.7581 39.4185C16.4152 39.3026 17.0922 39.3894 17.6979 39.6673C18.3035 39.9451 18.8086 40.4006 19.1449 40.9722C19.4812 41.5438 19.6325 42.2039 19.5784 42.8635C19.5156 43.6277 19.1809 44.3448 18.6342 44.887C18.0875 45.4291 17.3643 45.761 16.5937 45.8233ZM16.5937 36.3239C15.9286 36.3776 15.2628 36.2276 14.6864 35.8942C14.11 35.5607 13.6507 35.0599 13.3705 34.4593C13.0902 33.8587 13.0026 33.1873 13.1195 32.5358C13.2364 31.8843 13.552 31.284 14.0239 30.8161C14.4958 30.3481 15.1011 30.0351 15.7581 29.9192C16.4151 29.8032 17.0922 29.8901 17.6979 30.1679C18.3035 30.4457 18.8086 30.9012 19.1449 31.4728C19.4812 32.0444 19.6325 32.7045 19.5784 33.3641C19.5156 34.1283 19.1809 34.8454 18.6342 35.3876C18.0875 35.9297 17.3643 36.2616 16.5937 36.3239ZM18.7843 19.027C18.4843 18.7295 18.2463 18.3763 18.084 17.9877C17.9216 17.599 17.8381 17.1824 17.8381 16.7617C17.8381 16.341 17.9216 15.9245 18.084 15.5358C18.2463 15.1471 18.4843 14.794 18.7843 14.4965C19.3901 13.8957 20.2118 13.5582 21.0686 13.5582C21.9254 13.5582 22.7472 13.8957 23.353 14.4965L26.1062 17.2267C26.3768 17.495 26.7437 17.6457 27.1264 17.6457C27.509 17.6457 27.8759 17.495 28.1465 17.2267L36.6484 8.79598C37.2541 8.19537 38.0756 7.85796 38.9321 7.85796C39.7887 7.85796 40.6102 8.19537 41.2158 8.79598C41.5158 9.09347 41.7538 9.44667 41.9161 9.83539C42.0784 10.2241 42.1619 10.6407 42.1618 11.0615C42.1617 11.4822 42.078 11.8988 41.9154 12.2874C41.7529 12.676 41.5148 13.0291 41.2146 13.3264L30.215 24.222C29.3933 25.0359 28.2793 25.4929 27.1179 25.4926C25.9564 25.4923 24.8427 25.0346 24.0214 24.2202L18.7843 19.027ZM46.9304 52.1006C46.9304 52.3865 46.8737 52.6696 46.7633 52.9337C46.653 53.1978 46.4913 53.4378 46.2874 53.64C46.0836 53.8421 45.8416 54.0025 45.5752 54.1119C45.3089 54.2213 45.0234 54.2776 44.7351 54.2776H28.104C27.5218 54.2776 26.9634 54.0482 26.5517 53.64C26.14 53.2317 25.9087 52.678 25.9087 52.1006C25.9087 51.8148 25.9654 51.5317 26.0758 51.2675C26.1861 51.0034 26.3478 50.7634 26.5516 50.5613C26.7555 50.3591 26.9975 50.1988 27.2639 50.0894C27.5302 49.98 27.8157 49.9237 28.104 49.9237H44.7351C45.3173 49.9237 45.8757 50.153 46.2874 50.5613C46.6991 50.9695 46.9304 51.5233 46.9304 52.1006ZM46.9304 42.6013C46.9304 42.8871 46.8737 43.1702 46.7633 43.4344C46.653 43.6985 46.4913 43.9385 46.2874 44.1406C46.0836 44.3428 45.8416 44.5031 45.5752 44.6125C45.3089 44.7219 45.0234 44.7782 44.7351 44.7782H28.104C27.8157 44.7782 27.5302 44.7219 27.2639 44.6125C26.9975 44.5031 26.7555 44.3427 26.5517 44.1406C26.3478 43.9384 26.1861 43.6984 26.0758 43.4343C25.9654 43.1702 25.9087 42.8871 25.9087 42.6012C25.9087 42.0239 26.14 41.4702 26.5517 41.0619C26.9634 40.6536 27.5217 40.4243 28.104 40.4243H44.7351C45.0234 40.4243 45.3089 40.4806 45.5752 40.59C45.8416 40.6994 46.0836 40.8597 46.2874 41.0619C46.4913 41.264 46.653 41.504 46.7633 41.7681C46.8737 42.0323 46.9304 42.3154 46.9304 42.6013ZM44.7351 35.2788H28.1615C26.931 35.2788 25.886 34.2802 25.9091 33.0602C25.92 32.4902 26.1561 31.9472 26.5666 31.5479C26.977 31.1486 27.529 30.9249 28.104 30.9249H44.6776C45.9081 30.9249 46.9531 31.9234 46.93 33.1434C46.9191 33.7135 46.683 34.2565 46.2725 34.6558C45.8621 35.0551 45.3101 35.2788 44.7351 35.2788Z" fill="#FEE074"/>
<path d="M43.041 3.06466C43.041 3.83744 43.1945 4.60266 43.4928 5.31661C43.791 6.03057 44.2281 6.67929 44.7791 7.22573C45.3302 7.77217 45.9844 8.20563 46.7044 8.50136C47.4243 8.79709 48.196 8.9493 48.9753 8.9493H50.8775C50.9175 8.94931 50.9566 8.93747 50.9897 8.91531C51.0229 8.89314 51.0486 8.86167 51.0636 8.82492C51.0785 8.78817 51.0821 8.74781 51.0738 8.70904C51.0655 8.67026 51.0457 8.63483 51.017 8.60728L43.3811 1.28929C43.3527 1.26214 43.317 1.24387 43.2783 1.23674C43.2395 1.22961 43.1995 1.23395 43.1633 1.2492C43.127 1.26446 43.0961 1.28996 43.0744 1.32253C43.0526 1.3551 43.041 1.3933 43.041 1.43236L43.041 3.06466Z" fill="#FEE074"/>
</svg>
