<svg width="60" height="60" viewBox="0 0 60 60" fill="none" xmlns="http://www.w3.org/2000/svg">
<g clip-path="url(#clip0_1398_62)">
<path d="M9.64062 59.195L11.6387 59.9996L18.4955 42.8545H16.1749L9.64062 59.195Z" fill="#FEE074"/>
<path d="M28.9258 42.8545H31.0685V59.9964H28.9258V42.8545Z" fill="#FEE074"/>
<path d="M26.7848 52.4972V50.3545H17.8024L16.9453 52.4972H26.7848Z" fill="#FEE074"/>
<path d="M29.999 5.35742C27.4563 5.35742 24.9706 6.11144 22.8564 7.52412C20.7421 8.93681 19.0943 10.9447 18.1212 13.2939C17.1481 15.6431 16.8935 18.2281 17.3896 20.722C17.8857 23.2159 19.1101 25.5067 20.9081 27.3047C22.7062 29.1027 24.9969 30.3272 27.4909 30.8233C29.9848 31.3193 32.5698 31.0647 34.919 30.0917C37.2682 29.1186 39.2761 27.4707 40.6888 25.3565C42.1014 23.2423 42.8555 20.7566 42.8555 18.2139C42.8518 14.8053 41.4961 11.5373 39.0858 9.12706C36.6756 6.71681 33.4076 5.36111 29.999 5.35742ZM36.2012 13.5148L27.8691 24.2285C27.7759 24.3484 27.6582 24.4471 27.5239 24.518C27.3896 24.5889 27.2418 24.6305 27.0903 24.6399H27.0238C26.7397 24.6399 26.4672 24.527 26.2664 24.326L23.8847 21.9444C23.6896 21.7423 23.5816 21.4717 23.584 21.1908C23.5864 20.9099 23.6991 20.6411 23.8978 20.4425C24.0964 20.2439 24.3651 20.1312 24.646 20.1287C24.9269 20.1263 25.1976 20.2343 25.3996 20.4295L26.9231 21.9529L34.5106 12.197C34.6874 11.9799 34.9422 11.8405 35.2205 11.8089C35.4988 11.7773 35.7784 11.8559 35.9994 12.0279C36.2204 12.1999 36.3653 12.4517 36.403 12.7292C36.4407 13.0067 36.3683 13.2879 36.2012 13.5127V13.5148Z" fill="#FEE074"/>
<path d="M57.8519 1.07137C57.8519 0.787225 57.739 0.514718 57.5381 0.313797C57.3371 0.112876 57.0646 0 56.7805 0H3.21199C2.92785 0 2.65534 0.112876 2.45442 0.313797C2.2535 0.514718 2.14063 0.787225 2.14062 1.07137V36.4266H57.8519V1.07137ZM29.9962 33.2125C27.0297 33.2125 24.1297 32.3328 21.6631 30.6847C19.1965 29.0365 17.2741 26.694 16.1388 23.9532C15.0036 21.2125 14.7065 18.1966 15.2853 15.2871C15.864 12.3775 17.2925 9.70494 19.3902 7.60727C21.4879 5.50959 24.1605 4.08106 27.07 3.50231C29.9796 2.92357 32.9954 3.2206 35.7362 4.35585C38.4769 5.49111 40.8195 7.41359 42.4676 9.88019C44.1157 12.3468 44.9954 15.2467 44.9954 18.2133C44.9912 22.19 43.4095 26.0026 40.5976 28.8146C37.7856 31.6266 33.973 33.2082 29.9962 33.2125Z" fill="#FEE074"/>
<path d="M41.502 42.8545L48.3619 59.9964L50.3515 59.1961L43.8225 42.8545H41.502Z" fill="#FEE074"/>
<path d="M0 38.5693H59.9978V40.7121H0V38.5693Z" fill="#FEE074"/>
<path d="M42.1953 50.3545H33.2129V52.4972H43.0523L42.1953 50.3545Z" fill="#FEE074"/>
</g>
<defs>
<clipPath id="clip0_1398_62">
<rect width="60" height="60" fill="white"/>
</clipPath>
</defs>
</svg>
