<svg width="60" height="60" viewBox="0 0 60 60" fill="none" xmlns="http://www.w3.org/2000/svg">
<g clip-path="url(#clip0_1725_769)">
<path d="M51.5221 56.4708L27.9233 43.9758C27.3083 43.6495 26.5583 43.6945 25.9771 44.0883L7.93208 56.5833C7.25708 57.052 6.96458 57.9033 7.21208 58.687C7.45208 59.4633 8.17958 59.9995 8.99708 59.9995H50.6408C51.4996 59.9995 52.2533 59.4145 52.4596 58.5745C52.6696 57.7383 52.2796 56.872 51.5221 56.4708Z" fill="#FEE074"/>
<path d="M59.4209 52.9085L53.8709 27.9223C53.7359 27.311 53.3047 26.8123 52.7234 26.5835C52.1384 26.3548 51.4822 26.4335 50.9722 26.786L32.9234 39.281C32.3834 39.656 32.0797 40.2823 32.1209 40.931C32.1584 41.5873 32.5372 42.1723 33.1147 42.476L56.7097 54.971C56.9872 55.1173 57.2872 55.1923 57.5872 55.1923C57.9884 55.1923 58.3897 55.0648 58.7234 54.806C59.3047 54.3635 59.5784 53.6248 59.4209 52.9085Z" fill="#FEE074"/>
<path d="M46.3656 23.8162C46.1181 23.0325 45.3943 22.5 44.5731 22.5H27.4581C24.3456 28.1363 19.7406 33.525 17.8468 35.6325C16.7818 36.8175 15.2556 37.5 13.6618 37.5C12.0681 37.5 10.5418 36.8175 9.47681 35.6325C8.74556 34.8187 7.61306 33.5175 6.31556 31.905L1.77806 52.3275C1.61306 53.0813 1.92431 53.8575 2.56181 54.2888C2.87681 54.5025 3.24431 54.6075 3.60806 54.6075C3.98306 54.6075 4.35431 54.4987 4.67681 54.2737L45.6381 25.9125C46.3168 25.4512 46.6056 24.6 46.3656 23.8162Z" fill="#FEE074"/>
<path d="M13.6602 0C6.42266 0 0.535156 5.8875 0.535156 13.125C0.535156 19.86 11.0652 31.7887 12.2652 33.1275C12.6214 33.5212 13.1277 33.75 13.6602 33.75C14.1927 33.75 14.6989 33.5212 15.0552 33.1275C16.2552 31.7887 26.7852 19.86 26.7852 13.125C26.7852 5.8875 20.8977 0 13.6602 0ZM13.6602 18.75C10.5552 18.75 8.03516 16.23 8.03516 13.125C8.03516 10.02 10.5552 7.5 13.6602 7.5C16.7652 7.5 19.2852 10.02 19.2852 13.125C19.2852 16.23 16.7652 18.75 13.6602 18.75Z" fill="#FEE074"/>
</g>
<defs>
<clipPath id="clip0_1725_769">
<rect width="60" height="60" fill="white"/>
</clipPath>
</defs>
</svg>
