<svg width="40" height="40" viewBox="0 0 40 40" fill="none" xmlns="http://www.w3.org/2000/svg">
<path d="M36.3397 28.4811C36.3578 28.8497 36.3016 29.1631 36.4024 29.413C36.5458 29.7691 36.9065 30.3867 36.9967 30.3568C37.4875 30.1941 38.1973 29.9589 38.3258 29.5778C38.6618 28.5818 38.7913 27.5032 38.897 26.4462C39.0529 24.887 39.3023 23.9586 38.4328 22.5386C37.2109 22.2671 35.9891 21.9952 34.7672 21.7236C34.119 22.3635 33.5518 23.0894 33.0801 23.9114C34.0555 24.5241 34.7892 24.0498 35.5102 23.9322C36.219 23.8172 37.0921 23.714 37.3242 24.4784C37.5453 25.207 37.4275 26.1032 37.2313 26.8676C37.1221 27.2932 36.997 27.5352 37.3492 27.8718C37.44 27.9587 37.439 27.9758 37.4481 28.0106C37.5134 28.2624 36.9609 28.8395 36.3397 28.4811Z" fill="#FEE074"/>
<path d="M20.6436 13.3547C21.1767 13.5293 21.6988 13.7837 22.2454 13.8579C22.9669 13.9558 23.7076 13.9119 24.5596 13.932C25.3073 9.46731 27.3549 5.85453 32.4862 4.79602C31.747 4.34869 31.0692 3.963 30.3414 3.74117C28.9557 3.31825 27.5318 2.762 26.0767 3.25387C24.8651 3.66336 23.7268 4.13144 22.5312 3C22.7893 4.5748 23.8692 5.33336 25.2186 5.09505C25.6562 5.01785 26.105 5.00442 26.5827 4.95865C26.5504 5.20917 26.5617 5.28118 26.5315 5.32298C26.4619 5.41971 26.3867 5.52559 26.2883 5.58601C25.1433 6.29087 23.9697 6.27927 22.8462 5.58845C21.4614 4.73652 19.8705 4.27424 18.249 4.60134C16.717 4.91043 15.7824 5.90831 13.6275 5.57136C13.2773 5.51644 12.9327 5.42459 12.6023 5.29583C12.7143 5.80693 12.9355 6.35617 13.2767 6.75986C13.5886 7.12877 14.1581 7.28103 14.6103 7.4159C16.1935 7.88742 17.3719 7.51862 18.8696 7.09673C20.6818 6.58532 22.1162 7.43329 23.5283 8.40422C23.0807 8.47257 22.6147 8.51194 22.2394 8.34625C20.8825 7.74666 19.5582 7.74605 18.1786 8.27424C15.9916 9.11214 13.9033 9.08406 12.073 7.38081C12.042 7.35212 11.9636 7.37409 11.9062 7.37226C12.5305 9.69738 15.0954 11.2655 17.3731 10.6964C19.5394 10.1543 19.8126 9.32108 22.4247 10.7556C21.1644 11.3643 19.5696 10.004 18.656 11.7033C19.8747 11.9358 21.0415 12.1583 22.2083 12.3807C22.226 12.4637 22.2437 12.5461 22.2615 12.6291C21.7461 12.7847 21.2306 12.9406 20.7152 13.0966C20.6913 13.1826 20.6675 13.2687 20.6436 13.3547Z" fill="#FEE074"/>
<path d="M0.392496 21.8401C0.860343 22.2932 1.35413 22.7707 1.94303 22.9764C3.57245 23.5458 5.39051 22.7961 6.72578 21.0586C8.42556 18.8468 8.67553 17.1004 10.716 18.0381C10.5997 19.0215 10.4097 19.9833 10.3926 20.9482C10.3451 23.6312 11.417 25.5777 9.05646 26.1705C8.13397 26.4021 7.90138 26.9178 7.84371 27.7822C7.73523 29.4104 7.48892 31.0286 7.34985 32.6552C7.32285 32.9707 7.53331 33.3033 7.61722 33.6329C7.7218 34.0423 8.00559 35.7007 8.40714 35.8277C9.00871 36.0184 9.67016 36.019 10.4788 36.1164C9.82571 34.8842 9.04975 33.9762 8.89169 32.971C8.7215 31.8893 9.04632 30.6963 9.31018 29.5886C9.5864 28.4297 10.5568 27.6617 11.4773 27.551C11.6636 28.0071 11.7244 28.5548 12.0303 28.835C16.4263 32.863 17.5441 32.5898 15.603 34.0375C16.1091 34.6209 16.6046 35.1921 17.1001 35.763C17.2507 35.7209 17.272 35.7148 17.4225 35.6727C17.5504 34.9648 17.6373 34.2462 17.8114 33.5496C17.9959 32.8109 17.7184 32.0453 17.1348 31.5564C16.4324 30.9681 15.7994 30.2953 15.1518 29.6436C12.5702 27.0467 16.3057 27.7975 18.7364 23.5802C18.7493 23.558 20.3925 24.138 20.5512 24.185C22.8645 24.8672 25.1487 25.1643 27.5501 24.77C27.7371 24.7391 27.914 24.7443 28.0095 24.6049C28.106 24.4642 28.1035 24.3275 28.2881 24.2476C28.5683 24.1255 28.7272 24.2653 28.8326 24.4932C29.5493 26.0449 31.442 27.4129 32.2169 29.3464C32.659 30.4497 33.1979 31.5189 33.5637 32.6461C33.6942 33.0479 34.024 33.3644 34.442 33.4251C34.7519 33.4702 35.0405 33.592 35.1513 33.6228C34.962 34.2602 34.7646 34.6905 34.7403 35.1308C34.7316 35.2904 35.1288 35.6095 35.3533 35.6217C36.3746 35.6761 37.4006 35.6443 38.4249 35.6452C38.4751 35.5238 38.4778 35.5174 38.528 35.3962C38.0259 34.9093 37.5824 34.3341 37.0097 33.9533C34.3237 32.166 34.5029 29.8509 33.6665 28.1524C30.053 20.8133 29.0275 20.0436 29.6586 18.3475C30.2361 19.4789 30.8153 20.6137 31.4012 21.7613C31.7048 22.3564 32.5226 22.4528 32.9491 21.9386C33.7829 20.9335 34.2422 19.6816 34.3099 18.3741C34.3485 17.6298 34.1795 16.7764 34.1123 16.0276C33.868 13.3081 33.1839 12.2174 33.3442 10.4329C33.3623 10.2325 33.5981 9.60054 33.5322 9.44553C34.035 10.6277 35.0559 10.7012 36.1191 11.0066C36.3432 9.83285 37.1216 8.96967 38.2004 8.58384C37.3583 7.63151 36.5106 6.67736 35.6517 5.70703C35.8172 5.42448 35.9946 5.12148 36.1983 4.77332C36.377 4.46788 36.112 4.08891 35.7647 4.15756C35.5862 4.19296 35.4377 4.24148 35.3263 4.33454C33.9909 5.44889 32.2421 5.63929 30.7835 6.45064C28.1458 7.91773 26.8033 10.3121 26.1381 13.1578C25.7512 14.8128 24.7763 15.9382 23.0942 16.2464C22.0473 16.4372 20.5034 16.3485 19.9992 16.2409C18.5422 15.7633 16.1697 14.1912 12.7747 16.0624C11.946 16.5191 10.9382 16.5146 10.0871 16.1014C7.4851 14.8385 5.74088 15.4197 4.30782 17.949C3.39247 19.5646 3.18982 19.8942 1.65438 19.4362C1.50173 19.3908 1.38578 18.5721 1.45436 18.54C1.85717 18.3529 2.26471 18.3123 2.91687 18.1614C1.43212 16.3403 -1.01696 18.7304 0.453447 20.5982C1.26159 21.6243 2.75599 21.8147 4.01955 21.0415C4.406 20.8054 4.77544 20.5408 5.32437 20.1753C4.57451 22.2007 3.39616 22.5233 0.392496 21.8401ZM35.6489 7.20127C35.9036 7.20127 36.1101 7.46125 36.1101 7.78194C36.1101 8.10264 35.9036 8.36261 35.6489 8.36261C35.3943 8.36261 35.1879 8.10264 35.1879 7.78194C35.1879 7.46125 35.3943 7.20127 35.6489 7.20127Z" fill="#FEE074"/>
<path d="M39.1364 9.64941C38.1694 9.72809 37.3688 10.4527 37.3125 11.5208C37.5337 11.6572 37.7359 11.8122 37.8998 11.9907C38.5209 12.6663 38.9786 12.6028 39.5743 12.1414C40.0441 11.7777 40.157 10.8166 39.7493 10.3466C39.5468 10.1135 39.34 9.88193 39.1364 9.64941Z" fill="#FEE074"/>
</svg>
