<svg width="40" height="40" viewBox="0 0 40 40" fill="none" xmlns="http://www.w3.org/2000/svg">
<g clip-path="url(#clip0_1397_300)">
<path d="M39.9102 12.331C39.9102 12.331 39.2136 5.1493 38.2303 4.07837L37.8124 1.6543L36.2134 3.83162C36.2134 3.83162 29.6215 1.71687 25.8921 11.4163C25.8921 11.4163 25.7526 11.6617 25.4843 12.036C25.0194 11.8815 24.5363 11.6773 24.3695 11.463C24.1558 11.1869 24.0622 10.4028 24.1794 10.0721C24.3721 9.54427 24.1822 7.32134 24.1822 7.32134C25.4596 7.29204 25.9753 5.87456 25.9753 5.87456L26.6993 6.22486C27.0353 5.69545 26.7422 4.40047 26.5534 3.97395C25.4649 1.54084 22.9646 2.97374 22.9646 2.97374C21.3537 4.10613 22.6352 4.93031 22.6352 4.93031C21.919 4.90872 19.7835 5.34053 18.8699 5.67122C17.1301 6.30086 14.0204 9.49206 14.0204 9.49206C12.4364 11.0455 13.2963 12.4643 13.2963 12.4643C13.7631 13.5244 17.9483 15.7954 17.9483 15.7954C18.1431 15.9595 18.2614 16.1763 18.3416 16.41C17.4112 16.4622 16.4097 16.3657 15.3218 16.0221C13.183 15.3475 11.3423 13.5348 6.74092 18.6341C6.74092 18.6341 -1.5932 18.6341 0.27217 29.0812C0.27217 29.0812 3.38185 27.5888 4.2523 23.3591C4.2523 23.3591 4.87401 20.1264 6.49153 20.4981C6.49153 20.4981 5.37236 25.599 11.7147 28.2096C11.7147 28.2096 11.8398 29.8258 10.8449 30.5733C10.8449 30.5733 9.59989 32.4354 13.3308 33.8053C13.3308 33.8053 17.0155 35.4228 17.7615 36.8211C17.7615 36.8211 18.5084 37.2873 19.5337 37.1025C19.5337 37.1025 19.1138 38.3133 20.8873 38.3133C20.8873 38.3133 22.4239 38.5477 22.4239 37.7535C22.4239 37.7535 21.9111 36.4473 20.9342 36.308C20.9342 36.308 19.6736 34.5369 17.9939 34.3937C17.9939 34.3937 15.1493 34.0681 15.2429 31.3649C15.2429 31.3649 17.0616 28.2839 16.6417 25.5831C16.6417 25.5831 26.2005 27.5886 29.1864 25.302C29.1864 25.302 29.4195 26.2786 30.258 26.2317L30.3518 26.9816C30.3518 26.9816 29.7931 27.0285 29.5587 27.6329C29.5587 27.6329 29.4192 28.0521 30.2566 28.0052V28.8908C30.2566 28.8908 30.3036 29.6851 31.7957 28.7031C31.7957 28.7031 34.6397 28.3308 35.5734 26.652C35.5734 26.652 39.6297 24.9241 38.4174 23.0123C38.4174 23.0123 37.6232 21.2386 35.7128 21.7076L33.6604 21.7986C33.6604 21.7986 34.8274 19.7927 33.4262 17.9734C33.4262 17.9734 34.8274 12.9853 34.4992 10.0475C34.4992 10.0475 35.4771 12.5198 36.6921 12.8914C36.6921 12.8914 36.5527 14.7108 38.8864 14.5264C38.8842 14.5246 40.3753 14.3847 39.9102 12.331ZM22.2825 9.8027C22.2825 9.8027 22.5052 11.379 22.8293 11.6081C22.8293 11.6081 21.9034 11.5509 21.7485 11.2711C21.6286 11.0497 21.5817 10.0201 21.5817 10.0201L22.2825 9.8027ZM22.0935 15.2285C21.4125 14.0461 19.3114 12.4229 19.3114 12.4229C18.1219 11.2979 19.9501 10.8908 19.9501 10.8908L20.3889 12.6189C21.1411 13.9608 24.3984 13.3098 24.3984 13.3098L24.4244 13.3301C23.828 13.9672 23.0468 14.6581 22.0935 15.2285ZM35.1991 24.6432C34.5478 25.7177 32.3538 26.2165 32.3538 26.2165C32.7274 25.5016 35.1991 24.6432 35.1991 24.6432Z" fill="#FEE074"/>
</g>
<defs>
<clipPath id="clip0_1397_300">
<rect width="40" height="40" fill="white"/>
</clipPath>
</defs>
</svg>
