<svg width="40" height="40" viewBox="0 0 40 40" fill="none" xmlns="http://www.w3.org/2000/svg">
<g clip-path="url(#clip0_1397_345)">
<path d="M29.4397 24.3839L31.3007 20.1506C30.9629 20.1295 30.6263 20.0874 30.2925 20.0039C28.3498 19.5166 26.8977 17.9888 25.8898 16.3398H23.9711C24.2156 17.1904 24.0764 18.1013 23.59 18.8373L19.7874 24.6362C19.2232 25.4945 18.2744 26.0066 17.2462 26.0066C16.6533 26.0066 16.079 25.8343 15.5821 25.509C14.1822 24.5902 13.792 22.7038 14.7108 21.3053L16.5798 18.4535L14.4267 17.4605C13.8919 17.2139 13.4541 16.8242 13.1453 16.3397H11.8873C10.5702 16.3397 9.37926 16.8381 8.45111 17.6338C7.15774 16.7433 2.40058 13.9054 0.861095 19.141C-0.750249 24.6159 2.95784 25.5472 0.140904 28.0288C-0.00758018 28.1603 -0.0431836 28.3779 0.0555052 28.5501C0.155507 28.7216 0.361662 28.7998 0.549688 28.736C1.88654 28.2838 3.67672 26.8833 4.3184 22.7164C4.75057 19.902 6.13623 18.9136 7.31418 19.001C6.86176 19.7819 6.583 20.6762 6.583 21.6437C6.583 23.1048 7.17456 24.4278 8.13035 25.3867L6.10334 28.4849L5.99571 28.648C5.84296 28.8813 5.76149 29.1639 5.77724 29.463L6.26486 38.3292C6.28997 38.7708 6.61327 39.156 7.06693 39.2388C7.59909 39.3368 8.1105 38.9838 8.2078 38.4514L9.18304 33.1298L10.7459 38.5482C10.8697 38.9733 11.2705 39.2763 11.732 39.2551C12.2735 39.2309 12.6915 38.7734 12.6677 38.2326L12.3116 30.2944L14.6225 26.9476H22.0834L23.6268 30.0347L22.378 38.1208C22.3041 38.5979 22.5683 39.0804 23.0379 39.2617C23.5793 39.4707 24.188 39.2013 24.3968 38.6598L26.9626 32.019L28.2338 38.5152C28.3284 39.0003 28.7689 39.3532 29.275 39.325C29.8296 39.2935 30.2529 38.8195 30.2212 38.2655L29.4397 24.3839Z" fill="#FEE074"/>
<path d="M21.312 5.72489C22.7066 5.72489 23.8386 4.59305 23.8386 3.19647C23.8386 1.79973 22.7066 0.667969 21.312 0.667969C19.9135 0.667969 18.7832 1.79973 18.7832 3.19647C18.7832 4.59305 19.9135 5.72489 21.312 5.72489Z" fill="#FEE074"/>
<path d="M39.3471 11.3003L34.7383 7.43578L35.1313 3.78536C35.1471 3.629 35.0643 3.47855 34.9237 3.40873C34.7816 3.33908 34.612 3.36534 34.4991 3.47387L32.3844 5.49687L30.8776 8.86985L28.4893 12.4525C29.1755 14.1836 30.172 15.8123 31.2775 16.0878C31.8413 16.2283 32.5497 16.0087 33.3504 15.4896L34.252 13.437L36.5338 14.4571C34.4031 16.7994 32.5223 17.7927 30.9501 17.393C28.5575 16.795 27.1052 12.9902 26.5516 10.8527C26.6162 10.6307 26.633 10.3921 26.5476 10.1574C26.3807 9.69931 25.9485 9.4167 25.4882 9.4167C25.3596 9.4167 25.2292 9.43893 25.1018 9.48495L22.1326 10.5681L21.1283 8.35269C21.1286 8.35179 21.129 8.35081 21.1294 8.3499C21.3094 7.87607 21.2917 7.34981 21.0805 6.88901C20.8692 6.42822 20.4818 6.07104 20.0052 5.89843L19.7968 5.82296C18.8616 5.48432 17.8273 5.92518 17.4217 6.83339C16.6952 8.45991 15.491 11.1348 14.1639 13.9963C13.7723 14.8434 14.1431 15.847 14.9906 16.2388L18.562 17.8858L15.836 22.0435C15.3233 22.8245 15.5417 23.872 16.3209 24.384C16.6064 24.5707 16.9283 24.6606 17.2464 24.6606C17.796 24.6606 18.3361 24.3939 18.662 23.8977L22.4651 18.0994C22.7356 17.6887 23.1503 16.2751 21.8463 15.6817C20.9984 15.2958 18.8947 14.315 18.8947 14.315L20.0069 11.3424C20.5628 12.5688 20.7469 13.1044 21.4161 13.1044C22.0535 13.1044 23.1484 12.6122 25.4134 11.7728C26.0535 13.9622 27.6088 17.9431 30.62 18.6983C30.9539 18.7818 31.2917 18.8238 31.6361 18.8238C33.5619 18.8238 35.6652 17.5059 37.9065 14.9251C38.1562 14.9368 38.4072 14.9033 38.6451 14.8126C39.0988 14.6391 39.464 14.2928 39.6613 13.8497L39.8414 13.4476C40.1738 12.7015 39.9726 11.8247 39.3471 11.3003Z" fill="#FEE074"/>
</g>
<defs>
<clipPath id="clip0_1397_345">
<rect width="40" height="40" fill="white"/>
</clipPath>
</defs>
</svg>
