<svg width="40" height="40" viewBox="0 0 40 40" fill="none" xmlns="http://www.w3.org/2000/svg">
<g clip-path="url(#clip0_1397_325)">
<path d="M36.8281 19.1318C37.0254 19.3759 37.2351 19.6327 37.4307 19.8666C37.603 19.6686 37.7865 19.4565 37.9711 19.2421C37.7165 19.2205 37.323 19.1848 36.8281 19.1318Z" fill="#FEE074"/>
<path d="M25.8411 16.5475C25.7166 16.6591 25.5721 16.7181 25.4229 16.7181C25.17 16.7181 24.9354 16.5496 24.7951 16.2675C24.3398 15.3509 24.0232 14.4442 23.8036 13.5992L23.6081 13.81C23.6162 13.8991 23.6241 13.991 23.6316 14.0854C23.792 14.4667 23.819 14.9318 23.6969 15.3479C23.7401 17.3692 23.4647 19.693 21.9792 19.75C21.9321 19.7518 21.8845 19.7526 21.8368 19.753L21.4177 20.7381C21.2233 21.1948 20.8593 21.4786 20.4673 21.4786C20.2778 21.4786 20.0906 21.4114 19.9255 21.2847C19.6719 21.0901 19.4897 20.7743 19.4129 20.3958C19.3384 20.029 19.3723 19.6463 19.5063 19.3129C17.5192 18.5881 15.7191 17.0671 15.7191 15.4956C15.7191 13.5251 17.1411 13.376 16.6887 12.8077C16.5461 12.7534 16.4007 12.706 16.2551 12.6698C15.2252 12.4142 12.1154 12.1541 11.4142 12.5749C11.1819 12.7143 10.9145 12.9532 10.6486 13.2599C9.6816 12.9472 8.09447 12.497 7.26346 12.607C6.21123 12.7462 3.69156 14.3945 2.84969 14.4867C2.00789 14.5787 0.0708646 14.4015 0.000947182 14.8698C-0.0689702 15.3382 3.74918 18.466 5.71796 17.0171C6.78558 16.2315 8.27081 15.7827 9.40691 15.5363C9.38941 15.5986 9.37162 15.6609 9.35668 15.7237C9.02173 17.1375 10.1397 19.7029 10.1397 19.7029C10.1397 19.7029 10.5755 22.0843 10.191 22.6471C10.1841 22.6573 10.1763 22.6702 10.1688 22.682C9.85387 22.699 9.41649 22.7395 8.95415 22.8343C8.06008 23.0175 4.02063 27.7414 4.02063 27.7414L2.73595 27.6592V31.4216C2.73595 31.4216 3.77619 30.9907 4.11288 29.5077C4.44956 28.025 7.62956 26.4555 7.62956 26.4555L8.61444 26.3151C8.57152 26.4257 8.54648 26.4908 8.54648 26.4908L7.82702 27.3085L7.05537 30.1823L5.60075 33.4276L4.41495 33.2263L3.85508 33.6877L3.84957 35.5163C3.84957 35.5163 5.5242 35.1949 6.36155 34.1024C7.1989 33.0101 7.87838 30.8253 7.87838 30.8253L8.85481 29.6804L11.5785 25.3458C11.5785 25.3458 13.5912 25.6657 14.615 25.0415C15.6389 24.4173 16.4092 23.1376 16.4092 23.1376C16.4092 23.1376 21.4862 27.1233 23.1556 27.0657C24.2829 27.0268 25.654 26.3157 26.4262 25.8575L26.9641 26.905C26.9641 26.905 28.5889 31.6626 28.8282 32.4658C28.9223 32.7818 29.0376 33.8068 29.0913 34.3937C29.1742 35.2989 29.4515 36.001 29.4515 36.001L31.7726 35.0019L31.1506 33.7809L30.1174 33.3954L28.5134 26.0948C29.921 26.6965 31.8745 27.5705 32.2344 27.9332C32.8086 28.5115 35.3722 31.7247 35.3722 31.7247L35.8863 33.9329L37.5821 33.7695L37.0168 31.9702L35.7833 30.498C35.7833 30.498 33.3759 26.7177 32.7513 26.0001C32.1268 25.2825 29.6679 23.2195 29.6679 23.2195L30.3361 18.5578L31.0631 18.2039C29.1239 17.7613 27.2383 17.1639 26.016 16.3283C25.968 16.4114 25.9097 16.4859 25.8411 16.5475Z" fill="#FEE074"/>
<path d="M39.583 17.8926C39.2124 18.3294 38.3531 19.3397 37.6602 20.1363C37.8869 20.4006 38.0727 20.6041 38.161 20.6715C38.5039 20.9335 40.07 19.5107 39.9984 18.9665C39.978 18.8118 39.8112 18.4009 39.583 17.8926Z" fill="#FEE074"/>
<path d="M28.0528 8.05849C28.8333 7.36134 29.0452 5.94633 28.5261 4.89798C28.007 3.84964 26.9534 3.56494 26.1729 4.2621C25.3925 4.95926 25.1806 6.37427 25.6997 7.42261C26.2188 8.47096 27.2724 8.75565 28.0528 8.05849Z" fill="#FEE074"/>
<path d="M23.1975 12.8418C23.0743 12.8637 22.9139 12.8909 22.7246 12.9209L23.2825 13.5661C23.2555 13.2986 23.2263 13.0533 23.1975 12.8418Z" fill="#FEE074"/>
<path d="M22.0117 19.3414C22.3761 19.3142 22.6601 19.1212 22.8769 18.7486C23.2283 18.1453 23.3655 17.1452 23.3914 16.0986L22.0117 19.3414Z" fill="#FEE074"/>
<path d="M21.2842 15.1314L19.6469 13.2385C19.4074 13.2481 19.166 13.2537 18.9257 13.2537C18.2283 13.2537 17.6091 13.2084 17.0754 13.1191C17.043 13.3965 16.868 13.5945 16.6976 13.7871C16.3964 14.1274 16.0215 14.551 16.0215 15.4947C16.0215 16.7915 17.7124 18.2633 19.6587 18.9522L21.2842 15.1314Z" fill="#FEE074"/>
<path d="M23.3665 9.06736C23.4197 8.5718 23.7403 8.19851 24.1122 8.19851C24.1484 8.19851 24.1848 8.20205 24.2208 8.20894C24.4201 8.24723 24.5964 8.38784 24.7171 8.60452C24.8377 8.8213 24.8884 9.08803 24.8596 9.35596L24.8583 9.37248C24.8563 9.39638 24.8536 9.43326 24.8506 9.4832C24.8448 9.58105 24.8381 9.74121 24.8383 9.94776C24.8383 10.058 24.8402 10.1804 24.8448 10.3126C25.2957 9.92659 25.5928 9.30775 25.4862 8.69984C25.3342 7.83231 24.596 6.93286 23.4403 7.15815C21.8526 7.4808 20.9215 7.95782 19.5211 9.22083C18.5495 10.2491 18.8196 11.3197 19.1439 12.1396C19.1553 12.1688 19.1667 12.197 19.178 12.2248C19.2212 12.3793 19.2873 12.5241 19.376 12.6494C19.4367 12.7532 19.5008 12.8335 19.5737 12.8866L21.4768 15.087L19.6502 19.3803C19.3917 19.9875 19.5488 20.7612 20.001 21.108C20.1486 21.2214 20.3094 21.2752 20.468 21.2752C20.7953 21.2753 21.1133 21.046 21.2873 20.637L23.4997 15.4368C23.7242 14.9091 23.6391 14.2454 23.2962 13.8489L21.5553 11.8363C22.1515 11.4759 22.7894 11.2055 23.3695 10.9794C23.3396 10.5813 23.3296 10.2324 23.3296 9.94756C23.3299 9.44217 23.3605 9.12571 23.3665 9.06736Z" fill="#FEE074"/>
<path d="M36.2852 18.8665C36.2922 18.7551 36.3653 18.6722 36.4482 18.6818H36.4484H36.4483C35.1789 18.5372 33.4133 18.2953 31.6443 17.9206L33.5197 17.0079L36.0078 18.1003C36.0078 18.1003 36.2 18.3454 36.4706 18.6844C37.4991 18.801 38.194 18.8532 38.2981 18.8606C38.3884 18.7553 38.4776 18.651 38.564 18.55C38.9297 18.1222 39.2474 17.7482 39.423 17.5412C38.8465 16.2926 38.0453 14.7132 38.0453 14.7132L37.7884 13.4048C37.7884 13.4048 36.8428 11.2624 35.8871 10.2152C35.506 9.79781 35.2361 9.90458 34.3571 9.71424C34.1126 9.66116 33.0808 8.64279 32.8379 8.5735C31.7626 8.26747 31.5819 8.81449 31.5819 8.81449L32.7423 9.83468L31.3247 9.8829L25.7687 11.4814L25.0684 12.2361C25.2427 13.1175 25.5421 14.1208 26.0501 15.1417C26.1754 15.3937 26.2045 15.6942 26.1504 15.9661C27.4141 16.8287 29.5272 17.4752 31.6295 17.9177V17.9178C31.5471 17.9003 31.4698 17.9757 31.4569 18.0863C31.444 18.1965 31.4999 18.2999 31.5819 18.3179C31.5821 18.318 31.5823 18.3181 31.5824 18.3181C33.3667 18.6966 35.1443 18.9402 36.4219 19.0857C36.3394 19.0752 36.2781 18.9775 36.2852 18.8665ZM36.0939 13.2755L37.1562 14.3557C37.1562 14.3557 36.6908 14.9928 36.2225 14.529C35.7542 14.0653 36.0939 13.2755 36.0939 13.2755Z" fill="#FEE074"/>
<path d="M25.9249 15.2553C24.8427 13.0805 24.6875 10.9724 24.6875 9.94851C24.6873 9.73821 24.694 9.57491 24.7001 9.46794C24.7032 9.41465 24.7062 9.37555 24.7081 9.35154C24.7091 9.33969 24.7099 9.33159 24.7102 9.32743C24.7577 8.88425 24.5289 8.47337 24.199 8.40976C23.8692 8.34594 23.5634 8.65318 23.5158 9.09606C23.5124 9.12848 23.4806 9.43724 23.4805 9.9484C23.4805 11.1838 23.6663 13.6296 24.9211 16.1552C25.0375 16.3892 25.2288 16.5157 25.4236 16.5157C25.5388 16.5157 25.6551 16.4715 25.758 16.3792C26.0352 16.1307 26.1098 15.6274 25.9249 15.2553Z" fill="#FEE074"/>
</g>
<defs>
<clipPath id="clip0_1397_325">
<rect width="40" height="40" fill="white"/>
</clipPath>
</defs>
</svg>
