<svg width="40" height="40" viewBox="0 0 40 40" fill="none" xmlns="http://www.w3.org/2000/svg">
<g clip-path="url(#clip0_1422_37)">
<path d="M38.5097 3.92868L35.666 4.33501L36.0723 1.49134C36.249 0.255322 34.7435 -0.500147 33.8592 0.38501L28.6422 5.60204C28.4427 5.80157 28.3132 6.06056 28.2733 6.33993L27.6827 10.4743L21.2415 16.9155C20.7314 16.6714 20.1673 16.5234 19.5651 16.5234C17.4075 16.5234 15.6523 18.2786 15.6523 20.4362C15.6523 22.5938 17.4075 24.3489 19.5651 24.3489C21.7227 24.3489 23.4778 22.5938 23.4778 20.4362C23.4778 19.834 23.3298 19.2699 23.0858 18.7598L29.527 12.3186L33.6613 11.728C33.9407 11.6881 34.1996 11.5586 34.3992 11.3591L39.6162 6.14204C40.4978 5.26024 39.7514 3.7547 38.5097 3.92868Z" fill="#FEE074"/>
<path d="M30.1456 15.3881L26.0136 19.5198C26.0561 19.8199 26.0857 20.1242 26.0857 20.436C26.0857 24.032 23.1605 26.9572 19.5645 26.9572C15.9684 26.9572 13.0432 24.032 13.0432 20.436C13.0432 16.8399 15.9684 13.9147 19.5645 13.9147C19.8761 13.9147 20.1803 13.9442 20.4804 13.9867L24.6123 9.85478C23.0807 9.12103 21.3731 8.69775 19.5645 8.69775C13.092 8.69775 7.82617 13.9636 7.82617 20.436C7.82617 26.9085 13.092 32.1743 19.5645 32.1743C26.0369 32.1743 31.3027 26.9085 31.3027 20.436C31.3027 18.6273 30.8795 16.9197 30.1456 15.3881Z" fill="#FEE074"/>
<path d="M37.2844 12.1615L36.2423 13.2036C35.6479 13.7984 34.8616 14.1915 34.0291 14.3104L32.615 14.5125C33.4393 16.3209 33.9106 18.3227 33.9106 20.4364C33.9106 28.3472 27.4747 34.7832 19.5638 34.7832C11.653 34.7832 5.21703 28.3472 5.21703 20.4364C5.21703 12.5255 11.653 6.08959 19.5638 6.08959C21.6775 6.08959 23.6793 6.56092 25.4877 7.38521L25.6898 5.97115C25.8086 5.13857 26.2018 4.35232 26.7966 3.75748L27.8384 2.71576C25.2684 1.51209 22.4665 0.872559 19.5637 0.872559C8.77609 0.872559 0 9.64873 0 20.4364C0 31.224 8.77617 40.0002 19.5638 40.0002C30.3515 40.0002 39.1277 31.224 39.1277 20.4364C39.1277 17.5336 38.4881 14.7315 37.2844 12.1615Z" fill="#FEE074"/>
</g>
<defs>
<clipPath id="clip0_1422_37">
<rect width="40" height="40" fill="white"/>
</clipPath>
</defs>
</svg>
