<svg width="39" height="40" viewBox="0 0 39 40" fill="none" xmlns="http://www.w3.org/2000/svg">
<path d="M34.8467 2.76093H31.6086V2.58029C31.6086 1.16116 30.4603 0 29.0283 0H9.67609C8.25688 0 7.0958 1.16116 7.0958 2.58029V2.76093H3.87043C1.72875 2.76093 0 4.50259 0 6.63136V7.93442C0 12.1402 3.12213 15.6365 7.18604 16.2171C7.72796 21.0938 11.134 25.1062 15.6752 26.5254L14.0239 30.8087H24.6933L23.042 26.5254C27.5961 25.0933 30.9892 21.0938 31.5311 16.2171C35.5821 15.6365 38.7172 12.1402 38.7172 7.93442V6.63136C38.7172 4.50259 36.9755 2.76093 34.8467 2.76093ZM7.0958 13.5853C4.51551 12.9918 2.58029 10.6953 2.58029 7.93442V6.63136C2.58029 5.9218 3.16079 5.34122 3.87043 5.34122H7.0958V13.5853ZM25.2868 13.0692L23.2742 15.0431L23.7386 17.8169C23.9193 18.8877 22.8098 19.7005 21.8421 19.1974L19.3522 17.8814L16.8493 19.1974C15.9074 19.7005 14.785 18.8877 14.9656 17.8169L15.443 15.0431L13.4304 13.0692C12.6434 12.308 13.082 10.9921 14.1399 10.8372L16.9396 10.4373L18.191 7.90859C18.6684 6.94099 20.0488 6.94099 20.5262 7.90859L21.7777 10.4373L24.5643 10.8501C25.6352 11.005 26.0609 12.3209 25.2868 13.0692ZM36.1369 7.93442C36.1369 10.6824 34.2017 12.9918 31.6086 13.5853V5.34122H34.8467C35.5564 5.34122 36.1369 5.9218 36.1369 6.63136V7.93442Z" fill="#FEE074"/>
<path d="M32.0881 37.4196H29.7274V37.3891C29.7274 35.1803 27.9368 33.3896 25.7279 33.3896H12.9839C10.7751 33.3896 8.98449 35.1803 8.98449 37.3891V37.4196H6.62413C5.91102 37.4196 5.33398 37.9967 5.33398 38.7098C5.33398 39.4229 5.91102 39.9999 6.62413 39.9999H32.0881C32.8012 39.9999 33.3783 39.4229 33.3783 38.7098C33.3783 37.9967 32.8012 37.4196 32.0881 37.4196Z" fill="#FEE074"/>
</svg>
