<svg width="319" height="359" viewBox="0 0 319 359" fill="none" xmlns="http://www.w3.org/2000/svg">
<g opacity="0.2">
<path fill-rule="evenodd" clip-rule="evenodd" d="M242.422 228.822C241.685 228.105 239.331 227.389 238.123 226.59C231.592 222.311 231.899 220.181 227.457 218.175C224.14 216.68 221.745 215.779 217.773 215.124C216.053 214.837 207.762 214.243 207.782 212.585C208.826 212.319 218.551 212.442 220.148 212.585C235.052 213.772 242.074 223.723 245.534 224.072C248.728 220.939 251.676 217.54 256.467 215.349C258.862 214.264 270.696 211.356 272.804 214.039C272.026 214.858 264.41 215.554 260.398 217.028C258.33 217.786 252.29 222.393 251.819 223.683C252.679 224.235 254.563 224.829 254.686 226.037L249.527 226.856L249.322 229.477C247.418 230.624 247.172 230.931 244.49 230.624L243.262 233.245C242.525 233.122 241.563 232.569 240.785 232.241C239.536 231.729 238.922 231.566 238.594 230.828C239.863 229.723 241.399 230.665 242.422 228.822ZM278.803 182.834L278.189 182.609C266.191 187.359 274.381 182.588 267.44 188.158C265.106 190.041 261.196 194.075 258.35 195.14C258.002 195.365 258.903 195.488 257.695 195.324C257.511 194.116 257.634 194.976 257.879 194.648L258.412 194.034C259.456 193.625 261.626 190.799 262.773 189.755C264.349 188.301 265.311 187.032 266.458 185.148C267.645 183.182 268.341 181.81 270.798 180.95C272.784 180.254 275.507 180.029 276.981 178.78C276.694 177.633 275.548 176.22 276.182 175.135C277.697 174.398 279.376 176.63 280.093 177.408C281.464 178.903 289.387 178.759 291.209 178.084C293.891 177.08 294.055 178.289 295.816 179.108C296.143 179.824 303.452 185.762 305.377 186.888C306.359 187.482 309.082 187.605 309.205 188.895C305.827 190.471 300.647 186.663 296.758 184.759C295.181 183.981 293.072 181.606 291.394 181.872C288.609 182.322 286.173 182.302 283.164 182.199C283.798 184.288 286.173 186.458 286.357 187.789C284.187 188.751 285.661 186.54 280.42 187.359L278.803 182.834ZM-9.25113 156.216C-9.39444 155.786 -9.25113 156.011 -9.43539 155.622C-14.1032 154.087 -11.3598 152.51 -21.5349 150.954C-22.7632 150.77 -25.3428 150.708 -25.7728 149.869C-24.6263 148.988 -17.993 149.848 -16.2119 149.971C-13.8985 150.135 -10.07 151.363 -9.06686 152.735C-8.98495 152.735 -8.90308 152.735 -8.84167 152.735C-8.78024 152.735 -8.67789 152.715 -8.63693 152.694C-8.57553 152.674 -8.35031 152.53 -8.28891 152.489C-7.36761 150.974 -6.89673 152.449 -6.28256 152.94C-5.27939 152.019 -3.88721 151.077 -3.04782 150.176C-2.18796 149.254 -1.20526 148.272 0.678253 148.005C2.66412 147.719 9.09259 149.48 9.42017 151.261C6.53348 151.425 3.21689 148.19 0.18689 150.708C-1.51236 152.121 -3.7439 154.824 -6.01639 155.929L-5.50458 158.018C-6.87625 157.731 -6.42584 157.342 -7.5314 157.322C-8.37079 157.301 -9.06686 157.608 -9.76294 157.588C-10.0086 156.728 -9.80389 156.605 -9.25113 156.216ZM232.943 122.862V122.473C229.32 119.831 230.384 121.735 226.945 121.326C227.006 120.261 228.03 119.524 228.767 119.012C228.665 117.087 227.702 116.678 226.597 115.9C223.935 114.016 217.036 110.535 216.77 110.208C217.425 109.757 217.814 110.126 218.633 110.351C219.411 110.822 223.587 112.03 224.836 112.521C233.005 115.695 229.361 116.555 233.844 115.961C235.216 115.777 236.424 115.531 237.918 115.511C239.904 115.49 244.265 116.002 244.859 117.395C244.265 117.947 240.498 117.477 239.065 117.62C237.181 117.804 234.766 118.644 233.373 118.664C232.882 119.033 232.677 118.93 231.92 119.012L231.961 120.077L233.353 122.165L233.721 122.513L232.943 122.862ZM16.3605 98.1477C16.6266 97.8611 15.8896 97.7587 16.9542 97.9225C17.2204 99.1306 16.9747 98.3115 16.8109 98.6187C15.7463 103.574 10.4848 100.83 7.63904 100.83C6.4516 99.8472 4.81375 100.441 3.89249 101.444L4.46573 102.775C4.67047 103.164 4.67047 102.284 4.62952 103.246C4.60904 103.901 4.62952 103.43 4.48621 103.758C3.23737 103.758 3.99487 103.676 3.70825 103.451C1.72238 102.509 1.90662 102.611 -0.55014 102.693L0.0640564 101.137C-1.04147 100.523 -2.53601 99.581 -3.6825 99.3763C-5.81168 98.9872 -6.40536 99.151 -8.2684 98.2911C-10.2133 97.3901 -13.8985 94.974 -13.9394 92.7627L-12.4858 93.4793C-11.9331 94.6464 -8.28891 96.4892 -6.18018 96.8987C-4.76755 97.1854 -3.23209 97.1444 -1.88086 97.5335C-0.509186 97.943 0.616821 98.8439 2.04993 98.7415C3.27829 98.6596 3.33972 97.5335 5.93976 97.9839C7.35242 98.2296 8.37607 98.8029 9.46112 99.3763C14.2927 101.874 15.1526 99.3558 16.3605 98.1477ZM104.537 116.125C104.803 115.593 104.742 116.064 104.599 115.245C102.183 109.368 93.9528 107.607 93.6458 106.399L96.5529 106.747L100.136 107.853C100.811 108.59 102.122 109.041 102.961 109.634C104.988 111.109 107.813 114.794 108.714 117.128C111.846 117.006 115.797 114.037 120.854 113.832C123.188 113.73 132.77 114.897 133.691 116.207C132.032 117.006 128.777 116.146 126.914 115.982C120.281 115.409 118.991 117.087 115.449 118.869C113.443 119.893 111.641 119.811 109.963 120.466C110.556 122.309 111.969 121.244 111.826 122.78C110.045 122.534 108.591 124.131 108.611 122.002L107.506 121.224C107.465 121.203 107.383 121.162 107.342 121.142C105.315 120.425 105.93 119.872 105.786 118.234C104.824 117.804 103.084 117.415 102.92 116.432L104.537 116.125ZM75.9571 188.977C75.7319 189.386 75.7115 189.345 75.6705 189.796C76.1005 190.738 76.6737 190.697 76.5509 191.679L71.5555 191.761C71.3303 190.697 71.7807 190.164 72.0059 189.345C70.6342 187.851 67.9932 187.666 65.475 187.052C63.9395 186.663 57.941 186.622 57.6749 186.438C58.2276 185.045 64.5333 184.964 66.253 185.189C67.6656 185.373 69.1192 185.66 70.5318 185.864C72.8453 186.192 72.7224 184.902 74.565 185.844C76.5509 186.868 79.6628 184.513 81.8738 184.144C83.9621 183.796 89.1417 184.063 89.7969 185.783C89.715 185.844 83.2865 186.417 82.2628 186.704C81.1777 186.991 79.9698 187.4 78.7619 187.646C75.8548 188.199 77.4107 188.444 75.9571 188.977ZM27.2316 220.017C27.0269 219.813 26.8017 220.386 26.9655 219.239C27.5182 219.076 27.0269 219.076 27.5797 219.137C28.6647 219.219 27.6615 219.096 28.1119 219.403C31.6947 220.98 34.5609 222.802 39.6791 222.659C45.3706 222.495 42.9138 221.43 49.6494 222.7C50.9802 222.945 50.8778 222.393 52.6385 222.679C55.1567 218.994 59.1489 219.976 63.7962 221.103C72.313 223.15 71.6374 217.151 73.3162 216.414C73.3571 216.475 73.398 216.537 73.4185 216.598C73.439 216.639 73.4799 216.721 73.5004 216.782L73.6232 218.052C73.5618 218.564 73.4185 218.973 73.2138 219.526C72.1083 222.413 69.7948 223.089 66.6625 223.478C63.9805 223.805 62.5474 223.457 60.0906 223.396C58.1048 223.355 56.1803 224.665 55.8323 226.14C56.3851 227.225 57.0402 226.631 57.552 228.76C56.1599 229.088 54.911 228.494 53.5598 228.351C51.922 228.167 51.1849 228.986 49.7723 229.17L50.2022 226.856C45.1249 224.297 41.9721 226.57 36.8948 225.382C33.3735 224.563 27.9482 222.27 27.2316 220.017ZM257.265 149.684C257.675 150.032 257.368 149.562 257.634 150.135C257.798 150.483 257.716 150.544 257.757 150.913C256.835 150.872 256.897 151.056 256.385 150.401C255.198 150.401 254.993 149.889 253.846 149.93C252.802 149.971 252.331 150.626 251.738 149.91L252.413 148.742C250.53 146.47 245.8 147.227 242.77 146.101C240.355 145.2 236.424 143.091 236.096 140.491L237.57 141.126C238.348 142.436 242.852 144.136 245.186 144.402C247.029 144.606 248.605 144.34 250.427 144.77C251.922 145.118 253.375 146.06 254.829 145.487C257.634 144.402 256.262 143.194 263.121 145.753C269.324 148.067 268.996 143.828 270.655 143.316C271.187 144.402 269.999 146.224 269.201 146.838C268.116 147.698 266.785 147.842 265.045 147.801C260.5 147.719 260.316 145.835 256.733 148.231C256.774 149.521 256.938 148.743 257.265 149.684ZM220.005 181.298C222.789 180.07 228.828 178.104 231.162 179.927C230.917 180.111 224.877 181.38 223.813 181.749C220.803 182.773 219.411 182.936 217.671 184.697L218.838 185.762C218.367 186.213 218.244 186.151 216.34 186.458C215.501 186.602 214.764 186.868 214.047 186.765C213.822 185.926 214.211 185.598 214.415 184.882C212.778 184.493 213.371 184.349 211.242 184.329C209.973 184.329 208.704 184.226 207.414 184.206C204.527 184.145 201.456 185.332 200.637 184.595C203.34 183.919 204.732 183.059 208.089 182.834C209.625 182.732 211.14 182.773 212.675 182.711C214.497 182.629 215.112 181.892 216.319 182.056C218.51 182.322 218.039 182.158 220.005 181.298ZM92.9292 170.037C97.3513 167.518 95.8978 160.557 100.791 162.993C101.753 163.464 102.203 164.201 103.207 164.652C104.66 165.307 103.903 164.058 106.196 164.529C108.591 165.02 109.205 162.4 111.887 162.461C113.464 163.464 114.282 164.16 115.593 165.246C116.371 165.88 119.196 167.191 119.544 167.887C115.183 168.051 112.256 164.734 111.212 164.836C109.656 165.532 106.441 168.276 105.029 167.989C103.493 167.662 100.381 165.082 98.8868 164.959C96.9009 166.925 95.6931 169.423 93.2773 170.815C92.9087 170.426 92.9292 171.47 92.9292 170.037ZM150.786 138.198L149.086 139.262C149.885 140.122 150.704 140.245 150.888 141.126C148.39 142.129 147.019 140.184 146.896 143.357C145.381 143.439 145.811 144.197 143.497 143.644L142.412 145.323C141.552 145.098 139.485 143.931 139.321 143.235C140.59 142.743 141.081 143.357 142.126 142.252C141.716 141.76 140.181 141.003 139.485 140.429C135.083 136.826 135.472 135.29 132.483 133.529C130.599 132.424 128.532 131.379 126.075 130.704C123.987 130.13 120.506 129.741 119.278 128.328C120.117 127.796 125.706 128.758 127.139 128.984C138.031 130.806 141.696 138.034 144.623 139.099C146.384 138.198 148.718 135.372 152.772 134C154.86 133.284 163.356 132.219 164.4 134.369C163.377 134.942 153.324 134.348 150.786 138.198ZM210.587 149.93C213.146 150.544 216.627 151.343 218.162 153.227L218.223 154.046L217.282 153.861C208.785 152.817 210.587 153.268 202.5 153.964C199.716 154.209 200.043 153.431 198.283 154.967C197.71 155.213 196.747 155.52 196.276 155.97C196.42 157.096 196.215 156.073 196.706 156.523L197.259 157.977L197.73 158.653L197.669 159.451L190.646 158.816C190.442 158.325 190.524 158.427 190.155 158.12C190.135 156.359 191.158 156.216 191.486 154.844C190.892 154.23 189.889 153.022 188.968 152.715C187.719 152.285 186.634 151.834 185.61 151.507C185.323 151.22 185.631 151.404 185.16 151.118C185.098 151.077 184.914 150.995 184.832 150.954C184.382 150.77 184.402 150.831 183.993 150.729C182.109 150.217 180.287 149.111 177.933 148.681C176.09 148.353 176.029 148.783 174.227 148.149C172.569 147.555 171.607 148.661 170.972 147.104C175.435 146.019 180.942 146.47 184.996 147.883C186.9 148.538 189.05 149.275 191.179 149.828C193.82 150.524 193.799 147.944 196.665 151.159C198.713 151.343 201.477 150.483 203.381 150.094C206.144 149.541 207.782 149.664 210.587 149.93ZM144.746 193.133C144.992 193.666 147.121 196.266 148.882 199.89C149.475 201.098 150.11 202.634 150.642 203.494C151.379 204.681 152.772 205.255 153.079 206.34C151.932 206.176 144.275 200.033 143.354 199.133C141.962 197.781 136.004 191.393 134.53 191.004C132.503 193.932 127.569 193.707 126.136 191.065C121.079 191.802 121.919 195.631 118.316 198.027C115.675 199.767 112.624 202.531 108.919 203.166C109.348 201.364 114.119 199.378 116.309 194.669C118.991 188.915 118.561 189.591 125.297 188.158C127.139 182.916 131.93 186.683 135.062 187.932C137.028 188.711 138.707 188.915 140.467 189.919C142.126 190.86 143.518 192.621 144.746 193.133ZM88.2614 125.523C88.4866 126.916 84.781 128.431 83.5936 128.779C76.6532 130.745 69.4877 128.513 63.2025 126.342C61.8718 127.796 60.9096 129.68 57.8181 129.577C55.3 129.475 53.6826 127.509 53.4165 125.114C46.5171 125.564 43.3848 125.769 36.6696 124.377C34.3562 123.885 24.7953 120.302 24.2221 118.93C25.3276 117.886 32.1451 121.551 39.8839 121.244C43.6304 121.08 49.8132 120.486 53.5188 120.875C55.7299 121.101 55.4228 121.019 57.5929 120.875C60.2544 120.691 69.631 124.131 72.3539 125.032C79.3761 127.366 81.1982 127.182 88.2614 125.523Z" fill="#FEE074"/>
<path fill-rule="evenodd" clip-rule="evenodd" d="M315.078 278.904C315.385 280.706 310.533 282.692 308.997 283.143C299.948 285.702 290.613 282.795 282.424 279.948C280.683 281.853 279.435 284.31 275.401 284.166C272.126 284.044 270.017 281.464 269.648 278.351C260.661 278.945 256.566 279.211 247.824 277.389C244.815 276.754 232.326 272.086 231.589 270.305C233.022 268.953 241.908 273.744 252.001 273.314C256.894 273.11 264.94 272.332 269.792 272.823C272.658 273.11 272.289 273.028 275.094 272.843C278.575 272.618 290.797 277.102 294.318 278.269C303.49 281.279 305.845 281.054 315.078 278.904Z" fill="#FEE074"/>
<path fill-rule="evenodd" clip-rule="evenodd" d="M181.45 249.255C184.767 250.033 189.271 251.078 191.236 253.514L191.318 254.579L190.11 254.354C179.137 253.002 181.471 253.596 171.009 254.476C167.406 254.784 167.836 253.78 165.563 255.787C164.806 256.094 163.578 256.503 162.984 257.077C163.168 258.531 162.902 257.2 163.537 257.793L164.253 259.657L164.867 260.537L164.806 261.561L155.716 260.742C155.45 260.107 155.573 260.23 155.061 259.841C155.02 257.568 156.351 257.384 156.801 255.603C156.023 254.804 154.733 253.248 153.525 252.838C151.908 252.286 150.495 251.692 149.185 251.282C148.796 250.914 149.206 251.159 148.612 250.77C148.53 250.729 148.284 250.607 148.202 250.566C147.629 250.32 147.65 250.402 147.117 250.279C144.681 249.603 142.306 248.19 139.276 247.638C136.901 247.208 136.819 247.781 134.486 246.941C132.336 246.184 131.108 247.597 130.268 245.59C136.041 244.177 143.166 244.792 148.387 246.593C150.843 247.453 153.628 248.375 156.371 249.112C159.79 250.013 159.749 246.675 163.455 250.832C166.116 251.078 169.658 249.951 172.135 249.46C175.718 248.764 177.827 248.907 181.45 249.255Z" fill="#FEE074"/>
<path fill-rule="evenodd" clip-rule="evenodd" d="M303.123 333.717C307.75 333.41 314.035 332.98 317.577 335.355L318.109 336.706L316.431 336.89C301.588 339.511 304.863 339.347 291.597 344.671C287.031 346.514 287.195 345.04 285.025 348.541C284.165 349.237 282.712 350.261 282.179 351.264C282.998 353.086 282.138 351.448 283.162 351.96L284.841 354.11L286.008 355.011L286.335 356.383L274.174 358.942C273.581 358.226 273.786 358.328 272.967 358.041C272.004 355.093 273.663 354.315 273.54 351.837C272.209 351.121 269.896 349.606 268.176 349.544C265.842 349.483 263.774 349.278 261.911 349.237C261.277 348.909 261.891 349.053 260.949 348.807C260.826 348.766 260.458 348.725 260.314 348.705C259.454 348.623 259.536 348.705 258.799 348.766C255.36 348.869 251.716 347.947 247.539 348.439C244.264 348.828 244.386 349.585 241.029 349.462C237.937 349.339 236.893 351.674 235.01 349.401C241.971 345.265 251.491 343.197 259.025 343.483C262.566 343.627 266.579 343.729 270.428 343.565C275.26 343.381 273.867 339.04 280.337 342.972C283.879 342.234 288.076 339.347 291.106 337.709C295.466 335.375 298.292 334.72 303.123 333.717Z" fill="#FEE074"/>
<path fill-rule="evenodd" clip-rule="evenodd" d="M1.84421 59.2028C4.62853 57.9742 10.668 56.0086 13.002 57.8309C12.7563 58.0152 6.71679 59.2847 5.6522 59.6532C2.64268 60.677 1.25052 60.8408 -0.489678 62.6017L0.677268 63.6664C0.206391 64.1169 0.0835638 64.0554 -1.82042 64.3626C-2.65981 64.5059 -3.39685 64.7721 -4.1134 64.6697C-4.3386 63.8302 -3.94961 63.5026 -3.74488 62.786C-5.38271 62.3969 -4.789 62.2536 -6.91818 62.2331C-8.1875 62.2331 -9.45683 62.1307 -10.7466 62.1103C-13.6333 62.0488 -16.7042 63.2364 -17.5232 62.4993C-14.8207 61.8236 -13.4286 60.9636 -10.071 60.7384C-8.53554 60.636 -7.02054 60.677 -5.48507 60.6156C-3.66298 60.5337 -3.04881 59.7965 -1.84091 59.9603C0.370164 60.2265 -0.121185 60.0627 1.84421 59.2028Z" fill="#FEE074"/>
<path fill-rule="evenodd" clip-rule="evenodd" d="M55.3412 85.0636C55.7507 85.4117 55.4436 84.9407 55.7097 85.514C55.8735 85.8621 55.7916 85.9236 55.8326 86.2921C54.9113 86.2512 54.9727 86.4354 54.4609 85.7802C53.2734 85.7802 53.0687 85.2683 51.9223 85.3093C50.8781 85.3502 50.4072 86.0054 49.8135 85.2888L50.4891 84.1217C48.6056 81.8489 43.8764 82.6065 40.8464 81.4804C38.4306 80.5795 34.4998 78.4705 34.1722 75.8701L35.6463 76.5049C36.4243 77.8153 40.9283 79.5147 43.2622 79.7809C45.1048 79.9857 46.6812 79.7195 48.5033 80.1495C49.9978 80.4976 51.4514 81.4394 52.9049 80.8661C55.7097 79.7809 54.338 78.5729 61.1965 81.1323C67.3998 83.446 67.0722 79.2076 68.7305 78.6957C69.2628 79.7809 68.0754 81.6032 67.2769 82.2175C66.1919 83.0775 64.8611 83.2208 63.1209 83.1798C58.5759 83.0979 58.3917 81.2142 54.8089 83.6098C54.8499 84.8998 55.0137 84.1012 55.3412 85.0636Z" fill="#FEE074"/>
<path fill-rule="evenodd" clip-rule="evenodd" d="M70.2852 278.33L69.671 278.105C57.6739 282.855 65.8631 278.085 58.9228 283.654C56.5888 285.538 52.6785 289.571 49.8328 290.636C49.4847 290.861 50.3856 290.984 49.1777 290.82C48.9934 289.612 49.1162 290.472 49.3619 290.145L49.8942 289.53C50.9383 289.121 53.1084 286.295 54.2549 285.251C55.8313 283.797 56.7936 282.528 57.94 280.644C59.1275 278.678 59.8236 277.307 62.2803 276.447C64.2662 275.75 66.9891 275.525 68.4631 274.276C68.1765 273.13 67.03 271.717 67.6647 270.632C69.1797 269.894 70.8585 272.126 71.575 272.904C72.9467 274.399 80.8697 274.256 82.6918 273.58C85.3738 272.577 85.5375 273.785 87.2982 274.604C87.6258 275.32 94.9346 281.258 96.8591 282.384C97.8418 282.978 100.565 283.101 100.688 284.391C97.3095 285.968 92.1298 282.159 88.24 280.255C86.6635 279.477 84.5548 277.102 82.8761 277.368C80.0917 277.818 77.6555 277.798 74.646 277.696C75.2806 279.784 77.6555 281.954 77.8397 283.285C75.6696 284.248 77.1437 282.036 71.9026 282.855L70.2852 278.33Z" fill="#FEE074"/>
<path fill-rule="evenodd" clip-rule="evenodd" d="M178.608 317.726C177.482 316.641 173.92 315.535 172.077 314.327C162.148 307.816 162.619 304.601 155.863 301.55C150.826 299.277 147.182 297.926 141.163 296.923C138.543 296.493 125.952 295.592 125.972 293.053C127.549 292.643 142.31 292.848 144.766 293.053C167.409 294.855 178.076 309.966 183.337 310.477C188.189 305.727 192.652 300.567 199.961 297.209C203.585 295.551 221.56 291.149 224.795 295.223C223.607 296.452 212.04 297.516 205.939 299.748C202.807 300.895 193.615 307.918 192.898 309.863C194.208 310.723 197.075 311.604 197.259 313.446L189.418 314.695L189.09 318.668C186.183 320.408 185.835 320.879 181.74 320.428L179.877 324.401C178.751 324.216 177.298 323.377 176.11 322.886C174.206 322.087 173.265 321.862 172.773 320.756C174.718 319.077 177.052 320.531 178.608 317.726Z" fill="#FEE074"/>
</g>
</svg>
