<svg width="372" height="374" viewBox="0 0 372 374" fill="none" xmlns="http://www.w3.org/2000/svg">
<g style="mix-blend-mode:soft-light">
<path d="M371.074 365.979C371.074 365.775 371.074 365.673 371.176 365.47L359.713 358.849L360.626 358.238L371.683 364.655C371.886 364.451 372.291 364.247 372.596 364.146V368.016C371.683 367.711 371.074 366.896 371.074 365.979Z" fill="#D5D5D4"/>
<path d="M372.494 329.31L373.609 328.597V332.569V333.791H373.508L370.465 332.06H372.494V329.31Z" fill="#D7D7D6"/>
<path d="M345.004 369.035L343.99 369.748V349.173L344.497 348.867L347.033 350.293H345.004V369.035Z" fill="#D7D7D6"/>
<path d="M372.492 332.059H370.463L369.449 331.448L370.463 330.837L372.492 332.059Z" fill="#D7D7D6"/>
<path d="M359.61 358.849L360.523 358.136L359.61 358.849Z" fill="#D7D7D6"/>
<path d="M345.003 350.293H347.032L360.523 358.136L359.61 358.849L345.003 350.293Z" fill="#D7D7D6"/>
<path d="M343.989 348.562L344.496 348.867L343.989 349.173V348.562Z" fill="#D8D8D7"/>
<path d="M370.465 330.837L369.45 331.448L370.465 330.837Z" fill="#D8D8D7"/>
<path d="M370.465 330.837L369.45 331.448L353.423 322.077L354.336 321.466L370.465 330.837Z" fill="#D8D8D7"/>
<path d="M316.497 327.274V332.061H318.525L315.482 333.793V327.987L316.497 327.274Z" fill="#DADAD9"/>
<path d="M343.989 308.124L345.004 307.411V316.069V317.291L344.497 316.985L343.989 317.291V316.069V308.124Z" fill="#DADAD9"/>
<path d="M285.963 348.56H286.978V347.847L287.992 347.134V350.292L285.456 348.866L285.963 348.56Z" fill="#DADAD9"/>
<path d="M286.979 348.562H285.964L286.37 348.256L286.979 348.562Z" fill="#DADAD9"/>
<path d="M285.963 348.562L286.369 348.256L285.963 348.562Z" fill="#DADAD9"/>
<path d="M343.988 316.069V317.291L318.526 332.061H316.498L343.988 316.069Z" fill="#DADAD9"/>
<path d="M354.334 321.466L353.421 322.077L354.334 321.466Z" fill="#DADAD9"/>
<path d="M354.334 321.467L353.421 322.079L345.001 317.291V316.069L354.334 321.467Z" fill="#DADAD9"/>
<path d="M372.492 298.957V300.077L370.463 298.957H372.492Z" fill="#DADAD9"/>
<path d="M363.261 294.78L364.174 294.067L372.492 298.956H370.463L363.261 294.78Z" fill="#DADAD9"/>
<path d="M286.978 327.273L287.992 326.662V347.135L286.978 347.848V327.273Z" fill="#DBDBDA"/>
<path d="M343.989 308.123V287.65L345.004 286.937V307.41L343.989 308.123Z" fill="#DBDBDA"/>
<path d="M316.496 327.273L315.482 327.986V307.513L316.496 306.8V327.273Z" fill="#DBDBDA"/>
<path d="M258.47 347.134L259.484 346.421V366.284L258.47 366.895V365.673V347.134Z" fill="#DBDBDA"/>
<path d="M285.456 348.867L284.948 348.562H285.963L285.456 348.867Z" fill="#DBDBDA"/>
<path d="M258.473 365.674V366.896L232.909 381.666H230.88L258.473 365.674Z" fill="#DBDBDA"/>
<path d="M286.369 348.255L285.963 348.56H284.949L269.428 339.597L270.341 338.884L286.369 348.255Z" fill="#DBDBDA"/>
<path d="M363.259 294.78L364.172 294.067L363.259 294.78Z" fill="#DBDBDA"/>
<path d="M363.259 294.78L364.172 294.067L363.259 294.78Z" fill="#DBDBDA"/>
<path d="M347.231 285.409L348.144 284.798L364.172 294.067L363.259 294.78L347.231 285.409Z" fill="#DBDBDA"/>
<path d="M345.004 266.462V282.963V284.185V286.528V286.936L343.989 287.649V284.185H341.961L343.989 282.963V267.175L345.004 266.462Z" fill="#DDDDDC"/>
<path d="M286.978 317.901V314.336L286.775 314.132C286.978 314.03 287.181 314.03 287.485 314.03C288.601 314.03 289.514 314.947 289.514 316.067C289.514 316.984 288.905 317.799 287.992 318.003V326.661L286.978 327.374V317.901Z" fill="#DDDDDC"/>
<path d="M315.482 286.936L316.496 286.325V300.687V306.799L315.482 307.512V300.076L313.453 298.956H315.482V286.936Z" fill="#DDDDDC"/>
<path d="M258.369 326.662L259.484 325.949V332.57V333.792V336.236V346.422L258.47 347.135V333.792H256.441L257.861 332.875L256.34 332.06H258.369V326.662Z" fill="#DDDDDC"/>
<path d="M230.881 366.285L229.866 366.998V349.173L230.881 348.562V349.784V366.285Z" fill="#DDDDDC"/>
<path d="M201.257 366.387L202.271 365.674V386.249L201.257 386.962V366.387Z" fill="#DDDDDC"/>
<path d="M230.88 349.784V348.562L256.444 333.792H258.473L230.88 349.784Z" fill="#DDDDDC"/>
<path d="M270.342 338.884L269.429 339.597L270.342 338.884Z" fill="#DDDDDC"/>
<path d="M286.979 317.902C286.167 317.698 285.457 316.883 285.457 315.966C285.457 315.864 285.457 315.864 285.457 315.762L279.167 312.096L280.08 311.484L285.761 314.744C285.964 314.438 286.37 314.133 286.674 314.031L286.877 314.235V317.902H286.979Z" fill="#DDDDDC"/>
<path d="M270.342 338.885L269.429 339.598L259.488 333.792V332.57L270.342 338.885Z" fill="#DDDDDC"/>
<path d="M258.371 332.061H256.342L253.299 330.227L254.212 329.616L258.371 332.061Z" fill="#DDDDDC"/>
<path d="M316.498 300.077V300.688V286.326V286.224V298.956L341.959 284.187H343.988L316.498 300.077Z" fill="#DDDDDC"/>
<path d="M315.48 298.956H313.452L305.133 294.169L306.046 293.456L315.48 298.956Z" fill="#DDDDDC"/>
<path d="M347.234 285.409L348.146 284.798L347.234 285.409Z" fill="#DDDDDC"/>
<path d="M347.234 285.409L348.146 284.798L347.234 285.409Z" fill="#DDDDDC"/>
<path d="M345.004 284.186V282.963L347.033 284.186H345.004Z" fill="#DDDDDC"/>
<path d="M372.492 265.851V267.073L370.463 265.851H372.492Z" fill="#DDDDDC"/>
<path d="M348.146 284.798L347.234 285.409L345.002 284.187H347.031L348.146 284.798Z" fill="#DDDDDC"/>
<path d="M357.073 258.009L357.986 257.398L372.492 265.852H370.463L357.073 258.009Z" fill="#DDDDDC"/>
<path d="M357.073 258.009L357.986 257.398L357.073 258.009Z" fill="#DDDDDC"/>
<path d="M173.768 382.277V383.398L173.057 382.99L172.753 382.888V365.776L173.768 365.063V382.277Z" fill="#DEDEDD"/>
<path d="M316.496 286.326L315.482 286.937V267.074V266.463L315.989 266.158L316.192 266.26L316.496 266.463V284.187V286.326Z" fill="#DEDEDD"/>
<path d="M345.004 249.86V251.082V253.425V266.463L343.989 267.176V246.6L345.004 245.887V249.86Z" fill="#DEDEDD"/>
<path d="M258.369 306.189L259.484 305.476V325.949L258.369 326.662V306.189Z" fill="#DEDEDD"/>
<path d="M201.257 366.387V366.285V365.165L202.069 365.572L202.271 365.674L201.257 366.387Z" fill="#DEDEDD"/>
<path d="M185.333 357.014L186.246 356.403L201.26 365.163V366.284L185.333 357.014Z" fill="#DEDEDD"/>
<path d="M279.267 312.198L280.18 311.586L279.267 312.198Z" fill="#DEDEDD"/>
<path d="M263.137 302.826L264.05 302.215L280.18 311.586L279.267 312.197L263.137 302.826Z" fill="#DEDEDD"/>
<path d="M254.211 329.616L253.298 330.227L254.211 329.616Z" fill="#DEDEDD"/>
<path d="M254.211 329.615L253.298 330.226L237.169 320.957L238.082 320.244L254.211 329.615Z" fill="#DEDEDD"/>
<path d="M306.047 293.456L305.134 294.169L306.047 293.456Z" fill="#DEDEDD"/>
<path d="M306.047 293.456L305.134 294.169L289.106 284.798L290.019 284.187L306.047 293.456Z" fill="#DEDEDD"/>
<path d="M315.48 266.462V267.073L315.075 266.767L315.48 266.462Z" fill="#DEDEDD"/>
<path d="M357.073 258.009L357.986 257.398L357.073 258.009Z" fill="#DEDEDD"/>
<path d="M371.072 233.666C371.072 233.462 371.072 233.36 371.173 233.156L366.913 230.712L367.826 230.101L371.579 232.341C371.782 232.138 372.188 231.934 372.492 231.832V235.703C371.681 235.295 371.072 234.582 371.072 233.666Z" fill="#DEDEDD"/>
<path d="M345.004 251.083V249.86L347.033 251.083H345.004Z" fill="#DEDEDD"/>
<path d="M357.986 257.398L357.073 258.009L345.002 251.083H347.031L357.986 257.398Z" fill="#DEDEDD"/>
<path d="M202.275 330.94V331.449H203.188H205.217L203.695 332.366C203.695 332.569 203.797 332.671 203.797 332.875C203.797 333.996 202.884 334.912 201.768 334.912C200.652 334.912 199.739 333.996 199.739 332.875C199.739 331.958 200.348 331.143 201.261 330.94V325.338L202.275 324.625V330.94Z" fill="#DFDFDF"/>
<path d="M143.741 365.47L144.146 365.165H144.248V365.063L145.262 364.452V365.165H147.291L145.262 366.285V366.896L144.755 366.591L143.741 367.202V365.98V365.47Z" fill="#DFDFDF"/>
<path d="M172.754 345.2L173.768 344.588V349.172L175.797 350.394H173.768V365.062L172.754 365.775V365.164V350.394V349.172V345.2Z" fill="#DFDFDF"/>
<path d="M259.485 305.475L258.369 306.188V300.077V298.956V296.512V285.714L259.383 285.001V299.465L261.514 300.688H259.485V305.475Z" fill="#DFDFDF"/>
<path d="M287.992 282.963V284.186L287.181 283.677L286.978 283.575V265.851L287.992 265.138V282.963Z" fill="#DFDFDF"/>
<path d="M229.866 305.578L230.881 304.865V316.069V317.292L230.374 316.986L229.866 317.292V316.069V305.578Z" fill="#DFDFDF"/>
<path d="M315.481 266.462V265.851L315.988 266.157L315.481 266.462Z" fill="#DFDFDF"/>
<path d="M345.004 225.415V245.888L343.989 246.601V226.128L345.004 225.415Z" fill="#DFDFDF"/>
<path d="M143.74 365.978V367.2L128.828 375.858L138.972 368.728L143.74 365.978Z" fill="#DFDFDF"/>
<path d="M143.74 365.47V365.98L143.233 365.776L143.74 365.47Z" fill="#DFDFDF"/>
<path d="M172.756 349.173V350.395L147.294 365.165H145.265L172.756 349.173Z" fill="#DFDFDF"/>
<path d="M185.333 357.014L186.246 356.403L185.333 357.014Z" fill="#DFDFDF"/>
<path d="M173.769 350.395H175.798L186.246 356.405L185.333 357.016L173.769 350.395Z" fill="#DFDFDF"/>
<path d="M229.865 316.069V317.291L205.215 331.551H203.186L229.865 316.069Z" fill="#DFDFDF"/>
<path d="M202.275 331.55V331.041C202.579 331.142 202.985 331.346 203.188 331.55H202.275Z" fill="#DFDFDF"/>
<path d="M263.136 302.826L264.049 302.215L263.136 302.826Z" fill="#DFDFDF"/>
<path d="M259.484 300.688H261.513L264.049 302.216L263.136 302.827L259.484 300.688Z" fill="#DFDFDF"/>
<path d="M238.082 320.244L237.169 320.957L238.082 320.244Z" fill="#DFDFDF"/>
<path d="M258.371 298.957V300.077L256.342 298.957H258.371Z" fill="#DFDFDF"/>
<path d="M238.082 320.245L237.169 320.958L230.88 317.291V316.069L238.082 320.245Z" fill="#DFDFDF"/>
<path d="M247.111 293.556L248.024 292.945L258.371 298.954H256.342L247.111 293.556Z" fill="#DFDFDF"/>
<path d="M248.023 292.945L247.11 293.556L248.023 292.945Z" fill="#DFDFDF"/>
<path d="M290.021 284.187L289.109 284.798L290.021 284.187Z" fill="#DFDFDF"/>
<path d="M315.075 266.767L315.48 266.462L315.075 266.767Z" fill="#DFDFDF"/>
<path d="M315.075 266.769L298.945 257.5L299.858 256.787L315.48 265.853V266.464L315.075 266.769Z" fill="#DFDFDF"/>
<path d="M290.021 284.186L289.109 284.797L287.993 284.186V282.963L290.021 284.186Z" fill="#DFDFDF"/>
<path d="M366.911 230.71L367.824 229.997L366.911 230.71Z" fill="#DFDFDF"/>
<path d="M350.782 221.339L351.796 220.728L367.824 229.997L366.911 230.71L350.782 221.339Z" fill="#DFDFDF"/>
<path d="M343.99 205.551L345.004 204.838V216.858L347.033 217.978H345.004V225.414L343.99 226.127V217.367L341.961 216.247H343.99V205.551Z" fill="#E1E1E0"/>
<path d="M287.992 251.591V252.1V265.138L286.977 265.851V252.202C286.166 251.998 285.456 251.183 285.456 250.267C285.456 249.146 286.369 248.229 287.485 248.229C288.6 248.229 289.513 249.146 289.513 250.267C289.513 250.47 289.513 250.572 289.412 250.776L290.934 251.693H288.905H287.992V251.591Z" fill="#E1E1E0"/>
<path d="M145.26 343.875V364.451L144.245 365.062V344.588L145.26 343.875Z" fill="#E1E1E0"/>
<path d="M258.372 285.715V267.075V265.853V265.14L259.387 264.427V285.002L258.372 285.715Z" fill="#E1E1E0"/>
<path d="M143.741 365.165H144.146L143.741 365.47V365.165Z" fill="#E1E1E0"/>
<path d="M116.655 381.666H118.684L115.64 383.398V365.165V364.452L116.655 363.739V381.666Z" fill="#E1E1E0"/>
<path d="M172.753 324.727L173.768 324.014V344.589L172.753 345.2V324.727Z" fill="#E1E1E0"/>
<path d="M202.271 324.726L201.257 325.439V304.863L202.271 304.15V324.726Z" fill="#E1E1E0"/>
<path d="M229.866 298.956V285.002L230.881 284.289V286.529V304.864L229.866 305.577V298.956Z" fill="#E1E1E0"/>
<path d="M143.233 365.776L143.74 365.47L143.233 365.776Z" fill="#E1E1E0"/>
<path d="M143.74 365.47L143.233 365.776L142.219 365.165H143.74V365.47Z" fill="#E1E1E0"/>
<path d="M231.894 283.576L232.908 284.187H231.082L231.894 283.576Z" fill="#E1E1E0"/>
<path d="M257.357 265.851H258.371V267.073L256.951 266.157L257.357 265.851Z" fill="#E1E1E0"/>
<path d="M248.023 292.945L247.11 293.556L248.023 292.945Z" fill="#E1E1E0"/>
<path d="M232.909 284.187L248.023 292.946L247.11 293.558L230.981 284.187H231.083H232.909Z" fill="#E1E1E0"/>
<path d="M257.864 265.545L258.371 265.851H257.357L257.864 265.545Z" fill="#E1E1E0"/>
<path d="M298.946 257.5L299.859 256.787L298.946 257.5Z" fill="#E1E1E0"/>
<path d="M287.991 251.592H288.904C288.701 251.796 288.296 251.999 287.991 252.101V251.592Z" fill="#E1E1E0"/>
<path d="M288.802 251.592H290.831L299.859 256.787L298.946 257.5L288.802 251.592Z" fill="#E1E1E0"/>
<path d="M350.784 221.339L351.799 220.728L350.784 221.339Z" fill="#E1E1E0"/>
<path d="M345.002 217.977H347.031L351.799 220.727L350.784 221.338L345.002 217.977Z" fill="#E1E1E0"/>
<path d="M343.988 216.247H341.959L334.757 212.07L335.67 211.357L343.988 216.247Z" fill="#E1E1E0"/>
<path d="M143.741 364.859L144.248 365.164H144.147H143.741V364.859Z" fill="#E1E1E0"/>
<path d="M142.219 365.164L127.205 356.404L128.118 355.792L143.74 364.858V365.164H142.219Z" fill="#E1E1E0"/>
<path d="M258.372 265.139V263.407V244.665L259.387 243.952V264.426L258.372 265.139Z" fill="#E2E2E1"/>
<path d="M144.753 332.366H145.26V333.181V343.876L144.245 344.589V333.792H143.738V332.876V332.366H144.753Z" fill="#E2E2E1"/>
<path d="M115.642 343.978L116.656 343.265V347.543V348.052H117.569H118.076V348.969V349.987V350.904H117.569H116.656V351.413V363.738L115.642 364.451V351.413V347.543V343.978Z" fill="#E2E2E1"/>
<path d="M172.754 317.291H172.247V316.374V315.457H172.754V304.253L173.768 303.54V316.068L174.275 316.374L173.768 316.679V324.013L172.754 324.726V317.291Z" fill="#E2E2E1"/>
<path d="M230.881 263.814V282.963V284.186V284.288L229.866 285.001V284.186V282.963V264.527L230.881 263.814Z" fill="#E2E2E1"/>
<path d="M202.271 284.187V298.956V300.077V304.151L201.257 304.864V284.39L202.271 283.677V284.187Z" fill="#E2E2E1"/>
<path d="M87.1364 384.315V366.286V365.165V363.841L88.1508 363.128V365.165H90.1797L88.1508 366.286V383.602L87.1364 384.315Z" fill="#E2E2E1"/>
<path d="M343.989 205.552V185.078L345.004 184.365V204.839L343.989 205.552Z" fill="#E2E2E1"/>
<path d="M85.2074 365.165H87.1348V366.285L85.2074 365.165Z" fill="#E2E2E1"/>
<path d="M114.324 349.987C114.324 349.783 114.223 349.681 114.223 349.477C114.223 348.561 114.831 347.746 115.744 347.542V351.413C115.44 351.311 115.034 351.107 114.831 350.903L90.2822 365.164H88.2534L114.324 349.987Z" fill="#E2E2E1"/>
<path d="M117.569 350.904H118.076V351.209L117.569 350.904Z" fill="#E2E2E1"/>
<path d="M116.657 350.904H117.57C117.367 351.108 116.962 351.311 116.657 351.413V350.904Z" fill="#E2E2E1"/>
<path d="M146.783 332.366L145.262 333.181V332.366H146.783Z" fill="#E2E2E1"/>
<path d="M172.249 317.29H172.756L172.249 317.595V317.29Z" fill="#E2E2E1"/>
<path d="M172.756 315.456H172.249V315.151L172.756 315.456Z" fill="#E2E2E1"/>
<path d="M227.836 284.186L229.865 282.963V284.186H227.836Z" fill="#E2E2E1"/>
<path d="M202.274 300.077V298.957H204.404L202.274 300.077Z" fill="#E2E2E1"/>
<path d="M229.865 284.187L204.403 298.956H202.273L227.836 284.187H229.865Z" fill="#E2E2E1"/>
<path d="M257.355 265.851L256.95 266.157L257.355 265.851Z" fill="#E2E2E1"/>
<path d="M231.081 284.187L231.893 283.576L231.081 284.187Z" fill="#E2E2E1"/>
<path d="M231.893 283.575L231.081 284.186H230.878V282.963L231.893 283.575Z" fill="#E2E2E1"/>
<path d="M257.355 265.851L256.95 266.157L256.341 265.851H257.355Z" fill="#E2E2E1"/>
<path d="M257.863 265.545L257.356 265.851L257.863 265.545Z" fill="#E2E2E1"/>
<path d="M257.356 265.851L257.863 265.545L257.356 265.851Z" fill="#E2E2E1"/>
<path d="M257.863 265.547L257.356 265.853H256.342L240.821 256.889L241.734 256.176L257.863 265.547Z" fill="#E2E2E1"/>
<path d="M335.668 211.357L334.755 212.07L335.668 211.357Z" fill="#E2E2E1"/>
<path d="M335.668 211.356L334.755 212.069L318.626 202.698L319.64 202.087L335.668 211.356Z" fill="#E2E2E1"/>
<path d="M319.641 202.087L318.626 202.698L319.641 202.087Z" fill="#E2E2E1"/>
<path d="M127.204 356.404L128.117 355.792L127.204 356.404Z" fill="#E2E2E1"/>
<path d="M127.204 356.404L128.117 355.792L127.204 356.404Z" fill="#E2E2E1"/>
<path d="M118.074 349.988V348.969C118.074 349.173 118.176 349.275 118.176 349.479C118.176 349.682 118.176 349.784 118.074 349.988Z" fill="#E2E2E1"/>
<path d="M143.741 334.098V333.792H144.248L143.741 334.098Z" fill="#E2E2E1"/>
<path d="M118.078 348.969V348.052H119.6L118.078 348.969Z" fill="#E2E2E1"/>
<path d="M118.078 350.904V349.987L119.6 350.904H118.078Z" fill="#E2E2E1"/>
<path d="M128.117 355.793L127.204 356.404L118.074 351.209V350.904H119.596L128.117 355.793Z" fill="#E2E2E1"/>
<path d="M172.248 315.458V316.374L170.726 315.458H172.248Z" fill="#E2E2E1"/>
<path d="M172.248 316.374V317.291H170.726L172.248 316.374Z" fill="#E2E2E1"/>
<path d="M143.741 331.755L144.756 332.366H143.741V331.755Z" fill="#E2E2E1"/>
<path d="M145.26 332.061V332.366H144.753L145.26 332.061Z" fill="#E2E2E1"/>
<path d="M146.786 332.365H145.265V332.059L170.726 317.29H172.248V317.595L146.786 332.365Z" fill="#E2E2E1"/>
<path d="M163.017 310.975L163.93 310.364L172.248 315.152V315.457H170.726L163.017 310.975Z" fill="#E2E2E1"/>
<path d="M118.076 348.051H117.569L118.076 347.746V348.051Z" fill="#E2E2E1"/>
<path d="M142.219 333.792L143.74 332.875V333.792H142.219Z" fill="#E2E2E1"/>
<path d="M143.74 332.876L142.726 332.366H143.74V332.876Z" fill="#E2E2E1"/>
<path d="M116.657 348.051V347.542C116.962 347.644 117.367 347.848 117.57 348.051H116.657Z" fill="#E2E2E1"/>
<path d="M142.219 333.792H143.74V334.098L119.597 348.052H118.075V347.747L142.219 333.792Z" fill="#E2E2E1"/>
<path d="M143.74 331.754V332.366H142.726L137.045 329.106L137.958 328.393L143.74 331.754Z" fill="#E2E2E1"/>
<path d="M137.959 328.393L137.046 329.106L137.959 328.393Z" fill="#E2E2E1"/>
<path d="M86.1203 364.554L87.1348 365.165H85.2074L86.1203 364.554Z" fill="#E2E2E1"/>
<path d="M86.0216 364.554H86.123L85.2101 365.165L86.0216 364.554Z" fill="#E2E2E1"/>
<path d="M258.372 244.665V233.969V232.747L259.184 233.154L259.387 233.358V243.952L258.372 244.665Z" fill="#E3E3E3"/>
<path d="M287.993 216.247H290.021L286.978 217.978V204.227L287.993 203.616V216.247Z" fill="#E3E3E3"/>
<path d="M172.753 304.252V283.676L173.768 282.963V303.539L172.753 304.252Z" fill="#E3E3E3"/>
<path d="M202.271 266.158V267.074V283.677L201.257 284.39V267.074L199.735 266.158H201.764H202.271Z" fill="#E3E3E3"/>
<path d="M343.989 185.078V184.264V183.143L344.801 183.55L345.004 183.754V184.365L343.989 185.078Z" fill="#E3E3E3"/>
<path d="M315.482 184.366L316.496 183.754V200.256V201.478L315.989 201.172L315.482 201.478V200.256V184.366Z" fill="#E3E3E3"/>
<path d="M58.6321 363.127L59.6465 362.414V382.276V382.989L59.2407 383.193L56.6032 381.665H58.6321V363.127Z" fill="#E3E3E3"/>
<path d="M229.866 249.351V243.952L230.881 243.239V249.86V251.082V253.425V263.815L229.866 264.528V251.082H229.359V250.166V249.351H229.866Z" fill="#E3E3E3"/>
<path d="M115.642 323.403L116.656 322.69V343.265L115.642 343.978V323.403Z" fill="#E3E3E3"/>
<path d="M87.136 343.265L88.1504 342.552V363.127L87.136 363.84V362.72V343.265Z" fill="#E3E3E3"/>
<path d="M201.764 266.157H199.735L198.822 265.546L199.735 264.935L201.764 266.157Z" fill="#E3E3E3"/>
<path d="M229.357 250.166L227.836 249.351H229.357V250.166Z" fill="#E3E3E3"/>
<path d="M227.836 251.081L229.357 250.165V251.081H227.836Z" fill="#E3E3E3"/>
<path d="M202.271 266.157H201.764L202.271 265.851V266.157Z" fill="#E3E3E3"/>
<path d="M202.271 267.074V266.158H203.793L202.271 267.074Z" fill="#E3E3E3"/>
<path d="M229.358 251.388V251.083H229.865L229.358 251.388Z" fill="#E3E3E3"/>
<path d="M227.836 251.083H229.357V251.388L203.794 266.158H202.272V265.852L227.836 251.083Z" fill="#E3E3E3"/>
<path d="M241.734 256.176L240.821 256.889L241.734 256.176Z" fill="#E3E3E3"/>
<path d="M241.734 256.176L240.821 256.889L241.734 256.176Z" fill="#E3E3E3"/>
<path d="M250.662 229.488L251.676 228.877L258.371 232.748V233.97L250.662 229.488Z" fill="#E3E3E3"/>
<path d="M231.387 250.166L232.908 251.083H230.879V249.86L231.387 250.166Z" fill="#E3E3E3"/>
<path d="M241.734 256.175L240.821 256.888L230.88 251.083H232.909L241.734 256.175Z" fill="#E3E3E3"/>
<path d="M315.48 200.255V201.478L290.019 216.247H287.99L315.48 200.255Z" fill="#E3E3E3"/>
<path d="M328.569 175.299L329.482 174.688L343.988 183.142V184.262L328.569 175.299Z" fill="#E3E3E3"/>
<path d="M319.641 202.089L318.626 202.7L316.496 201.478V200.255L319.641 202.089Z" fill="#E3E3E3"/>
<path d="M229.358 249.044L229.865 249.35H229.358V249.044Z" fill="#E3E3E3"/>
<path d="M229.357 249.045V249.35H227.836L224.793 247.517L225.706 246.906L229.357 249.045Z" fill="#E3E3E3"/>
<path d="M163.928 310.364L163.015 310.975L163.928 310.364Z" fill="#E3E3E3"/>
<path d="M163.928 310.364L163.015 310.975L163.928 310.364Z" fill="#E3E3E3"/>
<path d="M163.928 310.364L163.015 310.976L159.769 309.142L146.885 301.706L147.9 301.095L163.928 310.364Z" fill="#E3E3E3"/>
<path d="M137.959 328.393L137.046 329.106L137.959 328.393Z" fill="#E3E3E3"/>
<path d="M129.742 323.606L137.959 328.393L137.046 329.106L121.018 319.735L121.931 319.124L129.742 323.606Z" fill="#E3E3E3"/>
<path d="M121.932 319.124L121.019 319.735L121.932 319.124Z" fill="#E3E3E3"/>
<path d="M85.208 365.165L86.0195 364.554L85.208 365.165Z" fill="#E3E3E3"/>
<path d="M86.123 364.552H86.0216L85.2101 365.163H85.1086L69.0808 355.792L69.9938 355.181L86.123 364.552Z" fill="#E3E3E3"/>
<path d="M69.9922 355.181L69.0792 355.792L69.9922 355.181Z" fill="#E3E3E3"/>
<path d="M343.989 144.029L345.004 143.316V151.159L343.989 151.77V150.65V144.029Z" fill="#E4E4E4"/>
<path d="M116.657 315.457H117.164V316.374V317.29H116.657V322.689L115.642 323.402V317.29H113.614L115.642 316.068V302.928L116.657 302.215V315.457Z" fill="#E4E4E4"/>
<path d="M230.881 243.239L229.866 243.952V232.747V223.478L230.881 222.765V243.239Z" fill="#E4E4E4"/>
<path d="M316.497 183.754L315.482 184.365V183.143V168.373V167.151V163.891L316.497 163.178V166.54H318.525L317.004 167.456L318.525 168.373H316.497V183.754Z" fill="#E4E4E4"/>
<path d="M59.6465 349.172V350.395V352.737V362.414L58.6321 363.127V349.784V348.561V346.218V342.653L59.6465 341.94V349.172Z" fill="#E4E4E4"/>
<path d="M145.26 299.566V300.381H144.753H144.245V299.566V283.065L145.26 282.352V299.566Z" fill="#E4E4E4"/>
<path d="M287.992 183.142V184.262V203.616L286.978 204.227V184.262L286.471 184.059L287.992 183.04V183.142Z" fill="#E4E4E4"/>
<path d="M88.1504 342.552L87.136 343.265V333.181V332.061L87.6432 332.366L88.1504 332.061V333.181V342.552Z" fill="#E4E4E4"/>
<path d="M172.753 283.676V283.574V282.352L173.565 282.861L173.768 282.963L172.753 283.676Z" fill="#E4E4E4"/>
<path d="M373.609 133.742V134.658V144.029L372.595 144.742V134.658L371.073 133.742H373.102H373.609Z" fill="#E4E4E4"/>
<path d="M31.0391 365.674V366.897L30.329 366.489L30.0246 366.285V362.517L31.0391 361.804V365.674Z" fill="#E4E4E4"/>
<path d="M44.125 373.211L43.1106 373.924L31.039 366.896V365.674L44.125 373.211Z" fill="#E4E4E4"/>
<path d="M53.0516 346.525L53.9645 345.914L58.6309 348.562V349.784L53.0516 346.525Z" fill="#E4E4E4"/>
<path d="M88.1499 333.18V332.059L113.612 317.29H115.641L88.1499 333.18Z" fill="#E4E4E4"/>
<path d="M156.829 274.307L157.742 273.696L172.756 282.354V283.576L156.829 274.307Z" fill="#E4E4E4"/>
<path d="M145.262 299.567L146.783 300.382H145.262V299.567Z" fill="#E4E4E4"/>
<path d="M199.736 264.935L198.823 265.546L199.736 264.935Z" fill="#E4E4E4"/>
<path d="M199.736 264.935L198.823 265.546L182.694 256.277L183.607 255.666L199.736 264.935Z" fill="#E4E4E4"/>
<path d="M250.661 229.488L251.676 228.877L250.661 229.488Z" fill="#E4E4E4"/>
<path d="M234.634 220.118L235.547 219.506L251.676 228.877L250.661 229.489L234.634 220.118Z" fill="#E4E4E4"/>
<path d="M287.993 184.264V183.143H290.021L287.993 184.264Z" fill="#E4E4E4"/>
<path d="M328.566 175.299L329.479 174.688L328.566 175.299Z" fill="#E4E4E4"/>
<path d="M316.494 168.372H318.523L329.479 174.687L328.566 175.298L316.494 168.372Z" fill="#E4E4E4"/>
<path d="M343.988 150.649V151.769L318.526 166.539H316.498L343.988 150.649Z" fill="#E4E4E4"/>
<path d="M373.104 133.74H371.075L364.38 129.869L365.292 129.258L373.104 133.74Z" fill="#E4E4E4"/>
<path d="M315.48 167.15V168.372H313.452L315.48 167.15Z" fill="#E4E4E4"/>
<path d="M313.452 168.372H315.48L301.684 176.317L290.019 183.142H287.99L301.684 175.095L313.452 168.372Z" fill="#E4E4E4"/>
<path d="M225.705 246.906L224.792 247.517L225.705 246.906Z" fill="#E4E4E4"/>
<path d="M225.705 246.906L224.792 247.517L225.705 246.906Z" fill="#E4E4E4"/>
<path d="M225.705 246.906L224.792 247.517L208.663 238.248L209.576 237.535L225.705 246.906Z" fill="#E4E4E4"/>
<path d="M147.9 301.095L146.886 301.706L147.9 301.095Z" fill="#E4E4E4"/>
<path d="M147.9 301.095L146.886 301.706L147.9 301.095Z" fill="#E4E4E4"/>
<path d="M117.162 316.374V315.458H118.684L117.162 316.374Z" fill="#E4E4E4"/>
<path d="M117.162 317.291V316.374L118.684 317.291H117.162Z" fill="#E4E4E4"/>
<path d="M144.756 300.382L144.249 300.688V300.382H144.756Z" fill="#E4E4E4"/>
<path d="M145.26 300.688L144.753 300.382H145.26V300.688Z" fill="#E4E4E4"/>
<path d="M146.785 300.382L147.9 301.095L146.886 301.707L145.263 300.688V300.382H146.785Z" fill="#E4E4E4"/>
<path d="M117.164 315.456H116.657L117.164 315.151V315.456Z" fill="#E4E4E4"/>
<path d="M144.248 299.567V300.382H142.726L144.248 299.567Z" fill="#E4E4E4"/>
<path d="M142.726 300.382H144.248V300.688L118.685 315.457H117.163V315.152L142.726 300.382Z" fill="#E4E4E4"/>
<path d="M121.932 319.124L121.019 319.735L121.932 319.124Z" fill="#E4E4E4"/>
<path d="M116.657 317.29H117.164V317.595L116.657 317.29Z" fill="#E4E4E4"/>
<path d="M121.932 319.123L121.019 319.734L117.164 317.595V317.29H118.686L121.932 319.123Z" fill="#E4E4E4"/>
<path d="M59.6469 350.395V349.173L61.6758 350.395H59.6469Z" fill="#E4E4E4"/>
<path d="M78.918 328.495L79.8309 327.782L87.1348 332.06V333.18L78.918 328.495Z" fill="#E4E4E4"/>
<path d="M69.9922 355.181L69.0792 355.792L69.9922 355.181Z" fill="#E4E4E4"/>
<path d="M69.9922 355.182L69.0792 355.794L59.6451 350.395H61.6739L69.9922 355.182Z" fill="#E4E4E4"/>
<path d="M116.656 281.743V281.946V285.308V302.318L115.642 303.031V285.206C114.83 285.002 114.222 284.289 114.12 283.474L116.656 281.743Z" fill="#E5E5E5"/>
<path d="M315.482 150.039V143.418L316.496 142.705V163.179L315.482 163.892V150.039Z" fill="#E5E5E5"/>
<path d="M258.372 183.143L259.387 182.43V200.867L258.372 201.478V200.255V183.143Z" fill="#E5E5E5"/>
<path d="M59.6465 321.366V341.941L58.6321 342.654V322.079L59.6465 321.366Z" fill="#E5E5E5"/>
<path d="M202.272 232.747H202.779V233.664V234.275H201.765H199.736L201.258 233.358V222.867L202.272 222.154V232.747Z" fill="#E5E5E5"/>
<path d="M230.882 218.488V218.997V222.766L229.868 223.479V218.997V218.488V215.127V202.903L230.882 202.19V215.127V215.636H231.795H233.824L232.303 216.553C232.303 216.756 232.404 216.858 232.404 217.062C232.404 217.266 232.404 217.367 232.303 217.571L233.824 218.488H231.795H230.882Z" fill="#E5E5E5"/>
<path d="M286.978 163.28L287.992 162.567V168.373V183.041L286.471 184.059L284.949 183.142H286.978V163.28Z" fill="#E5E5E5"/>
<path d="M31.0391 361.802L30.0246 362.515V348.051V341.939L31.0391 341.226V361.802Z" fill="#E5E5E5"/>
<path d="M145.262 282.353L144.248 283.066V267.584H143.741V266.769V266.158H144.755H146.784L145.769 266.769L147.291 267.584H145.262V282.353Z" fill="#E5E5E5"/>
<path d="M343.989 144.028V123.555L345.004 122.842V143.315L343.989 144.028Z" fill="#E5E5E5"/>
<path d="M172.247 249.044L173.261 249.554L174.275 249.044V250.165V251.387L173.261 250.776L172.247 251.387V250.165V249.044Z" fill="#E5E5E5"/>
<path d="M53.0538 346.525L53.9668 345.914L53.0538 346.525Z" fill="#E5E5E5"/>
<path d="M36.9246 337.153L37.8375 336.542L53.9668 345.913L53.0538 346.524L36.9246 337.153Z" fill="#E5E5E5"/>
<path d="M156.827 274.307L157.74 273.696L156.827 274.307Z" fill="#E5E5E5"/>
<path d="M145.263 267.583H147.292L157.74 273.695L156.827 274.306L145.263 267.583Z" fill="#E5E5E5"/>
<path d="M144.249 265.851L144.756 266.157H143.741V265.545L144.249 265.851Z" fill="#E5E5E5"/>
<path d="M145.265 265.851L172.248 250.165V251.387L146.786 266.156H144.757L145.265 265.851Z" fill="#E5E5E5"/>
<path d="M166.669 246.906L167.582 246.294L172.248 249.045V250.165L166.669 246.906Z" fill="#E5E5E5"/>
<path d="M183.605 255.666L182.692 256.277L183.605 255.666Z" fill="#E5E5E5"/>
<path d="M183.605 255.665L182.692 256.276L174.273 251.387V250.165L183.605 255.665Z" fill="#E5E5E5"/>
<path d="M201.256 234.478L174.273 250.164V249.044L199.735 234.274H201.764L201.256 234.478Z" fill="#E5E5E5"/>
<path d="M201.765 234.274H202.779V234.784L201.765 234.274Z" fill="#E5E5E5"/>
<path d="M234.632 220.118L235.545 219.506L234.632 220.118Z" fill="#E5E5E5"/>
<path d="M231.792 218.488H233.82L235.545 219.506L234.632 220.118L231.792 218.488Z" fill="#E5E5E5"/>
<path d="M230.88 218.488H231.793C231.59 218.692 231.184 218.895 230.88 218.997V218.488Z" fill="#E5E5E5"/>
<path d="M258.371 200.255V201.478L233.822 215.738H231.793L258.371 200.255Z" fill="#E5E5E5"/>
<path d="M230.88 215.737V215.228C231.184 215.329 231.59 215.533 231.793 215.737H230.88Z" fill="#E5E5E5"/>
<path d="M286.979 183.142H284.95L270.443 174.688L271.356 174.077L286.979 183.142Z" fill="#E5E5E5"/>
<path d="M365.291 129.258L364.378 129.869L365.291 129.258Z" fill="#E5E5E5"/>
<path d="M365.291 129.259L364.378 129.87L348.249 120.601L349.162 119.888L365.291 129.259Z" fill="#E5E5E5"/>
<path d="M209.576 237.535L208.663 238.248L209.576 237.535Z" fill="#E5E5E5"/>
<path d="M202.779 233.664V232.747H204.301L202.779 233.664Z" fill="#E5E5E5"/>
<path d="M202.779 234.275V233.664L203.793 234.275H202.779Z" fill="#E5E5E5"/>
<path d="M209.576 237.535L208.663 238.248L209.576 237.535Z" fill="#E5E5E5"/>
<path d="M209.576 237.534L208.663 238.247L202.78 234.784V234.274H203.794L209.576 237.534Z" fill="#E5E5E5"/>
<path d="M226.923 218.487L228.445 217.57C228.445 217.366 228.344 217.265 228.344 217.061C228.344 216.144 228.952 215.329 229.865 215.125V218.487H228.952H226.923Z" fill="#E5E5E5"/>
<path d="M202.779 232.748H202.272L202.779 232.443V232.748Z" fill="#E5E5E5"/>
<path d="M226.922 218.488H228.951L204.301 232.748H202.779V232.442L226.922 218.488Z" fill="#E5E5E5"/>
<path d="M229.865 218.488V218.997C229.561 218.895 229.155 218.692 228.952 218.488H229.865Z" fill="#E5E5E5"/>
<path d="M143.74 266.158V266.769L142.726 266.158H143.74Z" fill="#E5E5E5"/>
<path d="M143.74 266.769V267.584H142.219L143.74 266.769Z" fill="#E5E5E5"/>
<path d="M140.697 265.036L141.61 264.323L143.74 265.546V266.157H142.726L140.697 265.036Z" fill="#E5E5E5"/>
<path d="M141.611 264.323L140.698 265.036L141.611 264.323Z" fill="#E5E5E5"/>
<path d="M143.741 267.583H144.248L143.741 267.889V267.583Z" fill="#E5E5E5"/>
<path d="M119.6 281.844L118.078 282.761C118.078 282.965 118.179 283.067 118.179 283.27C118.179 284.187 117.571 285.002 116.658 285.206V281.844H117.571H119.6Z" fill="#E5E5E5"/>
<path d="M119.597 281.844H117.568L142.219 267.583H143.74V267.889L119.597 281.844Z" fill="#E5E5E5"/>
<path d="M117.57 281.843H116.657V281.639L116.962 281.436C117.266 281.537 117.469 281.741 117.57 281.843Z" fill="#E5E5E5"/>
<path d="M116.959 281.436L116.655 281.741L116.959 281.436Z" fill="#E5E5E5"/>
<path d="M116.959 281.436L116.655 281.741L116.959 281.436Z" fill="#E5E5E5"/>
<path d="M78.9171 328.495L79.8301 327.782L78.9171 328.495Z" fill="#E5E5E5"/>
<path d="M62.8893 319.124L63.8023 318.513L79.8301 327.782L78.9171 328.495L62.8893 319.124Z" fill="#E5E5E5"/>
<path d="M62.8917 319.124L63.8047 318.513L62.8917 319.124Z" fill="#E5E5E5"/>
<path d="M316.496 142.704L315.482 143.417V135.269V134.046V122.842L316.496 122.129V133.537V134.658V142.704Z" fill="#E6E6E6"/>
<path d="M30.0271 321.468L31.0415 320.755V332.672L33.0703 333.793H31.0415V341.229L30.0271 341.942V333.793V332.672V321.468Z" fill="#E6E6E6"/>
<path d="M230.881 202.291L229.866 203.004V184.873H229.359V183.957V183.142H229.866V182.429L230.881 181.716V183.142V184.262V202.291Z" fill="#E6E6E6"/>
<path d="M115.642 281.844V281.335V261.88L116.656 261.167V267.584V281.335V281.64L114.12 283.372V283.27C114.12 283.066 114.12 282.964 114.222 282.761L112.7 281.844H114.729H115.642Z" fill="#E6E6E6"/>
<path d="M343.987 123.554V119.786V119.276H343.074H341.045L342.567 118.36C342.567 118.156 342.466 118.054 342.466 117.85C342.466 116.933 343.074 116.119 343.987 115.915V103.081L345.002 102.368V115.915V116.424H345.915H346.422V117.341V118.36V119.582L345.915 119.276C345.712 119.48 345.306 119.684 345.002 119.786V122.841L343.987 123.554Z" fill="#E6E6E6"/>
<path d="M59.6469 321.365L58.6325 322.078V315.458L61.6758 317.291H59.6469V321.365Z" fill="#E6E6E6"/>
<path d="M1.52229 347.543V341.33L2.53671 340.617V347.543V348.052H3.44968H5.47852L3.95689 348.969C3.95689 349.173 4.05834 349.275 4.05834 349.478C4.05834 350.599 3.14536 351.516 2.0295 351.516C0.913636 351.516 0.000658989 350.599 0.000658989 349.478C0.000658989 348.562 0.710752 347.747 1.52229 347.543Z" fill="#E6E6E6"/>
<path d="M258.372 183.141V169.39V168.881H257.459H255.43L256.952 167.964C256.952 167.76 256.851 167.658 256.851 167.455C256.851 166.538 257.459 165.723 258.372 165.519V162.566L259.387 161.853V165.519V169.39V169.492V182.326L258.372 183.141Z" fill="#E6E6E6"/>
<path d="M202.271 201.579V222.155L201.257 222.868V202.292L202.271 201.579Z" fill="#E6E6E6"/>
<path d="M286.978 151.159V150.039V147.594V142.705L287.992 141.992V150.039V151.159V162.568L286.978 163.281V151.159Z" fill="#E6E6E6"/>
<path d="M2.53429 348.051V347.542C2.83862 347.644 3.14294 347.848 3.44727 348.051H2.53429Z" fill="#E6E6E6"/>
<path d="M30.0234 332.671V333.792L5.47448 348.052H3.44564L30.0234 332.671Z" fill="#E6E6E6"/>
<path d="M36.923 337.153L37.8359 336.542L36.923 337.153Z" fill="#E6E6E6"/>
<path d="M31.0393 333.792H33.0682L37.8359 336.542L36.923 337.153L31.0393 333.792Z" fill="#E6E6E6"/>
<path d="M166.667 246.906L167.58 246.294L166.667 246.906Z" fill="#E6E6E6"/>
<path d="M150.538 237.637L151.451 236.924L167.58 246.295L166.667 246.906L150.538 237.637Z" fill="#E6E6E6"/>
<path d="M258.371 168.882V169.392C258.067 169.29 257.661 169.086 257.458 168.882H258.371Z" fill="#E6E6E6"/>
<path d="M230.879 184.263V183.143L255.428 168.882H257.457L230.879 184.263Z" fill="#E6E6E6"/>
<path d="M271.354 174.077L270.441 174.688L271.354 174.077Z" fill="#E6E6E6"/>
<path d="M286.979 151.16L284.95 150.039H286.979V151.16Z" fill="#E6E6E6"/>
<path d="M260.905 167.456C260.905 167.659 260.905 167.761 260.804 167.965L271.354 174.076L270.441 174.688L260.296 168.78C260.093 168.984 259.688 169.187 259.383 169.289V165.418C260.296 165.724 260.905 166.539 260.905 167.456Z" fill="#E6E6E6"/>
<path d="M343.988 119.276V119.785C343.684 119.683 343.278 119.48 343.075 119.276H343.988Z" fill="#E6E6E6"/>
<path d="M316.494 134.657V133.536L341.043 119.276H343.072L316.494 134.657Z" fill="#E6E6E6"/>
<path d="M349.162 119.888L348.249 120.601L349.162 119.888Z" fill="#E6E6E6"/>
<path d="M349.162 119.889L348.249 120.602L346.423 119.481V118.361L349.162 119.889Z" fill="#E6E6E6"/>
<path d="M346.424 118.359V117.341C346.424 117.545 346.525 117.646 346.525 117.85C346.525 118.054 346.525 118.156 346.424 118.359Z" fill="#E6E6E6"/>
<path d="M346.424 117.341V116.424H347.945L346.424 117.341Z" fill="#E6E6E6"/>
<path d="M371.074 101.86L372.596 100.943V101.86H371.074Z" fill="#E6E6E6"/>
<path d="M345.003 116.424V115.915C345.307 116.017 345.713 116.221 345.916 116.424H345.003Z" fill="#E6E6E6"/>
<path d="M346.422 116.424H345.915L346.422 116.119V116.424Z" fill="#E6E6E6"/>
<path d="M371.074 101.858H372.596V102.164L347.945 116.424H346.424V116.119L371.074 101.858Z" fill="#E6E6E6"/>
<path d="M315.48 134.046V135.268H313.452L315.48 134.046Z" fill="#E6E6E6"/>
<path d="M287.993 151.16V150.039H290.021L287.993 151.16Z" fill="#E6E6E6"/>
<path d="M290.019 150.039H287.99L301.684 142.094L313.452 135.269H315.48L301.684 143.214L290.019 150.039Z" fill="#E6E6E6"/>
<path d="M286.979 150.038H284.95L280.283 147.39L281.196 146.677L286.979 150.038Z" fill="#E6E6E6"/>
<path d="M281.195 146.677L280.282 147.39L281.195 146.677Z" fill="#E6E6E6"/>
<path d="M281.195 146.677L280.282 147.39L281.195 146.677Z" fill="#E6E6E6"/>
<path d="M229.865 183.142H229.358V182.836L229.865 183.142Z" fill="#E6E6E6"/>
<path d="M229.357 183.958V184.875H227.836L229.357 183.958Z" fill="#E6E6E6"/>
<path d="M228.85 183.143H229.357V183.958L228.444 183.449L228.85 183.143Z" fill="#E6E6E6"/>
<path d="M229.357 182.836V183.142H228.85L229.357 182.836Z" fill="#E6E6E6"/>
<path d="M229.358 184.875H229.865L229.358 185.18V184.875Z" fill="#E6E6E6"/>
<path d="M208.866 197.098L214.141 193.431L219.01 189.967L227.836 184.875H229.357V185.18L208.866 197.098Z" fill="#E6E6E6"/>
<path d="M208.868 197.096L214.143 193.429L208.868 197.096Z" fill="#E6E6E6"/>
<path d="M114.73 281.844H112.702L98.7026 273.696L99.6156 273.084L114.73 281.844Z" fill="#E6E6E6"/>
<path d="M115.641 281.844H114.728C114.931 281.641 115.336 281.437 115.641 281.335V281.844Z" fill="#E6E6E6"/>
<path d="M99.6133 273.084L98.7003 273.696L99.6133 273.084Z" fill="#E6E6E6"/>
<path d="M141.611 264.323L140.698 265.036L141.611 264.323Z" fill="#E6E6E6"/>
<path d="M141.611 264.323L140.698 265.036L124.671 255.665L125.583 255.054L141.611 264.323Z" fill="#E6E6E6"/>
<path d="M125.582 255.054L124.669 255.665L125.582 255.054Z" fill="#E6E6E6"/>
<path d="M116.655 281.741V281.436C116.756 281.436 116.858 281.537 116.959 281.537L116.655 281.741Z" fill="#E6E6E6"/>
<path d="M59.6456 317.29H61.6744L63.8047 318.512L62.8917 319.123L59.6456 317.29Z" fill="#E6E6E6"/>
<path d="M142.726 234.276L144.754 233.054L146.783 234.276H144.754H142.726Z" fill="#E7E7E7"/>
<path d="M345.004 102.266L343.989 102.979V84.4407L345.004 83.8296V85.0519V102.266Z" fill="#E7E7E7"/>
<path d="M315.482 122.841V102.368L316.496 101.655V119.276V122.128L315.482 122.841Z" fill="#E7E7E7"/>
<path d="M202.271 199.948V200.865V201.578L201.257 202.291V200.865L199.735 199.948H201.764H202.271Z" fill="#E7E7E7"/>
<path d="M373.608 82.4033L372.593 83.1163V69.0598H370.565L372.086 68.1431L371.072 67.6338H373.101H375.13L374.115 68.1431L375.637 69.0598H373.608V82.4033Z" fill="#E7E7E7"/>
<path d="M229.866 161.955L230.881 161.242V168.881V181.715L229.866 182.428V161.955Z" fill="#E7E7E7"/>
<path d="M287.992 141.992L286.978 142.705V122.231L287.992 121.518V135.269V141.992Z" fill="#E7E7E7"/>
<path d="M2.53516 340.616L1.52074 341.329V320.855L2.53516 320.142V340.616Z" fill="#E7E7E7"/>
<path d="M88.1504 260.555V266.463V267.583L87.4403 267.176L87.136 267.074V261.268L88.1504 260.555Z" fill="#E7E7E7"/>
<path d="M259.387 161.855L258.372 162.568V142.094L259.387 141.381V161.855Z" fill="#E7E7E7"/>
<path d="M30.0246 321.467V300.993L31.0391 300.28V320.754L30.0246 321.467Z" fill="#E7E7E7"/>
<path d="M117.164 251.082H116.657V261.166L115.642 261.879V250.47V249.35L116.15 249.554L117.164 249.044V250.165V251.082Z" fill="#E7E7E7"/>
<path d="M150.536 237.637L151.449 236.924L150.536 237.637Z" fill="#E7E7E7"/>
<path d="M117.164 250.164V249.044L142.727 234.274H144.756L117.164 250.164Z" fill="#E7E7E7"/>
<path d="M117.162 251.081V250.165L118.684 251.081H117.162Z" fill="#E7E7E7"/>
<path d="M144.754 234.274H146.783L151.449 236.923L150.536 237.636L144.754 234.274Z" fill="#E7E7E7"/>
<path d="M372.596 67.329L373.104 67.6346H371.075L368.031 65.8011L368.944 65.1899L372.596 67.329Z" fill="#E7E7E7"/>
<path d="M345.004 85.0514V83.8291L370.567 69.0596H372.596L345.004 85.0514Z" fill="#E7E7E7"/>
<path d="M268.414 139.343L281.195 146.677L280.282 147.39L271.153 142.093L264.255 138.019L265.167 137.408L268.414 139.343Z" fill="#E7E7E7"/>
<path d="M228.852 183.143L228.446 183.449L228.852 183.143Z" fill="#E7E7E7"/>
<path d="M229.357 182.836L228.85 183.142L229.357 182.836Z" fill="#E7E7E7"/>
<path d="M228.85 183.142L229.357 182.836L228.85 183.142Z" fill="#E7E7E7"/>
<path d="M201.764 199.95H199.735L186.345 192.208L187.257 191.597L201.764 199.95Z" fill="#E7E7E7"/>
<path d="M202.271 199.95H201.764L202.271 199.644V199.95Z" fill="#E7E7E7"/>
<path d="M228.446 183.449L227.837 183.143H228.852L228.446 183.449Z" fill="#E7E7E7"/>
<path d="M229.357 182.836L228.85 183.142H227.836L215.866 176.216L212.315 174.178L213.228 173.465L229.357 182.836Z" fill="#E7E7E7"/>
<path d="M219.01 189.966L214.141 193.43L219.01 189.966Z" fill="#E7E7E7"/>
<path d="M219.01 189.966L214.141 193.43L208.866 197.096L219.01 189.966Z" fill="#E7E7E7"/>
<path d="M202.271 200.865V199.948H203.793L202.271 200.865Z" fill="#E7E7E7"/>
<path d="M219.01 189.966L208.866 197.096L203.793 199.948H202.272V199.643L219.01 189.966Z" fill="#E7E7E7"/>
<path d="M108.54 246.295L109.453 245.684L115.641 249.351V250.471L108.54 246.295Z" fill="#E7E7E7"/>
<path d="M99.6133 273.083L98.7003 273.694L88.1504 267.582V266.462L99.6133 273.083Z" fill="#E7E7E7"/>
<path d="M125.582 255.054L124.669 255.665L125.582 255.054Z" fill="#E7E7E7"/>
<path d="M116.657 251.083H117.164V251.388L116.657 251.083Z" fill="#E7E7E7"/>
<path d="M125.582 255.055L124.669 255.666L117.162 251.388V251.083H118.684L125.582 255.055Z" fill="#E7E7E7"/>
<path d="M2.53516 320.143L1.52074 320.856V316.069L2.53516 315.458V316.68V320.143Z" fill="#E8E8E8"/>
<path d="M315.482 102.368V102.165H313.453L314.974 101.248L313.453 100.433H315.482V81.8947L316.496 81.1816V101.655L315.482 102.368Z" fill="#E8E8E8"/>
<path d="M287.992 121.517L286.978 122.23V118.156V116.934L287.485 117.239L287.992 116.934V118.156V121.517Z" fill="#E8E8E8"/>
<path d="M30.0246 300.994V300.688H27.9958L31.0391 298.957V300.281L30.0246 300.994Z" fill="#E8E8E8"/>
<path d="M202.271 160.53V167.151V168.068H201.764H199.735L201.257 167.151V161.243L202.271 160.53Z" fill="#E8E8E8"/>
<path d="M88.1504 239.979V260.555L87.136 261.268V240.692L88.1504 239.979Z" fill="#E8E8E8"/>
<path d="M174.275 185.179L172.247 183.957L174.275 182.836V183.957V185.179Z" fill="#E8E8E8"/>
<path d="M259.387 134.047V135.269V137.612V141.38L258.372 142.093V121.518L259.387 120.907V134.047Z" fill="#E8E8E8"/>
<path d="M229.866 151.16V150.039L230.577 150.446L230.881 150.65V161.244L229.866 161.957V151.16Z" fill="#E8E8E8"/>
<path d="M2.53267 316.68V315.458L27.9946 300.688H30.0234L2.53267 316.68Z" fill="#E8E8E8"/>
<path d="M368.943 65.1899L368.03 65.8011L368.943 65.1899Z" fill="#E8E8E8"/>
<path d="M368.943 65.1899L368.03 65.801L351.901 56.5319L352.814 55.8188L368.943 65.1899Z" fill="#E8E8E8"/>
<path d="M287.99 118.155V116.933L313.452 102.164H315.48L287.99 118.155Z" fill="#E8E8E8"/>
<path d="M265.168 137.408L264.255 138.019L265.168 137.408Z" fill="#E8E8E8"/>
<path d="M265.168 137.408L264.255 138.019L265.168 137.408Z" fill="#E8E8E8"/>
<path d="M259.387 135.268V134.046L261.416 135.268H259.387Z" fill="#E8E8E8"/>
<path d="M274.095 110.619L275.008 110.008L286.979 116.935V118.157L274.095 110.619Z" fill="#E8E8E8"/>
<path d="M265.168 137.408L264.255 138.019L259.386 135.269H261.415L265.168 137.408Z" fill="#E8E8E8"/>
<path d="M202.271 168.067V167.15L203.793 168.067H202.271Z" fill="#E8E8E8"/>
<path d="M222.156 146.779L223.069 146.167L229.865 150.038V151.159L222.156 146.779Z" fill="#E8E8E8"/>
<path d="M187.262 191.597L186.349 192.208L187.262 191.597Z" fill="#E8E8E8"/>
<path d="M213.229 173.465L212.316 174.178L213.229 173.465Z" fill="#E8E8E8"/>
<path d="M213.229 173.465L212.316 174.178L213.229 173.465Z" fill="#E8E8E8"/>
<path d="M201.764 168.068H202.271V168.373L201.764 168.068Z" fill="#E8E8E8"/>
<path d="M187.262 191.597L186.349 192.209L174.277 185.18V183.958L187.262 191.597Z" fill="#E8E8E8"/>
<path d="M174.273 183.958V182.837L199.735 168.068H201.764L174.273 183.958Z" fill="#E8E8E8"/>
<path d="M213.229 173.466L212.316 174.179L202.273 168.373V168.068H203.794L213.229 173.466Z" fill="#E8E8E8"/>
<path d="M108.542 246.295L109.455 245.684L108.542 246.295Z" fill="#E8E8E8"/>
<path d="M92.4128 237.026L93.4273 236.415L109.455 245.684L108.542 246.295L92.4128 237.026Z" fill="#E8E8E8"/>
<path d="M315.48 100.432H313.452L300.061 92.5892L300.974 91.978L315.48 100.432Z" fill="#E8E8E8"/>
<path d="M287.992 84.4412V85.5617L287.181 85.1543L286.978 85.0524V81.1818L287.992 80.4688V84.4412Z" fill="#E9E9E9"/>
<path d="M345.005 50.7258H345.512V51.6426V52.8649L344.497 52.2537L343.99 52.5593V51.9481L343.483 51.6426L343.99 51.337V41.4567L345.005 40.7437V50.7258Z" fill="#E9E9E9"/>
<path d="M202.271 140.056V160.529L201.257 161.242V140.769L202.271 140.056Z" fill="#E9E9E9"/>
<path d="M88.1508 239.979L87.1364 240.692V232.747L90.1797 234.479H88.1508V239.979Z" fill="#E9E9E9"/>
<path d="M315.482 81.8944V68.4491V67.3286L316.192 67.7361L316.496 67.8379V81.1814L315.482 81.8944Z" fill="#E9E9E9"/>
<path d="M259.387 120.906L258.373 121.517V101.553L257.967 101.349L259.387 100.331V100.942L261.416 102.164H259.387V120.906Z" fill="#E9E9E9"/>
<path d="M352.814 55.8188L351.901 56.5319L352.814 55.8188Z" fill="#E9E9E9"/>
<path d="M345.512 51.6438V50.7271H347.033L345.512 51.6438Z" fill="#E9E9E9"/>
<path d="M352.814 55.8183L351.901 56.5313L345.511 52.8644V51.6421L352.814 55.8183Z" fill="#E9E9E9"/>
<path d="M345.512 50.7255H345.005L345.512 50.4199V50.7255Z" fill="#E9E9E9"/>
<path d="M372.596 34.8354V35.6503H371.074L372.596 34.8354Z" fill="#E9E9E9"/>
<path d="M347.032 50.725H345.511V50.4194L371.074 35.6499H372.596V35.9555L347.032 50.725Z" fill="#E9E9E9"/>
<path d="M274.097 110.619L275.01 110.008L274.097 110.619Z" fill="#E9E9E9"/>
<path d="M259.388 102.164H261.417L275.01 110.007L274.097 110.618L259.388 102.164Z" fill="#E9E9E9"/>
<path d="M222.157 146.779L223.07 146.167L222.157 146.779Z" fill="#E9E9E9"/>
<path d="M206.13 137.408L207.042 136.797L223.07 146.168L222.157 146.779L206.13 137.408Z" fill="#E9E9E9"/>
<path d="M92.4094 237.026L93.4238 236.415L92.4094 237.026Z" fill="#E9E9E9"/>
<path d="M88.1488 234.478H90.1777L93.4238 236.413L92.4094 237.025L88.1488 234.478Z" fill="#E9E9E9"/>
<path d="M300.979 91.978L300.066 92.5892L300.979 91.978Z" fill="#E9E9E9"/>
<path d="M309.901 65.1898L310.814 64.5786L315.48 67.3288V68.4492L309.901 65.1898Z" fill="#E9E9E9"/>
<path d="M300.979 91.9795L300.066 92.5906L287.994 85.5623V84.4419L300.979 91.9795Z" fill="#E9E9E9"/>
<path d="M345.004 40.7442L343.989 41.4572V20.9835L345.004 20.2705V40.7442Z" fill="#EAEAEA"/>
<path d="M372.597 21.594V3.97239V3.36124H371.684H369.655L371.177 2.54637C371.177 2.44451 371.177 2.24079 371.075 2.13893L373.916 0.203613C374.626 0.50919 375.133 1.2222 375.133 2.03707C375.133 2.9538 374.524 3.76868 373.611 3.97239V20.9828L372.597 21.594Z" fill="#EAEAEA"/>
<path d="M287.992 80.4683L286.978 81.1813V60.7076L287.992 59.9946V80.4683Z" fill="#EAEAEA"/>
<path d="M202.272 140.055L201.258 140.768V133.435L204.301 135.268H202.272V140.055Z" fill="#EAEAEA"/>
<path d="M256.343 100.433H258.372V80.5709L259.387 79.8579V100.332L257.967 101.35L256.343 100.433Z" fill="#EAEAEA"/>
<path d="M357.277 11.7147L367.421 4.68647L369.653 3.3623H371.682L357.277 11.7147Z" fill="#EAEAEA"/>
<path d="M372.596 3.3623V3.8716C372.291 3.76974 371.886 3.56602 371.683 3.3623H372.596Z" fill="#EAEAEA"/>
<path d="M258.371 100.433H256.342L241.938 91.9783L242.85 91.3672L258.371 100.433Z" fill="#EAEAEA"/>
<path d="M242.85 91.3672L241.937 91.9783L242.85 91.3672Z" fill="#EAEAEA"/>
<path d="M206.13 137.408L207.043 136.797L206.13 137.408Z" fill="#EAEAEA"/>
<path d="M202.275 135.269H204.304L207.043 136.797L206.13 137.408L202.275 135.269Z" fill="#EAEAEA"/>
<path d="M309.903 65.1898L310.816 64.5786L309.903 65.1898Z" fill="#EAEAEA"/>
<path d="M293.774 55.9207L294.687 55.3096L310.816 64.5787L309.903 65.1899L293.774 55.9207Z" fill="#EAEAEA"/>
<path d="M230.881 84.4417V85.5621L230.069 85.1547L229.866 85.0528V79.858L230.881 79.145V84.4417Z" fill="#EBEBEB"/>
<path d="M258.372 80.5703V68.4491V67.3286L259.184 67.7361L259.387 67.8379V79.8573L258.372 80.5703Z" fill="#EBEBEB"/>
<path d="M345.004 20.2699L343.989 20.9829V18.2327L345.004 17.6216V18.8439V20.2699Z" fill="#EBEBEB"/>
<path d="M371.072 2.03718C371.072 0.91673 371.985 0 373.101 0C373.405 0 373.709 0.101859 373.912 0.203718L371.072 2.13904C371.072 2.03718 371.072 2.03718 371.072 2.03718Z" fill="#EBEBEB"/>
<path d="M287.993 59.9962L286.978 60.7092V50.7271L290.021 52.5605H287.993V59.9962Z" fill="#EBEBEB"/>
<path d="M357.276 11.7128L367.42 4.68457L357.276 11.7128Z" fill="#EBEBEB"/>
<path d="M345.001 18.843V17.6207L367.42 4.68457L357.276 11.7128L345.001 18.843Z" fill="#EBEBEB"/>
<path d="M242.85 91.3683L241.937 91.9795L230.879 85.5623V84.4419L242.85 91.3683Z" fill="#EBEBEB"/>
<path d="M251.777 64.6808L252.69 63.9678L258.371 67.3291V68.4496L251.777 64.6808Z" fill="#EBEBEB"/>
<path d="M251.778 64.6808L252.691 63.9678L251.778 64.6808Z" fill="#EBEBEB"/>
<path d="M293.773 55.9207L294.686 55.3096L293.773 55.9207Z" fill="#EBEBEB"/>
<path d="M287.99 52.5586H290.019L294.686 55.3088L293.773 55.9199L287.99 52.5586Z" fill="#EBEBEB"/>
<path d="M230.881 58.6704V79.1441L229.866 79.8571V59.3834L230.881 58.6704Z" fill="#ECECEC"/>
<path d="M235.649 55.3084L236.562 54.6973L252.691 63.9664L251.778 64.6794L235.649 55.3084Z" fill="#ECECEC"/>
<path d="M230.879 58.672L229.865 59.3851V50.7271L232.908 52.5605H230.879V58.672Z" fill="#EDEDEC"/>
<path d="M235.648 55.3084L236.561 54.6973L235.648 55.3084Z" fill="#EDEDEC"/>
<path d="M230.88 52.5586H232.909L236.561 54.6976L235.648 55.3088L230.88 52.5586Z" fill="#EDEDEC"/>
</g>
</svg>
