<svg width="374" height="366" viewBox="0 0 374 366" fill="none" xmlns="http://www.w3.org/2000/svg">
<g style="mix-blend-mode:soft-light">
<path d="M0.113281 -3.64649L1.1277 -4.35951V-1.91491V1.95575C0.924817 1.95575 0.823375 2.05762 0.620491 2.05762C0.417607 2.05762 0.316165 2.05761 0.113281 1.95575V-1.91491V-3.64649Z" fill="#D5D5D4"/>
<path d="M-1.30638 0.530058C-1.30638 0.32634 -1.40782 0.224481 -1.40782 0.0207624C-1.40782 -0.895967 -0.79917 -1.71086 0.113808 -1.91458V1.95608C-0.190517 1.85422 -0.596287 1.6505 -0.799171 1.44678L-25.3481 15.707H-27.377L-1.30638 0.530058Z" fill="#D5D5D4"/>
<path d="M2.54702 0.0204654C2.54702 0.224183 2.54702 0.326042 2.44558 0.52976L13.9085 7.15059L12.9955 7.76172L1.93837 1.34462C1.73548 1.54834 1.32972 1.75205 1.02539 1.85391V-2.01671C1.93837 -1.71114 2.54702 -0.896265 2.54702 0.0204654Z" fill="#D5D5D4"/>
<path d="M1.12758 36.6903L0.0117188 37.4033V33.4308V32.2085H0.113161L3.15642 33.9401H1.12758V36.6903Z" fill="#D7D7D6"/>
<path d="M28.6167 -3.03524L29.6311 -3.74827V16.8272L29.1239 17.1328L26.5879 15.7068H28.6167V-3.03524Z" fill="#D7D7D6"/>
<path d="M1.12891 33.9408H3.15774L4.17216 34.5519L3.15774 35.1631L1.12891 33.9408Z" fill="#D7D7D6"/>
<path d="M-12.8691 25.8931L-11.9562 25.2819L0.0139828 32.2083V33.4307L-12.8691 25.8931Z" fill="#D7D7D6"/>
<path d="M14.0106 7.15126L13.0977 7.86426L14.0106 7.15126Z" fill="#D7D7D6"/>
<path d="M28.6183 15.707H26.5894L13.0977 7.86388L14.0106 7.15089L28.6183 15.707Z" fill="#D7D7D6"/>
<path d="M29.6322 17.4385L29.125 17.1329L29.6322 16.8273V17.4385Z" fill="#D8D8D7"/>
<path d="M0.0117188 57.876V37.4023L1.12758 36.6893V57.163L0.0117188 57.876Z" fill="#D8D8D7"/>
<path d="M3.15625 35.1631L4.17067 34.5519L3.15625 35.1631Z" fill="#D8D8D7"/>
<path d="M3.15625 35.1632L4.17067 34.552L20.1985 43.923L19.2855 44.5342L3.15625 35.1632Z" fill="#D8D8D7"/>
<path d="M57.1245 38.7256V33.9382H55.0957L58.139 32.2066V38.0126L57.1245 38.7256Z" fill="#DADAD9"/>
<path d="M29.6316 57.8758L28.6172 58.5889V49.9309V48.7085L29.1244 49.0141L29.6316 48.7085V49.9309V57.8758Z" fill="#DADAD9"/>
<path d="M87.6577 17.4392H86.6433V18.1522L85.6289 18.8652V15.7076L88.165 17.1336L87.6577 17.4392Z" fill="#DADAD9"/>
<path d="M0.0132132 57.8771L1.12907 57.1641V65.924V67.0444V69.489V77.7396L0.114655 78.4526V66.5351L-2.01562 65.3128H0.0132132V57.8771Z" fill="#DADAD9"/>
<path d="M86.6426 17.4385H87.657L87.2512 17.7441L86.6426 17.4385Z" fill="#DADAD9"/>
<path d="M87.6577 17.4385L87.252 17.7441L87.6577 17.4385Z" fill="#DADAD9"/>
<path d="M29.6328 49.9316V48.7093L55.0947 33.9398H57.1236L29.6328 49.9316Z" fill="#DADAD9"/>
<path d="M19.2871 44.5342L20.2001 43.923L19.2871 44.5342Z" fill="#DADAD9"/>
<path d="M19.2871 44.5331L20.2001 43.9219L28.6198 48.7093V49.9316L19.2871 44.5331Z" fill="#DADAD9"/>
<path d="M1.12891 67.0439V65.9235L3.15774 67.0439H1.12891Z" fill="#DADAD9"/>
<path d="M0.0135255 65.3125H-2.01531L-6.68164 62.5623L-5.76866 61.9512L0.0135255 65.3125Z" fill="#DADAD9"/>
<path d="M10.3601 71.2206L9.44714 71.9336L1.12891 67.0444H3.15774L10.3601 71.2206Z" fill="#DADAD9"/>
<path d="M86.6433 38.7277L85.6289 39.3389V18.8652L86.6433 18.1522V38.7277Z" fill="#DBDBDA"/>
<path d="M1.1277 77.7401V98.2138L0.113281 98.9268V78.4531L1.1277 77.7401Z" fill="#DBDBDA"/>
<path d="M29.6316 57.8768V78.3505L28.6172 79.0635V58.5899L29.6316 57.8768Z" fill="#DBDBDA"/>
<path d="M57.125 38.7266L58.1394 38.0136V58.4872L57.125 59.2002V38.7266Z" fill="#DBDBDA"/>
<path d="M115.151 18.8651L114.137 19.5781V-0.284365L115.151 -0.895525V0.326794V18.8651Z" fill="#DBDBDA"/>
<path d="M88.1654 17.1329L88.6726 17.4385H87.6582L88.1654 17.1329Z" fill="#DBDBDA"/>
<path d="M115.148 0.326172V-0.896147L140.712 -15.6657H142.741L115.148 0.326172Z" fill="#DBDBDA"/>
<path d="M87.252 17.7452L87.6577 17.4396H88.6721L104.193 26.4032L103.28 27.1162L87.252 17.7452Z" fill="#DBDBDA"/>
<path d="M10.3622 71.2206L9.44922 71.9336L10.3622 71.2206Z" fill="#DBDBDA"/>
<path d="M10.3622 71.2206L9.44922 71.9336L10.3622 71.2206Z" fill="#DBDBDA"/>
<path d="M26.39 80.591L25.477 81.2021L9.44922 71.933L10.3622 71.22L26.39 80.591Z" fill="#DBDBDA"/>
<path d="M28.6172 99.5381V83.037V81.8146V79.4719V79.0644L29.6316 78.3514V81.8146H31.6604L29.6316 83.037V98.8251L28.6172 99.5381Z" fill="#DDDDDC"/>
<path d="M86.6435 48.0991V51.6641L86.8464 51.8679C86.6435 51.9697 86.4406 51.9697 86.1363 51.9697C85.0204 51.9697 84.1074 51.053 84.1074 49.9325C84.1074 49.0158 84.7161 48.2009 85.6291 47.9972V39.3392L86.6435 38.6262V48.0991Z" fill="#DDDDDC"/>
<path d="M58.1394 79.0636L57.125 79.6748V65.3127V59.2012L58.1394 58.4882V65.9239L60.1683 67.0443H58.1394V79.0636Z" fill="#DDDDDC"/>
<path d="M1.1277 98.2118V98.9248V100.147V102.592V118.685L0.113281 119.398V98.9248L1.1277 98.2118Z" fill="#DDDDDC"/>
<path d="M115.253 39.3387L114.137 40.0518V33.4309V32.2086V29.764V19.5781L115.151 18.8651V32.2086H117.18L115.76 33.1254L117.281 33.9402H115.253V39.3387Z" fill="#DDDDDC"/>
<path d="M142.74 -0.284967L143.755 -0.997961V16.8273L142.74 17.4385V16.2162V-0.284967Z" fill="#DDDDDC"/>
<path d="M172.364 -0.386853L171.35 0.326172V-20.2493L172.364 -20.9623V-0.386853Z" fill="#DDDDDC"/>
<path d="M142.741 16.2162V17.4385L117.177 32.208H115.148L142.741 16.2162Z" fill="#DDDDDC"/>
<path d="M103.279 27.1162L104.192 26.4032L103.279 27.1162Z" fill="#DDDDDC"/>
<path d="M86.6426 48.0985C87.4541 48.3022 88.1642 49.1171 88.1642 50.0338C88.1642 50.1357 88.1642 50.1357 88.1642 50.2375L94.4536 53.9045L93.5406 54.5156L87.8599 51.2561C87.657 51.5617 87.2512 51.8673 86.9469 51.9692L86.744 51.7654V48.0985H86.6426Z" fill="#DDDDDC"/>
<path d="M103.279 27.1154L104.192 26.4024L114.134 32.2083V33.4307L103.279 27.1154Z" fill="#DDDDDC"/>
<path d="M115.25 33.9392H117.279L120.322 35.7726L119.409 36.3838L115.25 33.9392Z" fill="#DDDDDC"/>
<path d="M57.1236 65.9235V65.3123V79.6744V79.7763V67.0439L31.6617 81.8135H29.6328L57.1236 65.9235Z" fill="#DDDDDC"/>
<path d="M58.1406 67.0441H60.1695L68.4877 71.8314L67.5747 72.5444L58.1406 67.0441Z" fill="#DDDDDC"/>
<path d="M26.3876 80.591L25.4746 81.2021L26.3876 80.591Z" fill="#DDDDDC"/>
<path d="M26.3876 80.591L25.4746 81.2021L26.3876 80.591Z" fill="#DDDDDC"/>
<path d="M28.6167 81.8143V83.0366L26.5879 81.8143H28.6167Z" fill="#DDDDDC"/>
<path d="M1.12891 100.149V98.9266L3.15774 100.149H1.12891Z" fill="#DDDDDC"/>
<path d="M25.4746 81.2023L26.3876 80.5912L28.6193 81.8135H26.5905L25.4746 81.2023Z" fill="#DDDDDC"/>
<path d="M16.5481 107.991L15.6351 108.602L1.12891 100.148H3.15774L16.5481 107.991Z" fill="#DDDDDC"/>
<path d="M16.5477 107.991L15.6348 108.602L16.5477 107.991Z" fill="#DDDDDC"/>
<path d="M199.854 -16.2767V-17.3971L200.564 -16.9897L200.868 -16.8878V0.224475L199.854 0.9375V-16.2767Z" fill="#DEDEDD"/>
<path d="M57.125 79.6742L58.1394 79.063V98.9255V99.5367L57.6322 99.8423L57.4293 99.7404L57.125 99.5367V81.8132V79.6742Z" fill="#DEDEDD"/>
<path d="M28.6172 116.14V114.918V112.575V99.5373L29.6316 98.8243V119.4L28.6172 120.113V116.14Z" fill="#DEDEDD"/>
<path d="M115.253 59.8114L114.137 60.5244V40.0508L115.253 39.3377V59.8114Z" fill="#DEDEDD"/>
<path d="M172.364 -0.387359V-0.285493V0.834961L171.552 0.427531L171.35 0.325666L172.364 -0.387359Z" fill="#DEDEDD"/>
<path d="M1.12784 118.687V130.401V134.272C0.924961 134.272 0.823519 134.374 0.620635 134.374C-0.495226 134.374 -1.4082 133.457 -1.4082 132.336C-1.4082 131.42 -0.799552 130.605 0.113425 130.401V119.4L1.12784 118.687Z" fill="#DEDEDD"/>
<path d="M188.288 8.98552L187.375 9.59668L172.361 0.836807V-0.283648L188.288 8.98552Z" fill="#DEDEDD"/>
<path d="M94.3544 53.8029L93.4414 54.4141L94.3544 53.8029Z" fill="#DEDEDD"/>
<path d="M110.484 63.1731L109.571 63.7842L93.4414 54.4132L94.3544 53.802L110.484 63.1731Z" fill="#DEDEDD"/>
<path d="M119.41 36.3838L120.323 35.7726L119.41 36.3838Z" fill="#DEDEDD"/>
<path d="M119.41 36.3848L120.323 35.7737L136.452 45.0428L135.539 45.7559L119.41 36.3848Z" fill="#DEDEDD"/>
<path d="M67.5742 72.5444L68.4872 71.8314L67.5742 72.5444Z" fill="#DEDEDD"/>
<path d="M67.5742 72.5443L68.4872 71.8313L84.515 81.2023L83.602 81.8135L67.5742 72.5443Z" fill="#DEDEDD"/>
<path d="M58.1406 99.5381V98.9269L58.5464 99.2325L58.1406 99.5381Z" fill="#DEDEDD"/>
<path d="M16.5477 107.991L15.6348 108.602L16.5477 107.991Z" fill="#DEDEDD"/>
<path d="M2.54909 132.334C2.54909 132.538 2.54909 132.64 2.44765 132.844L6.70821 135.288L5.79523 135.899L2.04188 133.659C1.839 133.862 1.43323 134.066 1.12891 134.168V130.297C1.94044 130.705 2.54909 131.418 2.54909 132.334Z" fill="#DEDEDD"/>
<path d="M28.6167 114.917V116.14L26.5879 114.917H28.6167Z" fill="#DEDEDD"/>
<path d="M15.6348 108.602L16.5477 107.991L28.6193 114.917H26.5905L15.6348 108.602Z" fill="#DEDEDD"/>
<path d="M171.346 35.0598V34.5505H170.433H168.404L169.926 33.6337C169.926 33.43 169.824 33.3282 169.824 33.1245C169.824 32.004 170.737 31.0873 171.853 31.0873C172.969 31.0873 173.882 32.004 173.882 33.1245C173.882 34.0412 173.274 34.856 172.361 35.0598V40.662L171.346 41.375V35.0598Z" fill="#DFDFDF"/>
<path d="M229.881 0.529262L229.475 0.834827H229.373V0.936692L228.359 1.54785V0.834827H226.33L228.359 -0.285628V-0.896788L228.866 -0.591192L229.881 -1.20235V0.0199677V0.529262Z" fill="#DFDFDF"/>
<path d="M200.867 20.8L199.853 21.4111V16.8275L197.824 15.6052H199.853V0.937483L200.867 0.224457V0.835617V15.6052V16.8275V20.8Z" fill="#DFDFDF"/>
<path d="M114.136 60.5249L115.252 59.8119V65.9234V67.0438V69.4885V80.2855L114.238 80.9985V66.5346L112.107 65.3122H114.136V60.5249Z" fill="#DFDFDF"/>
<path d="M85.6289 83.0365V81.8142L86.4404 82.3235L86.6433 82.4253V100.149L85.6289 100.862V83.0365Z" fill="#DFDFDF"/>
<path d="M143.755 60.4227L142.74 61.1357V49.9313V48.7089L143.247 49.0145L143.755 48.7089V49.9313V60.4227Z" fill="#DFDFDF"/>
<path d="M58.14 99.5378V100.149L57.6328 99.8434L58.14 99.5378Z" fill="#DFDFDF"/>
<path d="M28.6172 140.585V120.112L29.6316 119.399V139.872L28.6172 140.585Z" fill="#DFDFDF"/>
<path d="M229.881 0.0224609V-1.19986L244.793 -9.85787L234.649 -2.72774L229.881 0.0224609Z" fill="#DFDFDF"/>
<path d="M229.881 0.530273V0.0209788L230.388 0.224678L229.881 0.530273Z" fill="#DFDFDF"/>
<path d="M200.865 16.8271V15.6048L226.327 0.835286H228.356L200.865 16.8271Z" fill="#DFDFDF"/>
<path d="M188.288 8.98552L187.375 9.59668L188.288 8.98552Z" fill="#DFDFDF"/>
<path d="M199.852 15.6055H197.824L187.375 9.5958L188.288 8.98464L199.852 15.6055Z" fill="#DFDFDF"/>
<path d="M143.756 49.9316V48.7093L168.406 34.4491H170.435L143.756 49.9316Z" fill="#DFDFDF"/>
<path d="M171.347 34.4497V34.959C171.042 34.8571 170.636 34.6534 170.434 34.4497H171.347Z" fill="#DFDFDF"/>
<path d="M110.485 63.1731L109.572 63.7842L110.485 63.1731Z" fill="#DFDFDF"/>
<path d="M114.137 65.3125H112.108L109.572 63.7846L110.485 63.1735L114.137 65.3125Z" fill="#DFDFDF"/>
<path d="M135.539 45.7559L136.452 45.0428L135.539 45.7559Z" fill="#DFDFDF"/>
<path d="M115.25 67.0439V65.9235L117.279 67.0439H115.25Z" fill="#DFDFDF"/>
<path d="M135.539 45.7554L136.452 45.0424L142.741 48.7093V49.9316L135.539 45.7554Z" fill="#DFDFDF"/>
<path d="M126.51 72.444L125.597 73.0552L115.25 67.0455H117.279L126.51 72.444Z" fill="#DFDFDF"/>
<path d="M125.598 73.0552L126.511 72.444L125.598 73.0552Z" fill="#DFDFDF"/>
<path d="M83.5996 81.8135L84.5126 81.2023L83.5996 81.8135Z" fill="#DFDFDF"/>
<path d="M58.5464 99.2325L58.1406 99.5381L58.5464 99.2325Z" fill="#DFDFDF"/>
<path d="M58.5464 99.2307L74.6757 108.5L73.7627 109.213L58.1406 100.147V99.5363L58.5464 99.2307Z" fill="#DFDFDF"/>
<path d="M83.5996 81.8143L84.5126 81.2031L85.6284 81.8143V83.0366L83.5996 81.8143Z" fill="#DFDFDF"/>
<path d="M6.70985 135.29L5.79688 136.003L6.70985 135.29Z" fill="#DFDFDF"/>
<path d="M22.8391 144.661L21.8247 145.272L5.79688 136.003L6.70985 135.29L22.8391 144.661Z" fill="#DFDFDF"/>
<path d="M0.0117188 165.745V164.523L0.823253 165.032L1.02614 165.134V180.311L0.0117188 181.024V165.745Z" fill="#E1E1E0"/>
<path d="M29.6311 160.449L28.6167 161.162V149.142L26.5879 148.022H28.6167V140.586L29.6311 139.873V148.633L31.66 149.753H29.6311V160.449Z" fill="#E1E1E0"/>
<path d="M85.6293 114.409V113.9V100.862L86.6437 100.149V113.798C87.4553 114.002 88.1654 114.817 88.1654 115.733C88.1654 116.854 87.2524 117.771 86.1365 117.771C85.0207 117.771 84.1077 116.854 84.1077 115.733C84.1077 115.53 84.1077 115.428 84.2091 115.224L82.6875 114.307H84.7163H85.6293V114.409Z" fill="#E1E1E0"/>
<path d="M228.361 22.124V1.54854L229.376 0.93738V21.411L228.361 22.124Z" fill="#E1E1E0"/>
<path d="M115.249 80.2847V98.9249V100.147V100.86L114.234 101.573V80.9978L115.249 80.2847Z" fill="#E1E1E0"/>
<path d="M229.88 0.834961H229.475L229.88 0.529397V0.834961Z" fill="#E1E1E0"/>
<path d="M256.966 -15.6664H254.938L257.981 -17.398V0.834723V1.54775L256.966 2.26074V-15.6664Z" fill="#E1E1E0"/>
<path d="M200.868 41.2733L199.854 41.9863V21.4108L200.868 20.7997V41.2733Z" fill="#E1E1E0"/>
<path d="M171.35 41.2741L172.364 40.5611V61.1366L171.35 61.8496V41.2741Z" fill="#E1E1E0"/>
<path d="M143.755 67.0437V80.9984L142.74 81.7114V79.4705V61.1359L143.755 60.4229V67.0437Z" fill="#E1E1E0"/>
<path d="M230.388 0.224678L229.881 0.530273L230.388 0.224678Z" fill="#E1E1E0"/>
<path d="M229.881 0.529397L230.388 0.223801L231.403 0.834961H229.881V0.529397Z" fill="#E1E1E0"/>
<path d="M141.727 82.4243L140.713 81.8132H142.539L141.727 82.4243Z" fill="#E1E1E0"/>
<path d="M116.264 100.149H115.25V98.9266L116.67 99.8434L116.264 100.149Z" fill="#E1E1E0"/>
<path d="M125.598 73.0552L126.511 72.444L125.598 73.0552Z" fill="#E1E1E0"/>
<path d="M140.713 81.8135L125.598 73.0536L126.511 72.4424L142.64 81.8135H142.538H140.713Z" fill="#E1E1E0"/>
<path d="M115.757 100.455L115.25 100.149H116.264L115.757 100.455Z" fill="#E1E1E0"/>
<path d="M74.6747 108.5L73.7617 109.213L74.6747 108.5Z" fill="#E1E1E0"/>
<path d="M85.6298 114.408H84.7168C84.9197 114.204 85.3254 114.001 85.6298 113.899V114.408Z" fill="#E1E1E0"/>
<path d="M84.8189 114.408H82.79L73.7617 109.213L74.6747 108.5L84.8189 114.408Z" fill="#E1E1E0"/>
<path d="M22.8367 144.661L21.8223 145.272L22.8367 144.661Z" fill="#E1E1E0"/>
<path d="M28.6189 148.023H26.59L21.8223 145.273L22.8367 144.662L28.6189 148.023Z" fill="#E1E1E0"/>
<path d="M29.6328 149.753H31.6617L38.864 153.93L37.951 154.643L29.6328 149.753Z" fill="#E1E1E0"/>
<path d="M229.88 1.14062L229.373 0.835061H229.474H229.88V1.14062Z" fill="#E1E1E0"/>
<path d="M231.403 0.836974L246.416 9.59685L245.503 10.208L229.881 1.14254V0.836974H231.403Z" fill="#E1E1E0"/>
<path d="M-4.04688 163.402L-3.1339 162.689L0.0108018 164.522V165.745L-4.04688 163.402Z" fill="#E1E1E0"/>
<path d="M115.249 100.861V102.593V121.335L114.234 122.048V101.574L115.249 100.861Z" fill="#E2E2E1"/>
<path d="M228.869 33.6338H228.361V32.8189V22.1237L229.376 21.4107V32.2077H229.883V33.1245V33.6338H228.869Z" fill="#E2E2E1"/>
<path d="M257.98 22.0223L256.965 22.7354V18.4573V17.948H256.052H255.545V17.0312V16.0127V15.0959H256.052H256.965V14.5866V2.2617L257.98 1.54871V14.5866V18.4573V22.0223Z" fill="#E2E2E1"/>
<path d="M200.867 48.71H201.375V49.6267V50.5434H200.867V61.7479L199.853 62.4609V49.9323L199.346 49.6267L199.853 49.3211V41.9873L200.867 41.2743V48.71Z" fill="#E2E2E1"/>
<path d="M0.0132134 201.498V199.461H-2.01562L-0.493996 198.544L-2.01562 197.627H0.0132134V181.024L1.02763 180.311V197.627V200.785L0.0132134 201.498Z" fill="#E2E2E1"/>
<path d="M142.74 102.186V83.0366V81.8143V81.7124L143.755 80.9994V81.8143V83.0366V101.473L142.74 102.186Z" fill="#E2E2E1"/>
<path d="M171.35 81.8135V67.0439V65.9235V61.8491L172.364 61.1361V81.6097L171.35 82.3228V81.8135Z" fill="#E2E2E1"/>
<path d="M286.485 -18.3146V-0.285563V0.834892V2.15905L285.47 2.87207V0.834892H283.441L285.47 -0.285563V-17.6016L286.485 -18.3146Z" fill="#E2E2E1"/>
<path d="M29.6316 160.448V180.922L28.6172 181.635V161.161L29.6316 160.448Z" fill="#E2E2E1"/>
<path d="M288.414 0.834961H286.486V-0.285493L288.414 0.834961Z" fill="#E2E2E1"/>
<path d="M259.297 16.0134C259.297 16.2171 259.399 16.319 259.399 16.5227C259.399 17.4394 258.79 18.2543 257.877 18.458V14.5874C258.181 14.6892 258.587 14.893 258.79 15.0967L283.339 0.836426H285.368L259.297 16.0134Z" fill="#E2E2E1"/>
<path d="M256.052 15.0957H255.545V14.7901L256.052 15.0957Z" fill="#E2E2E1"/>
<path d="M256.964 15.0957H256.051C256.254 14.892 256.659 14.6883 256.964 14.5864V15.0957Z" fill="#E2E2E1"/>
<path d="M226.838 33.6338L228.36 32.8189V33.6338H226.838Z" fill="#E2E2E1"/>
<path d="M201.372 48.7109H200.865L201.372 48.4054V48.7109Z" fill="#E2E2E1"/>
<path d="M200.865 50.544H201.372V50.8496L200.865 50.544Z" fill="#E2E2E1"/>
<path d="M145.785 81.8143L143.756 83.0366V81.8143H145.785Z" fill="#E2E2E1"/>
<path d="M171.347 65.9235V67.0439H169.217L171.347 65.9235Z" fill="#E2E2E1"/>
<path d="M143.756 81.8135L169.218 67.0439H171.348L145.785 81.8135H143.756Z" fill="#E2E2E1"/>
<path d="M116.266 100.149L116.671 99.8434L116.266 100.149Z" fill="#E2E2E1"/>
<path d="M142.54 81.8132L141.729 82.4243L142.54 81.8132Z" fill="#E2E2E1"/>
<path d="M141.729 82.4255L142.54 81.8143H142.743V83.0366L141.729 82.4255Z" fill="#E2E2E1"/>
<path d="M116.266 100.149L116.671 99.8434L117.28 100.149H116.266Z" fill="#E2E2E1"/>
<path d="M115.758 100.455L116.265 100.149L115.758 100.455Z" fill="#E2E2E1"/>
<path d="M116.265 100.149L115.758 100.455L116.265 100.149Z" fill="#E2E2E1"/>
<path d="M115.758 100.453L116.265 100.147H117.279L132.8 109.111L131.887 109.824L115.758 100.453Z" fill="#E2E2E1"/>
<path d="M37.9531 154.643L38.8661 153.93L37.9531 154.643Z" fill="#E2E2E1"/>
<path d="M37.9531 154.644L38.8661 153.931L54.9954 163.302L53.9809 163.913L37.9531 154.644Z" fill="#E2E2E1"/>
<path d="M53.9805 163.913L54.9949 163.302L53.9805 163.913Z" fill="#E2E2E1"/>
<path d="M-27.4785 215.351V214.231L-2.01659 199.461H0.0122452L-27.4785 215.351Z" fill="#E2E2E1"/>
<path d="M246.417 9.59685L245.504 10.208L246.417 9.59685Z" fill="#E2E2E1"/>
<path d="M246.417 9.59685L245.504 10.208L246.417 9.59685Z" fill="#E2E2E1"/>
<path d="M255.547 16.0127V17.0312C255.547 16.8275 255.445 16.7257 255.445 16.522C255.445 16.3182 255.445 16.2164 255.547 16.0127Z" fill="#E2E2E1"/>
<path d="M229.88 31.9024V32.208H229.373L229.88 31.9024Z" fill="#E2E2E1"/>
<path d="M255.543 17.0305V17.9473H254.021L255.543 17.0305Z" fill="#E2E2E1"/>
<path d="M255.543 15.096V16.0127L254.021 15.096H255.543Z" fill="#E2E2E1"/>
<path d="M245.504 10.2065L246.417 9.59533L255.547 14.7901V15.0957H254.025L245.504 10.2065Z" fill="#E2E2E1"/>
<path d="M201.373 50.542V49.6253L202.895 50.542H201.373Z" fill="#E2E2E1"/>
<path d="M201.373 49.626V48.7093H202.895L201.373 49.626Z" fill="#E2E2E1"/>
<path d="M229.88 34.2451L228.865 33.634H229.88V34.2451Z" fill="#E2E2E1"/>
<path d="M228.361 33.9395V33.6339H228.869L228.361 33.9395Z" fill="#E2E2E1"/>
<path d="M226.835 33.6358H228.357V33.9414L202.895 48.7109H201.373V48.4054L226.835 33.6358Z" fill="#E2E2E1"/>
<path d="M210.604 55.0246L209.691 55.6357L201.373 50.8484V50.5428H202.895L210.604 55.0246Z" fill="#E2E2E1"/>
<path d="M255.545 17.9493H256.052L255.545 18.2549V17.9493Z" fill="#E2E2E1"/>
<path d="M231.403 32.2082L229.881 33.125V32.2082H231.403Z" fill="#E2E2E1"/>
<path d="M229.881 33.1245L230.895 33.6338H229.881V33.1245Z" fill="#E2E2E1"/>
<path d="M256.964 17.9487V18.458C256.659 18.3561 256.254 18.1524 256.051 17.9487H256.964Z" fill="#E2E2E1"/>
<path d="M231.403 32.208H229.881V31.9024L254.024 17.9478H255.546V18.2534L231.403 32.208Z" fill="#E2E2E1"/>
<path d="M229.881 34.2461V33.6349H230.895L236.576 36.8944L235.663 37.6074L229.881 34.2461Z" fill="#E2E2E1"/>
<path d="M235.662 37.6074L236.575 36.8944L235.662 37.6074Z" fill="#E2E2E1"/>
<path d="M287.501 1.44629L286.486 0.835129H288.414L287.501 1.44629Z" fill="#E2E2E1"/>
<path d="M287.599 1.44629H287.498L288.411 0.835129L287.599 1.44629Z" fill="#E2E2E1"/>
<path d="M0.0126534 197.628H-2.01618L-13.9863 190.702L-13.0734 190.09L0.0126534 197.628Z" fill="#E2E2E1"/>
<path d="M0.0117188 201.499L1.02614 200.786V221.259L0.0117188 221.972V201.499Z" fill="#E3E3E3"/>
<path d="M115.249 121.335V132.031V133.253L114.437 132.846L114.234 132.642V122.048L115.249 121.335Z" fill="#E3E3E3"/>
<path d="M85.6284 149.753H83.5996L86.6429 148.022V161.773L85.6284 162.384V149.753Z" fill="#E3E3E3"/>
<path d="M200.868 61.7481V82.3236L199.854 83.0366V62.4611L200.868 61.7481Z" fill="#E3E3E3"/>
<path d="M171.35 99.8423V98.9255V82.3225L172.364 81.6095V98.9255L173.886 99.8423H171.857H171.35Z" fill="#E3E3E3"/>
<path d="M29.6316 180.922V181.736V182.857L28.8201 182.45L28.6172 182.246V181.635L29.6316 180.922Z" fill="#E3E3E3"/>
<path d="M58.1394 181.634L57.125 182.246V165.744V164.522L57.6322 164.828L58.1394 164.522V165.744V181.634Z" fill="#E3E3E3"/>
<path d="M314.989 2.87389L313.975 3.58691V-16.2756V-16.9886L314.38 -17.1923L317.018 -15.6644H314.989V2.87389Z" fill="#E3E3E3"/>
<path d="M143.755 116.649V122.048L142.74 122.761V116.14V114.918V112.575V102.185L143.755 101.472V114.918H144.262V115.834V116.649H143.755Z" fill="#E3E3E3"/>
<path d="M257.979 42.5975L256.965 43.3105V22.735L257.979 22.022V42.5975Z" fill="#E3E3E3"/>
<path d="M286.485 22.7352L285.471 23.4482V2.87273L286.485 2.1597V3.28016V22.7352Z" fill="#E3E3E3"/>
<path d="M171.857 99.8431H173.886L174.799 100.454L173.886 101.065L171.857 99.8431Z" fill="#E3E3E3"/>
<path d="M144.264 115.834L145.785 116.649H144.264V115.834Z" fill="#E3E3E3"/>
<path d="M145.785 114.919L144.264 115.835V114.919H145.785Z" fill="#E3E3E3"/>
<path d="M171.35 99.8434H171.857L171.35 100.149V99.8434Z" fill="#E3E3E3"/>
<path d="M171.35 98.9255V99.8423H169.828L171.35 98.9255Z" fill="#E3E3E3"/>
<path d="M144.263 114.612V114.917H143.756L144.263 114.612Z" fill="#E3E3E3"/>
<path d="M145.785 114.917H144.264V114.612L169.827 99.8424H171.349V100.148L145.785 114.917Z" fill="#E3E3E3"/>
<path d="M131.887 109.824L132.8 109.111L131.887 109.824Z" fill="#E3E3E3"/>
<path d="M131.887 109.824L132.8 109.111L131.887 109.824Z" fill="#E3E3E3"/>
<path d="M122.96 136.512L121.945 137.123L115.25 133.252V132.03L122.96 136.512Z" fill="#E3E3E3"/>
<path d="M142.235 115.834L140.713 114.917H142.742V116.14L142.235 115.834Z" fill="#E3E3E3"/>
<path d="M131.887 109.825L132.8 109.112L142.741 114.917H140.712L131.887 109.825Z" fill="#E3E3E3"/>
<path d="M58.1406 165.745V164.522L83.6025 149.753H85.6314L58.1406 165.745Z" fill="#E3E3E3"/>
<path d="M45.052 190.701L44.139 191.312L29.6328 182.858V181.738L45.052 190.701Z" fill="#E3E3E3"/>
<path d="M53.9805 163.911L54.9949 163.3L57.1252 164.522V165.745L53.9805 163.911Z" fill="#E3E3E3"/>
<path d="M144.263 116.956L143.756 116.65H144.263V116.956Z" fill="#E3E3E3"/>
<path d="M144.264 116.955V116.65H145.785L148.829 118.483L147.916 119.094L144.264 116.955Z" fill="#E3E3E3"/>
<path d="M209.693 55.6357L210.606 55.0246L209.693 55.6357Z" fill="#E3E3E3"/>
<path d="M209.693 55.6357L210.606 55.0246L209.693 55.6357Z" fill="#E3E3E3"/>
<path d="M209.693 55.6361L210.606 55.025L213.852 56.8584L226.736 64.2941L225.721 64.9053L209.693 55.6361Z" fill="#E3E3E3"/>
<path d="M235.662 37.6074L236.575 36.8944L235.662 37.6074Z" fill="#E3E3E3"/>
<path d="M243.879 42.3942L235.662 37.6068L236.575 36.8938L252.603 46.2648L251.69 46.876L243.879 42.3942Z" fill="#E3E3E3"/>
<path d="M251.689 46.876L252.602 46.2648L251.689 46.876Z" fill="#E3E3E3"/>
<path d="M288.413 0.835129L287.602 1.44629L288.413 0.835129Z" fill="#E3E3E3"/>
<path d="M287.498 1.44736H287.599L288.411 0.836198H288.512L304.54 10.2072L303.627 10.8184L287.498 1.44736Z" fill="#E3E3E3"/>
<path d="M303.629 10.8184L304.542 10.2072L303.629 10.8184Z" fill="#E3E3E3"/>
<path d="M29.6316 221.971L28.6172 222.684V214.841L29.6316 214.23V215.35V221.971Z" fill="#E4E4E4"/>
<path d="M256.964 50.5425H256.457V49.6258V48.7091H256.964V43.3106L257.979 42.5975V48.7091H260.007L257.979 49.9314V63.0712L256.964 63.7842V50.5425Z" fill="#E4E4E4"/>
<path d="M142.74 122.761L143.755 122.048V133.253V142.522L142.74 143.235V122.761Z" fill="#E4E4E4"/>
<path d="M57.1245 182.246L58.139 181.635V182.857V197.627V198.849V202.109L57.1245 202.822V199.46H55.0957L56.6173 198.544L55.0957 197.627H57.1245V182.246Z" fill="#E4E4E4"/>
<path d="M313.975 16.8276V15.6053V13.2625V3.58595L314.989 2.87293V16.2165V17.4387V19.7815V23.3466L313.975 24.0596V16.8276Z" fill="#E4E4E4"/>
<path d="M228.361 66.4338V65.6189H228.869H229.376V66.4338V82.935L228.361 83.6479V66.4338Z" fill="#E4E4E4"/>
<path d="M85.6289 182.858V181.738V162.384L86.6433 161.773V181.738L87.1505 181.941L85.6289 182.96V182.858Z" fill="#E4E4E4"/>
<path d="M285.471 23.448L286.485 22.735V32.819V33.9395L285.978 33.6339L285.471 33.9395V32.819V23.448Z" fill="#E4E4E4"/>
<path d="M200.868 82.3238V82.4257V83.6479L200.056 83.1387L199.854 83.0368L200.868 82.3238Z" fill="#E4E4E4"/>
<path d="M0.0117188 232.258V231.342V221.971L1.02614 221.258V231.342L2.54777 232.258H0.518928H0.0117188Z" fill="#E4E4E4"/>
<path d="M342.582 0.325662V-0.896657L343.292 -0.489197L343.596 -0.285498V3.4833L342.582 4.19629V0.325662Z" fill="#E4E4E4"/>
<path d="M329.496 -7.21138L330.511 -7.92441L342.582 -0.896148V0.326172L329.496 -7.21138Z" fill="#E4E4E4"/>
<path d="M320.57 19.4748L319.657 20.0859L314.99 17.4376V16.2153L320.57 19.4748Z" fill="#E4E4E4"/>
<path d="M285.471 32.8209V33.9414L260.009 48.7109H257.98L285.471 32.8209Z" fill="#E4E4E4"/>
<path d="M216.792 91.6931L215.879 92.3042L200.865 83.6462V82.4239L216.792 91.6931Z" fill="#E4E4E4"/>
<path d="M228.36 66.4326L226.838 65.6178H228.36V66.4326Z" fill="#E4E4E4"/>
<path d="M173.885 101.065L174.798 100.454L173.885 101.065Z" fill="#E4E4E4"/>
<path d="M173.885 101.065L174.798 100.454L190.927 109.723L190.014 110.334L173.885 101.065Z" fill="#E4E4E4"/>
<path d="M122.96 136.512L121.945 137.123L122.96 136.512Z" fill="#E4E4E4"/>
<path d="M138.988 145.882L138.075 146.494L121.945 137.123L122.96 136.511L138.988 145.882Z" fill="#E4E4E4"/>
<path d="M85.6284 181.736V182.857H83.5996L85.6284 181.736Z" fill="#E4E4E4"/>
<path d="M45.0556 190.701L44.1426 191.312L45.0556 190.701Z" fill="#E4E4E4"/>
<path d="M57.1271 197.628H55.0983L44.1426 191.313L45.0556 190.702L57.1271 197.628Z" fill="#E4E4E4"/>
<path d="M29.6328 215.351V214.231L55.0947 199.461H57.1236L29.6328 215.351Z" fill="#E4E4E4"/>
<path d="M0.0117188 232.258H0.518928L0.0117188 232.462V232.258Z" fill="#E4E4E4"/>
<path d="M0.517578 232.26H2.54642L9.24158 236.131L8.3286 236.742L0.517578 232.26Z" fill="#E4E4E4"/>
<path d="M0.00991011 231.342V232.258H-1.51172L0.00991011 231.342Z" fill="#E4E4E4"/>
<path d="M-25.4491 247.335H-26.9707V247.029L-1.50878 232.26H0.0128441V232.464L-25.4491 247.335Z" fill="#E4E4E4"/>
<path d="M58.1406 198.85V197.628H60.1695L58.1406 198.85Z" fill="#E4E4E4"/>
<path d="M60.1695 197.628H58.1406L71.9367 189.683L83.6025 182.858H85.6314L71.9367 190.905L60.1695 197.628Z" fill="#E4E4E4"/>
<path d="M147.916 119.094L148.829 118.483L147.916 119.094Z" fill="#E4E4E4"/>
<path d="M147.916 119.094L148.829 118.483L147.916 119.094Z" fill="#E4E4E4"/>
<path d="M147.916 119.094L148.829 118.483L164.958 127.752L164.045 128.465L147.916 119.094Z" fill="#E4E4E4"/>
<path d="M225.721 64.9053L226.735 64.2941L225.721 64.9053Z" fill="#E4E4E4"/>
<path d="M225.721 64.9053L226.735 64.2941L225.721 64.9053Z" fill="#E4E4E4"/>
<path d="M256.459 49.6253V50.542H254.938L256.459 49.6253Z" fill="#E4E4E4"/>
<path d="M256.459 48.7093V49.626L254.938 48.7093H256.459Z" fill="#E4E4E4"/>
<path d="M228.865 65.6182L229.372 65.3126V65.6182H228.865Z" fill="#E4E4E4"/>
<path d="M228.361 65.3126L228.869 65.6182H228.361V65.3126Z" fill="#E4E4E4"/>
<path d="M226.837 65.6182L225.721 64.9051L226.735 64.294L228.358 65.3126V65.6182H226.837Z" fill="#E4E4E4"/>
<path d="M256.457 50.544H256.964L256.457 50.8496V50.544Z" fill="#E4E4E4"/>
<path d="M229.373 66.4326V65.6178H230.895L229.373 66.4326Z" fill="#E4E4E4"/>
<path d="M230.895 65.6182H229.373V65.3126L254.936 50.543H256.458V50.8486L230.895 65.6182Z" fill="#E4E4E4"/>
<path d="M251.689 46.876L252.602 46.2648L251.689 46.876Z" fill="#E4E4E4"/>
<path d="M256.964 48.7109H256.457V48.4054L256.964 48.7109Z" fill="#E4E4E4"/>
<path d="M251.689 46.8775L252.602 46.2663L256.457 48.4054V48.7109H254.936L251.689 46.8775Z" fill="#E4E4E4"/>
<path d="M313.974 15.6048V16.8271L311.945 15.6048H313.974Z" fill="#E4E4E4"/>
<path d="M294.703 37.5047L293.79 38.2178L286.486 33.9397V32.8192L294.703 37.5047Z" fill="#E4E4E4"/>
<path d="M303.629 10.8184L304.542 10.2072L303.629 10.8184Z" fill="#E4E4E4"/>
<path d="M303.629 10.8181L304.542 10.207L313.976 15.6055H311.947L303.629 10.8181Z" fill="#E4E4E4"/>
<path d="M256.965 84.2573V84.0536V80.6923V63.6818L257.979 62.9688V80.7941C258.791 80.9978 259.399 81.7109 259.501 82.5257L256.965 84.2573Z" fill="#E5E5E5"/>
<path d="M58.1394 215.961V222.582L57.125 223.295V202.821L58.1394 202.108V215.961Z" fill="#E5E5E5"/>
<path d="M115.249 182.857L114.234 183.57V165.133L115.249 164.522V165.745V182.857Z" fill="#E5E5E5"/>
<path d="M313.975 44.6338V24.0583L314.989 23.3453V43.9208L313.975 44.6338Z" fill="#E5E5E5"/>
<path d="M171.349 133.253H170.842V132.336V131.725H171.856H173.885L172.363 132.642V143.133L171.349 143.846V133.253Z" fill="#E5E5E5"/>
<path d="M142.739 147.512V147.003V143.234L143.753 142.521V147.003V147.512V150.873V163.097L142.739 163.81V150.873V150.364H141.826H139.797L141.319 149.447C141.319 149.244 141.217 149.142 141.217 148.938C141.217 148.734 141.217 148.633 141.319 148.429L139.797 147.512H141.826H142.739Z" fill="#E5E5E5"/>
<path d="M86.6433 202.72L85.6289 203.433V197.627V182.959L87.1505 181.941L88.6722 182.858H86.6433V202.72Z" fill="#E5E5E5"/>
<path d="M342.582 4.19792L343.596 3.48493V17.9489V24.0604L342.582 24.7734V4.19792Z" fill="#E5E5E5"/>
<path d="M228.359 83.6467L229.373 82.9337V98.4162H229.881V99.2311V99.8423H228.866H226.837L227.852 99.2311L226.33 98.4162H228.359V83.6467Z" fill="#E5E5E5"/>
<path d="M29.6316 221.972V242.445L28.6172 243.158V222.685L29.6316 221.972Z" fill="#E5E5E5"/>
<path d="M201.375 116.956L200.36 116.446L199.346 116.956V115.835V114.613L200.36 115.224L201.375 114.613V115.835V116.956Z" fill="#E5E5E5"/>
<path d="M320.567 19.4748L319.654 20.0859L320.567 19.4748Z" fill="#E5E5E5"/>
<path d="M336.697 28.8468L335.784 29.458L319.654 20.087L320.567 19.4758L336.697 28.8468Z" fill="#E5E5E5"/>
<path d="M216.794 91.6931L215.881 92.3042L216.794 91.6931Z" fill="#E5E5E5"/>
<path d="M228.358 98.4165H226.329L215.881 92.305L216.794 91.6938L228.358 98.4165Z" fill="#E5E5E5"/>
<path d="M229.372 100.149L228.865 99.8435H229.88V100.455L229.372 100.149Z" fill="#E5E5E5"/>
<path d="M228.357 100.149L201.373 115.835V114.613L226.835 99.8436H228.864L228.357 100.149Z" fill="#E5E5E5"/>
<path d="M206.952 119.094L206.039 119.706L201.373 116.955V115.835L206.952 119.094Z" fill="#E5E5E5"/>
<path d="M190.016 110.334L190.929 109.723L190.016 110.334Z" fill="#E5E5E5"/>
<path d="M190.016 110.335L190.929 109.724L199.348 114.613V115.835L190.016 110.335Z" fill="#E5E5E5"/>
<path d="M172.365 131.522L199.348 115.836V116.956L173.886 131.726H171.857L172.365 131.522Z" fill="#E5E5E5"/>
<path d="M171.856 131.726H170.842V131.216L171.856 131.726Z" fill="#E5E5E5"/>
<path d="M138.989 145.882L138.076 146.494L138.989 145.882Z" fill="#E5E5E5"/>
<path d="M141.83 147.512H139.801L138.076 146.494L138.989 145.882L141.83 147.512Z" fill="#E5E5E5"/>
<path d="M142.741 147.512H141.828C142.031 147.308 142.437 147.105 142.741 147.003V147.512Z" fill="#E5E5E5"/>
<path d="M115.25 165.745V164.522L139.799 150.262H141.828L115.25 165.745Z" fill="#E5E5E5"/>
<path d="M142.741 150.263V150.772C142.437 150.671 142.031 150.467 141.828 150.263H142.741Z" fill="#E5E5E5"/>
<path d="M86.6426 182.858H88.6714L103.178 191.312L102.265 191.923L86.6426 182.858Z" fill="#E5E5E5"/>
<path d="M8.33008 236.742L9.24306 236.131L8.33008 236.742Z" fill="#E5E5E5"/>
<path d="M8.33008 236.741L9.24306 236.13L25.3723 245.399L24.4593 246.112L8.33008 236.741Z" fill="#E5E5E5"/>
<path d="M164.045 128.465L164.958 127.752L164.045 128.465Z" fill="#E5E5E5"/>
<path d="M170.842 132.336V133.253H169.32L170.842 132.336Z" fill="#E5E5E5"/>
<path d="M170.843 131.725V132.336L169.828 131.725H170.843Z" fill="#E5E5E5"/>
<path d="M164.045 128.465L164.958 127.752L164.045 128.465Z" fill="#E5E5E5"/>
<path d="M164.045 128.466L164.958 127.753L170.842 131.216V131.726H169.827L164.045 128.466Z" fill="#E5E5E5"/>
<path d="M146.698 147.513L145.176 148.43C145.176 148.634 145.277 148.735 145.277 148.939C145.277 149.856 144.669 150.671 143.756 150.875V147.513H144.669H146.698Z" fill="#E5E5E5"/>
<path d="M170.842 133.252H171.349L170.842 133.557V133.252Z" fill="#E5E5E5"/>
<path d="M146.699 147.512H144.67L169.32 133.252H170.842V133.558L146.699 147.512Z" fill="#E5E5E5"/>
<path d="M143.756 147.512V147.003C144.06 147.105 144.466 147.308 144.669 147.512H143.756Z" fill="#E5E5E5"/>
<path d="M229.881 99.8423V99.2311L230.895 99.8423H229.881Z" fill="#E5E5E5"/>
<path d="M229.881 99.231V98.4161H231.403L229.881 99.231Z" fill="#E5E5E5"/>
<path d="M232.924 100.964L232.011 101.677L229.881 100.454V99.8433H230.895L232.924 100.964Z" fill="#E5E5E5"/>
<path d="M232.01 101.677L232.923 100.964L232.01 101.677Z" fill="#E5E5E5"/>
<path d="M229.88 98.4165H229.373L229.88 98.1109V98.4165Z" fill="#E5E5E5"/>
<path d="M254.021 84.1558L255.543 83.239C255.543 83.0353 255.442 82.9335 255.442 82.7297C255.442 81.813 256.05 80.9981 256.963 80.7944V84.1558H256.05H254.021Z" fill="#E5E5E5"/>
<path d="M254.024 84.1563H256.053L231.403 98.4165H229.881V98.1109L254.024 84.1563Z" fill="#E5E5E5"/>
<path d="M256.051 84.157H256.964V84.3607L256.659 84.5645C256.355 84.4626 256.152 84.2589 256.051 84.157Z" fill="#E5E5E5"/>
<path d="M256.662 84.5645L256.966 84.2589L256.662 84.5645Z" fill="#E5E5E5"/>
<path d="M256.662 84.5645L256.966 84.2589L256.662 84.5645Z" fill="#E5E5E5"/>
<path d="M294.704 37.5047L293.791 38.2178L294.704 37.5047Z" fill="#E5E5E5"/>
<path d="M310.732 46.8762L309.819 47.4873L293.791 38.2182L294.704 37.5051L310.732 46.8762Z" fill="#E5E5E5"/>
<path d="M310.729 46.8762L309.816 47.4873L310.729 46.8762Z" fill="#E5E5E5"/>
<path d="M57.125 223.296L58.1394 222.583V230.731V231.954V243.158L57.125 243.871V232.463V231.342V223.296Z" fill="#E6E6E6"/>
<path d="M343.594 44.5321L342.58 45.2451V33.3276L340.551 32.2072H342.58V24.7715L343.594 24.0584V32.2072V33.3276V44.5321Z" fill="#E6E6E6"/>
<path d="M142.74 163.709L143.755 162.996V181.127H144.262V182.043V182.858H143.755V183.571L142.74 184.284V182.858V181.738V163.709Z" fill="#E6E6E6"/>
<path d="M0.0117188 265.058V264.141H0.518928H1.02614V265.058V282.883L0.0117188 283.596V265.058Z" fill="#E6E6E6"/>
<path d="M257.979 84.1561V84.6654V104.12L256.965 104.833V98.4164V84.6654V84.3598L259.501 82.6282V82.7301C259.501 82.9338 259.501 83.0357 259.399 83.2394L260.921 84.1561H258.892H257.979Z" fill="#E6E6E6"/>
<path d="M29.6338 242.446V246.214V246.724H30.5468H32.5756L31.054 247.64C31.054 247.844 31.1555 247.946 31.1555 248.15C31.1555 249.067 30.5468 249.881 29.6338 250.085V262.919L28.6194 263.632V250.085V249.576H27.7064H27.1992V248.659V247.64V246.418L27.7064 246.724C27.9093 246.52 28.3151 246.316 28.6194 246.214V243.159L29.6338 242.446Z" fill="#E6E6E6"/>
<path d="M313.974 44.6342L314.989 43.9212V50.542L311.945 48.7085H313.974V44.6342Z" fill="#E6E6E6"/>
<path d="M372.099 18.4574V24.6708L371.084 25.3838V18.4574V17.9481H370.171H368.143L369.664 17.0313C369.664 16.8276 369.563 16.7258 369.563 16.522C369.563 15.4016 370.476 14.4849 371.592 14.4849C372.707 14.4849 373.62 15.4016 373.62 16.522C373.62 17.4388 372.91 18.2536 372.099 18.4574Z" fill="#E6E6E6"/>
<path d="M115.249 182.859V196.61V197.119H116.162H118.191L116.669 198.036C116.669 198.24 116.77 198.342 116.77 198.545C116.77 199.462 116.162 200.277 115.249 200.481V203.434L114.234 204.147V200.481V196.61V196.508V183.674L115.249 182.859Z" fill="#E6E6E6"/>
<path d="M171.35 164.421V143.845L172.364 143.132V163.708L171.35 164.421Z" fill="#E6E6E6"/>
<path d="M86.6433 214.841V215.961V218.406V223.295L85.6289 224.008V215.961V214.841V203.432L86.6433 202.719V214.841Z" fill="#E6E6E6"/>
<path d="M371.087 17.9487V18.458C370.782 18.3561 370.478 18.1524 370.174 17.9487H371.087Z" fill="#E6E6E6"/>
<path d="M343.598 33.3281V32.2077L368.147 17.9474H370.175L343.598 33.3281Z" fill="#E6E6E6"/>
<path d="M336.698 28.8468L335.785 29.458L336.698 28.8468Z" fill="#E6E6E6"/>
<path d="M342.582 32.208H340.553L335.785 29.4578L336.698 28.8467L342.582 32.208Z" fill="#E6E6E6"/>
<path d="M206.954 119.094L206.041 119.706L206.954 119.094Z" fill="#E6E6E6"/>
<path d="M223.083 128.363L222.17 129.076L206.041 119.705L206.954 119.094L223.083 128.363Z" fill="#E6E6E6"/>
<path d="M115.25 197.118V196.608C115.554 196.71 115.96 196.914 116.163 197.118H115.25Z" fill="#E6E6E6"/>
<path d="M142.742 181.737V182.857L118.193 197.118H116.164L142.742 181.737Z" fill="#E6E6E6"/>
<path d="M102.268 191.923L103.181 191.312L102.268 191.923Z" fill="#E6E6E6"/>
<path d="M86.6426 214.84L88.6714 215.961H86.6426V214.84Z" fill="#E6E6E6"/>
<path d="M112.716 198.544C112.716 198.341 112.716 198.239 112.818 198.035L102.268 191.924L103.181 191.312L113.325 197.22C113.528 197.016 113.933 196.813 114.238 196.711V200.582C113.325 200.276 112.716 199.461 112.716 198.544Z" fill="#E6E6E6"/>
<path d="M29.6328 246.724V246.215C29.9371 246.317 30.3429 246.52 30.5458 246.724H29.6328Z" fill="#E6E6E6"/>
<path d="M57.1266 231.343V232.464L32.5777 246.724H30.5488L57.1266 231.343Z" fill="#E6E6E6"/>
<path d="M24.459 246.112L25.372 245.399L24.459 246.112Z" fill="#E6E6E6"/>
<path d="M24.459 246.111L25.372 245.398L27.1979 246.519V247.639L24.459 246.111Z" fill="#E6E6E6"/>
<path d="M27.1971 247.641V248.659C27.1971 248.455 27.0957 248.354 27.0957 248.15C27.0957 247.946 27.0957 247.844 27.1971 247.641Z" fill="#E6E6E6"/>
<path d="M27.1974 248.659V249.576H25.6758L27.1974 248.659Z" fill="#E6E6E6"/>
<path d="M1.02479 263.836V264.142H0.517578L1.02479 263.836Z" fill="#E6E6E6"/>
<path d="M0.0117188 263.836L0.518928 264.142H0.0117188V263.836Z" fill="#E6E6E6"/>
<path d="M0.00991011 265.057L-1.51172 264.14H0.00991011V265.057Z" fill="#E6E6E6"/>
<path d="M-1.51172 264.142L-0.598742 263.429L0.00991011 263.836V264.142H-1.51172Z" fill="#E6E6E6"/>
<path d="M2.54702 264.14L1.02539 265.057V264.14H2.54702Z" fill="#E6E6E6"/>
<path d="M28.6181 249.576V250.085C28.3137 249.983 27.908 249.779 27.7051 249.576H28.6181Z" fill="#E6E6E6"/>
<path d="M27.1992 249.576H27.7064L27.1992 249.881V249.576Z" fill="#E6E6E6"/>
<path d="M2.54702 264.142H1.02539V263.836L25.6758 249.576H27.1974V249.881L2.54702 264.142Z" fill="#E6E6E6"/>
<path d="M58.1406 231.954V230.732H60.1695L58.1406 231.954Z" fill="#E6E6E6"/>
<path d="M85.6284 214.84V215.961H83.5996L85.6284 214.84Z" fill="#E6E6E6"/>
<path d="M83.6025 215.961H85.6314L71.9367 223.906L60.1695 230.731H58.1406L71.9367 222.786L83.6025 215.961Z" fill="#E6E6E6"/>
<path d="M86.6426 215.962H88.6714L93.3377 218.61L92.4248 219.323L86.6426 215.962Z" fill="#E6E6E6"/>
<path d="M92.4258 219.323L93.3388 218.61L92.4258 219.323Z" fill="#E6E6E6"/>
<path d="M92.4258 219.323L93.3388 218.61L92.4258 219.323Z" fill="#E6E6E6"/>
<path d="M143.756 182.858H144.263V183.164L143.756 182.858Z" fill="#E6E6E6"/>
<path d="M144.264 182.042V181.125H145.785L144.264 182.042Z" fill="#E6E6E6"/>
<path d="M144.771 182.857H144.264V182.042L145.177 182.551L144.771 182.857Z" fill="#E6E6E6"/>
<path d="M144.264 183.164V182.858H144.771L144.264 183.164Z" fill="#E6E6E6"/>
<path d="M144.263 181.125H143.756L144.263 180.82V181.125Z" fill="#E6E6E6"/>
<path d="M164.755 168.902L159.48 172.569L154.611 176.033L145.785 181.125H144.264V180.82L164.755 168.902Z" fill="#E6E6E6"/>
<path d="M164.753 168.904L159.479 172.571L164.753 168.904Z" fill="#E6E6E6"/>
<path d="M258.891 84.1557H260.919L274.918 92.3044L274.005 92.9155L258.891 84.1557Z" fill="#E6E6E6"/>
<path d="M257.98 84.1557H258.893C258.691 84.3595 258.285 84.5632 257.98 84.665V84.1557Z" fill="#E6E6E6"/>
<path d="M274.008 92.9155L274.921 92.3044L274.008 92.9155Z" fill="#E6E6E6"/>
<path d="M232.01 101.677L232.923 100.964L232.01 101.677Z" fill="#E6E6E6"/>
<path d="M232.01 101.677L232.923 100.964L248.951 110.335L248.038 110.946L232.01 101.677Z" fill="#E6E6E6"/>
<path d="M248.039 110.946L248.952 110.335L248.039 110.946Z" fill="#E6E6E6"/>
<path d="M256.966 84.2589V84.5645C256.865 84.5645 256.764 84.4626 256.662 84.4626L256.966 84.2589Z" fill="#E6E6E6"/>
<path d="M313.976 48.7109H311.947L309.816 47.4886L310.729 46.8775L313.976 48.7109Z" fill="#E6E6E6"/>
<path d="M230.896 131.724L228.867 132.946L226.838 131.724H228.867H230.896Z" fill="#E7E7E7"/>
<path d="M28.6172 263.734L29.6316 263.021V281.559L28.6172 282.17V280.948V263.734Z" fill="#E7E7E7"/>
<path d="M58.1394 243.159V263.632L57.125 264.345V246.724V243.872L58.1394 243.159Z" fill="#E7E7E7"/>
<path d="M171.35 166.052V165.135V164.422L172.364 163.709V165.135L173.886 166.052H171.857H171.35Z" fill="#E7E7E7"/>
<path d="M0.0132132 283.597L1.02763 282.884V296.94H3.05647L1.53484 297.857L2.54926 298.366H0.520423H-1.50842L-0.493996 297.857L-2.01562 296.94H0.0132132V283.597Z" fill="#E7E7E7"/>
<path d="M143.755 204.045L142.74 204.758V197.119V184.285L143.755 183.572V204.045Z" fill="#E7E7E7"/>
<path d="M85.6289 224.008L86.6433 223.295V243.769L85.6289 244.482V230.731V224.008Z" fill="#E7E7E7"/>
<path d="M371.086 25.3838L372.1 24.6707V45.1444L371.086 45.8574V25.3838Z" fill="#E7E7E7"/>
<path d="M285.471 105.445V99.537V98.4165L286.181 98.824L286.485 98.9258V104.732L285.471 105.445Z" fill="#E7E7E7"/>
<path d="M114.234 204.145L115.249 203.432V223.906L114.234 224.619V204.145Z" fill="#E7E7E7"/>
<path d="M343.596 44.5331V65.0067L342.582 65.7197V45.2461L343.596 44.5331Z" fill="#E7E7E7"/>
<path d="M256.457 114.918H256.964V104.834L257.979 104.121V115.53V116.65L257.471 116.446L256.457 116.956V115.835V114.918Z" fill="#E7E7E7"/>
<path d="M223.085 128.363L222.172 129.076L223.085 128.363Z" fill="#E7E7E7"/>
<path d="M256.457 115.836V116.956L230.894 131.726H228.865L256.457 115.836Z" fill="#E7E7E7"/>
<path d="M256.459 114.919V115.835L254.938 114.919H256.459Z" fill="#E7E7E7"/>
<path d="M228.867 131.726H226.838L222.172 129.077L223.085 128.364L228.867 131.726Z" fill="#E7E7E7"/>
<path d="M0.0118847 296.94H-2.01695L-11.3496 291.542L-10.4366 290.829L0.0118847 296.94Z" fill="#E7E7E7"/>
<path d="M1.02479 298.671L0.517578 298.365H2.54642L5.58967 300.199L4.6767 300.81L1.02479 298.671Z" fill="#E7E7E7"/>
<path d="M0.0128479 298.672L-26.9707 314.358V313.136L-1.50878 298.366H0.520058L0.0128479 298.672Z" fill="#E7E7E7"/>
<path d="M28.6176 280.949V282.171L3.05423 296.94H1.02539L28.6176 280.949Z" fill="#E7E7E7"/>
<path d="M105.207 226.657L92.4258 219.323L93.3388 218.61L102.469 223.907L109.367 227.981L108.454 228.592L105.207 226.657Z" fill="#E7E7E7"/>
<path d="M144.77 182.857L145.175 182.551L144.77 182.857Z" fill="#E7E7E7"/>
<path d="M144.264 183.164L144.771 182.858L144.264 183.164Z" fill="#E7E7E7"/>
<path d="M144.771 182.858L144.264 183.164L144.771 182.858Z" fill="#E7E7E7"/>
<path d="M171.857 166.05H173.886L187.277 173.792L186.364 174.403L171.857 166.05Z" fill="#E7E7E7"/>
<path d="M171.35 166.05H171.857L171.35 166.356V166.05Z" fill="#E7E7E7"/>
<path d="M145.175 182.551L145.784 182.857H144.77L145.175 182.551Z" fill="#E7E7E7"/>
<path d="M144.264 183.164L144.771 182.858H145.785L157.755 189.784L161.306 191.822L160.393 192.535L144.264 183.164Z" fill="#E7E7E7"/>
<path d="M154.611 176.034L159.481 172.57L154.611 176.034Z" fill="#E7E7E7"/>
<path d="M154.611 176.034L159.481 172.57L164.756 168.904L154.611 176.034Z" fill="#E7E7E7"/>
<path d="M171.35 165.135V166.052H169.828L171.35 165.135Z" fill="#E7E7E7"/>
<path d="M154.611 176.034L164.756 168.904L169.828 166.052H171.349V166.357L154.611 176.034Z" fill="#E7E7E7"/>
<path d="M265.081 119.705L264.168 120.316L257.98 116.649V115.529L265.081 119.705Z" fill="#E7E7E7"/>
<path d="M274.008 92.9173L274.921 92.3061L285.471 98.4176V99.5381L274.008 92.9173Z" fill="#E7E7E7"/>
<path d="M248.039 110.946L248.952 110.335L248.039 110.946Z" fill="#E7E7E7"/>
<path d="M256.964 114.917H256.457V114.612L256.964 114.917Z" fill="#E7E7E7"/>
<path d="M248.039 110.945L248.952 110.334L256.459 114.612V114.917H254.937L248.039 110.945Z" fill="#E7E7E7"/>
<path d="M371.086 45.8565L372.1 45.1435V49.9309L371.086 50.542V49.3197V45.8565Z" fill="#E8E8E8"/>
<path d="M58.1394 263.632V263.835H60.1683L58.6466 264.752L60.1683 265.567H58.1394V284.105L57.125 284.818V264.345L58.1394 263.632Z" fill="#E8E8E8"/>
<path d="M85.6289 244.483L86.6433 243.77V247.844V249.066L86.1361 248.761L85.6289 249.066V247.844V244.483Z" fill="#E8E8E8"/>
<path d="M343.596 65.0068V65.3123H345.625L342.582 67.0439V65.7198L343.596 65.0068Z" fill="#E8E8E8"/>
<path d="M171.35 205.47V198.849V197.932H171.857H173.886L172.364 198.849V204.757L171.35 205.47Z" fill="#E8E8E8"/>
<path d="M285.471 126.021V105.445L286.485 104.732V125.308L285.471 126.021Z" fill="#E8E8E8"/>
<path d="M199.346 180.821L201.375 182.043L199.346 183.164V182.043V180.821Z" fill="#E8E8E8"/>
<path d="M114.234 231.953V230.731V228.388V224.62L115.249 223.907V244.482L114.234 245.093V231.953Z" fill="#E8E8E8"/>
<path d="M143.755 214.84V215.961L143.045 215.554L142.74 215.35V204.756L143.755 204.043V214.84Z" fill="#E8E8E8"/>
<path d="M371.088 49.3207V50.543L345.626 65.3125H343.598L371.088 49.3207Z" fill="#E8E8E8"/>
<path d="M4.67773 300.81L5.59071 300.199L4.67773 300.81Z" fill="#E8E8E8"/>
<path d="M4.67773 300.81L5.59071 300.199L21.72 309.468L20.807 310.181L4.67773 300.81Z" fill="#E8E8E8"/>
<path d="M85.6314 247.845V249.067L60.1695 263.836H58.1406L85.6314 247.845Z" fill="#E8E8E8"/>
<path d="M108.453 228.592L109.366 227.981L108.453 228.592Z" fill="#E8E8E8"/>
<path d="M108.453 228.592L109.366 227.981L108.453 228.592Z" fill="#E8E8E8"/>
<path d="M114.234 230.732V231.954L112.205 230.732H114.234Z" fill="#E8E8E8"/>
<path d="M99.5257 255.381L98.6127 255.992L86.6426 249.065V247.843L99.5257 255.381Z" fill="#E8E8E8"/>
<path d="M108.453 228.592L109.366 227.981L114.235 230.731H112.206L108.453 228.592Z" fill="#E8E8E8"/>
<path d="M171.35 197.933V198.85L169.828 197.933H171.35Z" fill="#E8E8E8"/>
<path d="M151.465 219.221L150.552 219.833L143.756 215.962V214.841L151.465 219.221Z" fill="#E8E8E8"/>
<path d="M186.359 174.403L187.272 173.792L186.359 174.403Z" fill="#E8E8E8"/>
<path d="M160.393 192.535L161.306 191.822L160.393 192.535Z" fill="#E8E8E8"/>
<path d="M160.393 192.535L161.306 191.822L160.393 192.535Z" fill="#E8E8E8"/>
<path d="M171.857 197.932H171.35V197.627L171.857 197.932Z" fill="#E8E8E8"/>
<path d="M186.359 174.403L187.272 173.791L199.344 180.82V182.042L186.359 174.403Z" fill="#E8E8E8"/>
<path d="M199.348 182.042V183.163L173.886 197.932H171.857L199.348 182.042Z" fill="#E8E8E8"/>
<path d="M160.393 192.534L161.306 191.821L171.348 197.627V197.932H169.827L160.393 192.534Z" fill="#E8E8E8"/>
<path d="M265.079 119.705L264.166 120.316L265.079 119.705Z" fill="#E8E8E8"/>
<path d="M281.208 128.974L280.194 129.585L264.166 120.316L265.079 119.705L281.208 128.974Z" fill="#E8E8E8"/>
<path d="M58.1406 265.568H60.1695L73.5598 273.411L72.6468 274.022L58.1406 265.568Z" fill="#E8E8E8"/>
<path d="M1.02433 330.349V331.163V344.405L0.00990987 345.118V331.163L-1.51172 330.349H0.517119H1.02433Z" fill="#E9E9E9"/>
<path d="M85.6289 281.559V280.438L86.4404 280.846L86.6433 280.948V284.818L85.6289 285.531V281.559Z" fill="#E9E9E9"/>
<path d="M28.6166 315.274H28.1094V314.357V313.135L29.1238 313.746L29.631 313.441V314.052L30.1382 314.357L29.631 314.663V324.543L28.6166 325.256V315.274Z" fill="#E9E9E9"/>
<path d="M171.35 225.944V205.471L172.364 204.758V225.231L171.35 225.944Z" fill="#E9E9E9"/>
<path d="M285.47 126.021L286.485 125.308V133.253L283.441 131.521H285.47V126.021Z" fill="#E9E9E9"/>
<path d="M58.1394 284.106V297.551V298.671L57.4293 298.264L57.125 298.162V284.819L58.1394 284.106Z" fill="#E9E9E9"/>
<path d="M114.234 245.094L115.248 244.483V264.447L115.654 264.651L114.234 265.669V265.058L112.205 263.836H114.234V245.094Z" fill="#E9E9E9"/>
<path d="M20.8066 310.181L21.7196 309.468L20.8066 310.181Z" fill="#E9E9E9"/>
<path d="M0.520591 330.35H-1.50825L-5.16016 328.211L-4.24718 327.6L0.520591 330.35Z" fill="#E9E9E9"/>
<path d="M28.1095 314.356V315.273H26.5879L28.1095 314.356Z" fill="#E9E9E9"/>
<path d="M1.02479 330.35H0.517578L1.02479 330.045V330.35Z" fill="#E9E9E9"/>
<path d="M20.8066 310.182L21.7196 309.469L28.1105 313.136V314.358L20.8066 310.182Z" fill="#E9E9E9"/>
<path d="M28.1094 315.275H28.6166L28.1094 315.58V315.275Z" fill="#E9E9E9"/>
<path d="M1.02539 331.165V330.35H2.54702L1.02539 331.165Z" fill="#E9E9E9"/>
<path d="M26.5888 315.275H28.1104V315.581L2.54702 330.35H1.02539V330.045L26.5888 315.275Z" fill="#E9E9E9"/>
<path d="M99.5243 255.381L98.6113 255.992L99.5243 255.381Z" fill="#E9E9E9"/>
<path d="M114.233 263.836H112.205L98.6113 255.993L99.5243 255.382L114.233 263.836Z" fill="#E9E9E9"/>
<path d="M151.464 219.221L150.551 219.833L151.464 219.221Z" fill="#E9E9E9"/>
<path d="M167.492 228.592L166.579 229.203L150.551 219.832L151.464 219.221L167.492 228.592Z" fill="#E9E9E9"/>
<path d="M281.212 128.974L280.197 129.585L281.212 128.974Z" fill="#E9E9E9"/>
<path d="M285.472 131.522H283.443L280.197 129.587L281.212 128.975L285.472 131.522Z" fill="#E9E9E9"/>
<path d="M72.6426 274.022L73.5556 273.411L72.6426 274.022Z" fill="#E9E9E9"/>
<path d="M63.7199 300.81L62.807 301.421L58.1406 298.671V297.551L63.7199 300.81Z" fill="#E9E9E9"/>
<path d="M72.6426 274.021L73.5556 273.409L85.6271 280.438V281.558L72.6426 274.021Z" fill="#E9E9E9"/>
<path d="M28.6172 325.256L29.6316 324.543V345.016L28.6172 345.729V325.256Z" fill="#EAEAEA"/>
<path d="M1.02433 344.406V362.028V362.639H1.93731H3.96614L2.44452 363.454C2.44452 363.555 2.44452 363.759 2.54596 363.861L-0.294417 365.796C-1.00451 365.491 -1.51172 364.778 -1.51172 363.963C-1.51172 363.046 -0.903067 362.231 0.00990987 362.028V345.017L1.02433 344.406Z" fill="#EAEAEA"/>
<path d="M85.6289 285.532L86.6433 284.819V305.292L85.6289 306.005V285.532Z" fill="#EAEAEA"/>
<path d="M171.349 225.945L172.364 225.232V232.565L169.32 230.732H171.349V225.945Z" fill="#EAEAEA"/>
<path d="M117.278 265.567H115.249V285.429L114.234 286.142V265.668L115.655 264.65L117.278 265.567Z" fill="#EAEAEA"/>
<path d="M16.3442 354.285L6.20001 361.314L3.96829 362.638H1.93945L16.3442 354.285Z" fill="#EAEAEA"/>
<path d="M1.02539 362.638V362.128C1.32972 362.23 1.73548 362.434 1.93837 362.638H1.02539Z" fill="#EAEAEA"/>
<path d="M115.25 265.567H117.279L131.684 274.022L130.771 274.633L115.25 265.567Z" fill="#EAEAEA"/>
<path d="M130.771 274.633L131.684 274.022L130.771 274.633Z" fill="#EAEAEA"/>
<path d="M167.491 228.592L166.578 229.203L167.491 228.592Z" fill="#EAEAEA"/>
<path d="M171.346 230.731H169.317L166.578 229.203L167.491 228.592L171.346 230.731Z" fill="#EAEAEA"/>
<path d="M63.7177 300.81L62.8047 301.421L63.7177 300.81Z" fill="#EAEAEA"/>
<path d="M79.8469 310.079L78.934 310.69L62.8047 301.421L63.7177 300.81L79.8469 310.079Z" fill="#EAEAEA"/>
<path d="M142.74 281.558V280.438L143.552 280.845L143.755 280.947V286.142L142.74 286.855V281.558Z" fill="#EBEBEB"/>
<path d="M115.249 285.43V297.551V298.671L114.437 298.264L114.234 298.162V286.143L115.249 285.43Z" fill="#EBEBEB"/>
<path d="M28.6172 345.73L29.6316 345.017V347.767L28.6172 348.378V347.156V345.73Z" fill="#EBEBEB"/>
<path d="M2.54936 363.963C2.54936 365.083 1.63638 366 0.520521 366C0.216195 366 -0.0881318 365.898 -0.291016 365.796L2.54936 363.861C2.54936 363.963 2.54936 363.963 2.54936 363.963Z" fill="#EBEBEB"/>
<path d="M85.6284 306.004L86.6429 305.291V315.273L83.5996 313.439H85.6284V306.004Z" fill="#EBEBEB"/>
<path d="M16.3454 354.287L6.20117 361.315L16.3454 354.287Z" fill="#EBEBEB"/>
<path d="M28.6198 347.157V348.379L6.20117 361.315L16.3454 354.287L28.6198 347.157Z" fill="#EBEBEB"/>
<path d="M130.771 274.632L131.684 274.021L142.742 280.438V281.558L130.771 274.632Z" fill="#EBEBEB"/>
<path d="M121.844 301.319L120.931 302.032L115.25 298.671V297.55L121.844 301.319Z" fill="#EBEBEB"/>
<path d="M121.843 301.319L120.93 302.032L121.843 301.319Z" fill="#EBEBEB"/>
<path d="M79.8485 310.079L78.9355 310.69L79.8485 310.079Z" fill="#EBEBEB"/>
<path d="M85.6307 313.441H83.6019L78.9355 310.691L79.8485 310.08L85.6307 313.441Z" fill="#EBEBEB"/>
<path d="M142.74 307.33V286.856L143.755 286.143V306.617L142.74 307.33Z" fill="#ECECEC"/>
<path d="M137.972 310.692L137.059 311.303L120.93 302.034L121.843 301.321L137.972 310.692Z" fill="#ECECEC"/>
<path d="M142.742 307.328L143.756 306.615V315.273L140.713 313.439H142.742V307.328Z" fill="#EDEDEC"/>
<path d="M137.974 310.692L137.061 311.303L137.974 310.692Z" fill="#EDEDEC"/>
<path d="M142.741 313.441H140.712L137.061 311.302L137.974 310.691L142.741 313.441Z" fill="#EDEDEC"/>
</g>
</svg>
