<svg width="220" height="60" viewBox="0 0 220 60" fill="none" xmlns="http://www.w3.org/2000/svg">
<g clip-path="url(#clip0_1397_53)">
<path d="M70 7H74.9028V30.5294H70V7ZM87.3041 7H92.207V30.5294H87.3041V7ZM72.6821 16.2863H89.4671V20.9608H72.6821V16.2863ZM105.965 31C103.927 31 102.139 30.613 100.6 29.8392C99.0625 29.0444 97.8607 27.9464 96.9955 26.5451C96.1303 25.1228 95.6977 23.4811 95.6977 21.6196C95.6977 19.7373 96.1303 18.0954 96.9955 16.6941C97.8607 15.2719 99.0625 14.1738 100.6 13.4C102.139 12.6052 103.927 12.2078 105.965 12.2078C108.002 12.2078 109.791 12.6052 111.329 13.4C112.868 14.1738 114.059 15.2719 114.905 16.6941C115.77 18.0954 116.203 19.7373 116.203 21.6196C116.203 23.4811 115.77 25.1228 114.905 26.5451C114.059 27.9464 112.868 29.0444 111.329 29.8392C109.791 30.613 108.002 31 105.965 31ZM105.965 27.0157C107.08 27.0157 108.031 26.7961 108.82 26.3569C109.627 25.9176 110.243 25.3007 110.666 24.5059C111.108 23.6902 111.329 22.7281 111.329 21.6196C111.329 20.4902 111.108 19.5281 110.666 18.7333C110.243 17.9176 109.627 17.2902 108.82 16.851C108.031 16.4118 107.08 16.1922 105.965 16.1922C104.869 16.1922 103.917 16.4118 103.11 16.851C102.302 17.2902 101.678 17.9176 101.235 18.7333C100.812 19.5281 100.6 20.4902 100.6 21.6196C100.6 22.7281 100.812 23.6902 101.235 24.5059C101.678 25.3007 102.302 25.9176 103.11 26.3569C103.917 26.7961 104.869 27.0157 105.965 27.0157ZM118.752 12.6784H123.626L124.606 19.1098V30.5294H119.79V18.5451L118.752 12.6784ZM132.595 12.4902V17.0078C132.095 16.8824 131.595 16.7882 131.096 16.7255C130.595 16.6627 130.124 16.6314 129.682 16.6314C128.721 16.6314 127.855 16.851 127.087 17.2902C126.317 17.7294 125.711 18.4091 125.27 19.3294C124.827 20.2497 124.606 21.4105 124.606 22.8118L123.597 21.4941C123.712 20.2183 123.923 19.0262 124.232 17.9176C124.539 16.7882 124.962 15.8052 125.501 14.9686C126.057 14.1111 126.741 13.4419 127.548 12.9608C128.356 12.4588 129.316 12.2078 130.432 12.2078C130.797 12.2078 131.162 12.2392 131.528 12.302C131.912 12.3438 132.268 12.4065 132.595 12.4902ZM153.03 24.9137C153.03 26.1895 152.684 27.2875 151.992 28.2078C151.318 29.1281 150.309 29.8287 148.964 30.3098C147.618 30.7699 145.974 31 144.032 31C142.032 31 140.293 30.7385 138.812 30.2157C137.331 29.6719 136.177 28.9085 135.351 27.9255C134.525 26.9424 134.082 25.8026 134.024 24.5059H138.927C139.043 25.0915 139.331 25.6039 139.792 26.0431C140.254 26.4615 140.85 26.7856 141.58 27.0157C142.33 27.2458 143.196 27.3608 144.176 27.3608C145.542 27.3608 146.57 27.1934 147.262 26.8588C147.973 26.5242 148.329 26.0223 148.329 25.3529C148.329 24.8719 148.079 24.5059 147.579 24.2549C147.099 24.0039 146.205 23.8157 144.897 23.6902L141.84 23.4392C140.013 23.2719 138.562 22.9373 137.485 22.4353C136.408 21.9333 135.639 21.3059 135.178 20.5529C134.735 19.7791 134.515 18.9321 134.515 18.0118C134.515 16.736 134.88 15.6693 135.611 14.8118C136.341 13.9542 137.36 13.3059 138.668 12.8667C139.994 12.4275 141.523 12.2078 143.253 12.2078C145.022 12.2078 146.599 12.4693 147.983 12.9922C149.367 13.515 150.473 14.2366 151.3 15.1569C152.146 16.0772 152.626 17.1438 152.742 18.3569H147.839C147.762 17.9176 147.54 17.5098 147.175 17.1333C146.829 16.736 146.32 16.4118 145.647 16.1608C144.974 15.9098 144.099 15.7843 143.022 15.7843C141.811 15.7843 140.878 15.9412 140.225 16.2549C139.572 16.5477 139.244 16.9973 139.244 17.6039C139.244 18.0223 139.446 18.3674 139.85 18.6392C140.254 18.8902 141.004 19.0679 142.1 19.1725L146.08 19.5176C147.849 19.685 149.242 20.0091 150.261 20.4902C151.281 20.9503 151.992 21.5569 152.396 22.3098C152.818 23.0627 153.03 23.9307 153.03 24.9137ZM165.626 31C163.684 31 161.944 30.613 160.406 29.8392C158.887 29.0444 157.685 27.936 156.801 26.5137C155.936 25.0915 155.503 23.4392 155.503 21.5569C155.503 19.6954 155.916 18.064 156.743 16.6627C157.589 15.2615 158.742 14.1738 160.204 13.4C161.665 12.6052 163.328 12.2078 165.194 12.2078C167.097 12.2078 168.731 12.668 170.096 13.5882C171.461 14.4875 172.509 15.7634 173.24 17.4157C173.99 19.0679 174.365 21.013 174.365 23.251H159.368V19.7686H171.769L169.895 21.0235C169.817 19.9777 169.577 19.0889 169.174 18.3569C168.789 17.6248 168.26 17.0601 167.587 16.6627C166.914 16.2654 166.125 16.0667 165.222 16.0667C164.242 16.0667 163.386 16.2863 162.656 16.7255C161.944 17.1438 161.387 17.7399 160.983 18.5137C160.598 19.2667 160.406 20.1556 160.406 21.1804C160.406 22.4144 160.656 23.4706 161.156 24.349C161.655 25.2275 162.386 25.8968 163.348 26.3569C164.309 26.817 165.472 27.0471 166.838 27.0471C168.068 27.0471 169.308 26.8588 170.558 26.4824C171.807 26.085 172.932 25.5307 173.932 24.8196V28.3333C172.855 29.1699 171.596 29.8287 170.154 30.3098C168.731 30.7699 167.221 31 165.626 31ZM176.924 12.6784H181.74L182.778 19.4863V30.5294H177.962V18.702L176.924 12.6784ZM189.037 12.2078C190.594 12.2078 191.921 12.5529 193.016 13.2431C194.112 13.9125 194.949 14.8745 195.526 16.1294C196.102 17.3843 196.391 18.8797 196.391 20.6157V30.5294H191.574V21.4C191.574 19.7895 191.218 18.5765 190.507 17.7608C189.795 16.9242 188.757 16.5059 187.393 16.5059C186.47 16.5059 185.652 16.736 184.941 17.1961C184.249 17.6353 183.71 18.2523 183.326 19.0471C182.96 19.8419 182.778 20.7934 182.778 21.902L181.192 20.9922C181.384 19.1098 181.845 17.5203 182.576 16.2235C183.306 14.9268 184.229 13.9333 185.345 13.2431C186.46 12.5529 187.69 12.2078 189.037 12.2078ZM209.762 31C207.723 31 205.935 30.613 204.397 29.8392C202.859 29.0444 201.658 27.9464 200.792 26.5451C199.927 25.1228 199.495 23.4811 199.495 21.6196C199.495 19.7373 199.927 18.0954 200.792 16.6941C201.658 15.2719 202.859 14.1738 204.397 13.4C205.935 12.6052 207.723 12.2078 209.762 12.2078C211.799 12.2078 213.588 12.6052 215.126 13.4C216.663 14.1738 217.856 15.2719 218.702 16.6941C219.567 18.0954 220 19.7373 220 21.6196C220 23.4811 219.567 25.1228 218.702 26.5451C217.856 27.9464 216.663 29.0444 215.126 29.8392C213.588 30.613 211.799 31 209.762 31ZM209.762 27.0157C210.877 27.0157 211.828 26.7961 212.617 26.3569C213.424 25.9176 214.039 25.3007 214.463 24.5059C214.904 23.6902 215.126 22.7281 215.126 21.6196C215.126 20.4902 214.904 19.5281 214.463 18.7333C214.039 17.9176 213.424 17.2902 212.617 16.851C211.828 16.4118 210.877 16.1922 209.762 16.1922C208.666 16.1922 207.714 16.4118 206.907 16.851C206.099 17.2902 205.473 17.9176 205.032 18.7333C204.608 19.5281 204.397 20.4902 204.397 21.6196C204.397 22.7281 204.608 23.6902 205.032 24.5059C205.473 25.3007 206.099 25.9176 206.907 26.3569C207.714 26.7961 208.666 27.0157 209.762 27.0157Z" fill="#2D2D2D"/>
<path d="M70 45H70.9315V52.8637H70V45ZM76.1442 45H77.0757V52.8637H76.1442V45ZM70.4757 48.481H76.6496V49.3512H70.4757V48.481ZM84.5845 53C83.9304 53 83.3523 52.8707 82.8502 52.6121C82.3547 52.3534 81.9682 51.99 81.6908 51.5216C81.4133 51.0533 81.2746 50.5151 81.2746 49.9069C81.2746 49.2918 81.4133 48.7536 81.6908 48.2923C81.9682 47.8309 82.3547 47.471 82.8502 47.2123C83.3523 46.9537 83.9304 46.8244 84.5845 46.8244C85.2451 46.8244 85.8232 46.9537 86.3187 47.2123C86.8142 47.471 87.2007 47.8309 87.4782 48.2923C87.7622 48.7536 87.9043 49.2918 87.9043 49.9069C87.9043 50.5151 87.7622 51.0533 87.4782 51.5216C87.2007 51.99 86.8142 52.3534 86.3187 52.6121C85.8232 52.8707 85.2451 53 84.5845 53ZM84.5845 52.1927C85.0733 52.1927 85.4962 52.1018 85.8529 51.9201C86.2097 51.7313 86.4838 51.4657 86.6755 51.1232C86.8737 50.7807 86.9728 50.3753 86.9728 49.9069C86.9728 49.4456 86.8737 49.0437 86.6755 48.7012C86.4838 48.3586 86.2097 48.0931 85.8529 47.9043C85.4962 47.7156 85.0733 47.6212 84.5845 47.6212C84.1022 47.6212 83.6793 47.7156 83.316 47.9043C82.9592 48.0931 82.685 48.3586 82.4935 48.7012C82.3018 49.0437 82.2061 49.4456 82.2061 49.9069C82.2061 50.3753 82.3018 50.7807 82.4935 51.1232C82.685 51.4657 82.9592 51.7313 83.316 51.9201C83.6793 52.1018 84.1022 52.1927 84.5845 52.1927ZM91.7593 46.9607H92.671L92.9881 48.9738V52.8637H92.0764V48.7955L91.7593 46.9607ZM95.9512 46.9397V47.81C95.8256 47.768 95.677 47.7366 95.5052 47.7156C95.34 47.6946 95.1815 47.6841 95.0296 47.6841C94.6332 47.6841 94.2797 47.7785 93.9692 47.9672C93.6586 48.156 93.4175 48.432 93.2458 48.7955C93.0739 49.152 92.9881 49.5749 92.9881 50.0642L92.7305 49.6868C92.7436 49.2744 92.8064 48.8934 92.9187 48.5439C93.031 48.1944 93.1896 47.8938 93.3944 47.6422C93.6058 47.3835 93.8568 47.1843 94.1476 47.0446C94.4449 46.8978 94.7784 46.8244 95.1485 46.8244C95.2872 46.8244 95.4292 46.8349 95.5746 46.8558C95.7265 46.8768 95.8521 46.9048 95.9512 46.9397ZM105.066 51.1337C105.066 51.5111 104.957 51.8396 104.739 52.1193C104.527 52.3989 104.214 52.6155 103.798 52.7693C103.388 52.9231 102.889 53 102.301 53C101.7 53 101.168 52.9127 100.706 52.7379C100.25 52.5562 99.8931 52.3045 99.6354 51.983C99.3778 51.6614 99.239 51.2875 99.2192 50.8611H100.151C100.19 51.1337 100.306 51.3748 100.498 51.5845C100.689 51.7872 100.94 51.9445 101.251 52.0564C101.561 52.1682 101.915 52.2241 102.311 52.2241C102.886 52.2241 103.335 52.1332 103.659 51.9515C103.989 51.7628 104.155 51.5077 104.155 51.1861C104.155 50.9345 104.049 50.7492 103.838 50.6304C103.625 50.5046 103.233 50.4102 102.658 50.3473L101.578 50.232C101.043 50.1761 100.613 50.0747 100.289 49.9279C99.9724 49.7741 99.7444 49.5854 99.6057 49.3617C99.4669 49.1311 99.3976 48.876 99.3976 48.5963C99.3976 48.2118 99.5066 47.8904 99.7246 47.6317C99.9493 47.3661 100.26 47.1669 100.656 47.0341C101.053 46.8943 101.512 46.8244 102.034 46.8244C102.589 46.8244 103.08 46.9083 103.51 47.076C103.947 47.2438 104.293 47.4779 104.551 47.7785C104.809 48.0791 104.95 48.4251 104.977 48.8165H104.056C104.022 48.5929 103.923 48.3901 103.758 48.2084C103.593 48.0197 103.362 47.8694 103.065 47.7575C102.773 47.6457 102.413 47.5898 101.984 47.5898C101.455 47.5898 101.043 47.6702 100.745 47.8309C100.455 47.9917 100.309 48.2259 100.309 48.5334C100.309 48.7571 100.405 48.9353 100.597 49.0682C100.788 49.201 101.128 49.2954 101.618 49.3512L102.847 49.4875C103.407 49.5434 103.85 49.6414 104.174 49.7811C104.498 49.9209 104.725 50.1027 104.858 50.3263C104.997 50.55 105.066 50.8191 105.066 51.1337ZM112.122 53C111.482 53 110.913 52.8707 110.418 52.6121C109.929 52.3465 109.543 51.983 109.258 51.5216C108.981 51.0533 108.842 50.5151 108.842 49.9069C108.842 49.2918 108.975 48.7536 109.238 48.2923C109.503 47.8309 109.87 47.471 110.338 47.2123C110.808 46.9537 111.346 46.8244 111.954 46.8244C112.555 46.8244 113.081 46.9641 113.529 47.2438C113.979 47.5234 114.326 47.9183 114.57 48.4286C114.822 48.9318 114.947 49.519 114.947 50.19H109.536V49.4246H114.56L114.025 49.7706C114.005 49.3303 113.906 48.9494 113.728 48.6278C113.549 48.3062 113.308 48.0581 113.004 47.8834C112.701 47.7086 112.347 47.6212 111.944 47.6212C111.508 47.6212 111.128 47.7156 110.804 47.9043C110.481 48.086 110.226 48.3447 110.041 48.6802C109.863 49.0157 109.774 49.4107 109.774 49.865C109.774 50.3403 109.877 50.7528 110.081 51.1022C110.286 51.4517 110.573 51.7208 110.943 51.9096C111.314 52.0983 111.75 52.1927 112.251 52.1927C112.707 52.1927 113.153 52.1122 113.589 51.9515C114.032 51.7908 114.428 51.5706 114.778 51.291V52.0459C114.435 52.3394 114.025 52.5736 113.549 52.7484C113.074 52.9161 112.598 53 112.122 53ZM134.476 45V52.8637H133.584V45.2307L133.951 45.2412L130.195 52.8637H129.204L125.448 45.2516L125.815 45.2412V52.8637H124.923V45H126.33L129.997 52.5282H129.412L133.069 45H134.476ZM141.974 53C141.334 53 140.765 52.8707 140.269 52.6121C139.781 52.3465 139.394 51.983 139.11 51.5216C138.833 51.0533 138.694 50.5151 138.694 49.9069C138.694 49.2918 138.827 48.7536 139.09 48.2923C139.355 47.8309 139.721 47.471 140.19 47.2123C140.66 46.9537 141.198 46.8244 141.806 46.8244C142.407 46.8244 142.932 46.9641 143.381 47.2438C143.831 47.5234 144.178 47.9183 144.422 48.4286C144.673 48.9318 144.798 49.519 144.798 50.19H139.387V49.4246H144.412L143.877 49.7706C143.857 49.3303 143.758 48.9494 143.579 48.6278C143.401 48.3062 143.16 48.0581 142.856 47.8834C142.553 47.7086 142.199 47.6212 141.796 47.6212C141.36 47.6212 140.98 47.7156 140.656 47.9043C140.333 48.086 140.078 48.3447 139.893 48.6802C139.715 49.0157 139.625 49.4107 139.625 49.865C139.625 50.3403 139.728 50.7528 139.933 51.1022C140.138 51.4517 140.425 51.7208 140.795 51.9096C141.165 52.0983 141.601 52.1927 142.103 52.1927C142.559 52.1927 143.005 52.1122 143.441 51.9515C143.884 51.7908 144.28 51.5706 144.63 51.291V52.0459C144.287 52.3394 143.877 52.5736 143.401 52.7484C142.925 52.9161 142.45 53 141.974 53ZM154.206 52.8637L154.008 50.6304L154.255 49.9069L154.008 49.194L154.206 46.9607H155.137L154.88 49.9069L155.137 52.8637H154.206ZM154.563 49.9069C154.418 50.5221 154.193 51.0637 153.889 51.5321C153.591 51.9934 153.229 52.3534 152.799 52.6121C152.376 52.8707 151.907 53 151.391 53C150.843 53 150.358 52.8707 149.935 52.6121C149.512 52.3465 149.179 51.983 148.934 51.5216C148.696 51.0533 148.577 50.5151 148.577 49.9069C148.577 49.2918 148.696 48.7536 148.934 48.2923C149.179 47.8309 149.512 47.471 149.935 47.2123C150.358 46.9537 150.843 46.8244 151.391 46.8244C151.907 46.8244 152.376 46.9537 152.799 47.2123C153.229 47.471 153.595 47.8309 153.899 48.2923C154.203 48.7536 154.424 49.2918 154.563 49.9069ZM149.509 49.9069C149.509 50.3543 149.595 50.7492 149.766 51.0917C149.945 51.4343 150.186 51.7033 150.49 51.8991C150.801 52.0878 151.151 52.1822 151.54 52.1822C151.936 52.1822 152.3 52.0878 152.63 51.8991C152.967 51.7033 153.264 51.4343 153.522 51.0917C153.787 50.7492 154.002 50.3543 154.166 49.9069C154.002 49.4596 153.787 49.0647 153.522 48.7221C153.264 48.3796 152.967 48.114 152.63 47.9253C152.3 47.7295 151.936 47.6317 151.54 47.6317C151.151 47.6317 150.801 47.7295 150.49 47.9253C150.186 48.114 149.945 48.3796 149.766 48.7221C149.595 49.0647 149.509 49.4596 149.509 49.9069ZM159.216 46.9607H160.128L160.445 48.9633V52.8637H159.533V48.827L159.216 46.9607ZM162.754 46.8244C163.276 46.8244 163.719 46.9363 164.082 47.1599C164.446 47.3766 164.723 47.6946 164.915 48.114C165.107 48.5264 165.202 49.0262 165.202 49.6134V52.8637H164.29V49.7811C164.29 49.0752 164.136 48.5439 163.824 48.1874C163.521 47.8239 163.075 47.6422 162.487 47.6422C162.077 47.6422 161.718 47.74 161.406 47.9358C161.103 48.1315 160.865 48.4041 160.693 48.7536C160.528 49.0961 160.445 49.498 160.445 49.9594L160.078 49.6868C160.125 49.0996 160.267 48.5929 160.505 48.1664C160.742 47.74 161.054 47.4115 161.436 47.1809C161.827 46.9432 162.266 46.8244 162.754 46.8244ZM175.011 51.1337C175.011 51.5111 174.902 51.8396 174.684 52.1193C174.472 52.3989 174.159 52.6155 173.742 52.7693C173.332 52.9231 172.834 53 172.246 53C171.644 53 171.112 52.9127 170.65 52.7379C170.195 52.5562 169.838 52.3045 169.58 51.983C169.322 51.6614 169.184 51.2875 169.164 50.8611H170.095C170.135 51.1337 170.25 51.3748 170.442 51.5845C170.634 51.7872 170.884 51.9445 171.195 52.0564C171.506 52.1682 171.859 52.2241 172.256 52.2241C172.831 52.2241 173.28 52.1332 173.604 51.9515C173.934 51.7628 174.099 51.5077 174.099 51.1861C174.099 50.9345 173.993 50.7492 173.782 50.6304C173.57 50.5046 173.177 50.4102 172.603 50.3473L171.522 50.232C170.987 50.1761 170.557 50.0747 170.234 49.9279C169.917 49.7741 169.689 49.5854 169.55 49.3617C169.412 49.1311 169.342 48.876 169.342 48.5963C169.342 48.2118 169.451 47.8904 169.669 47.6317C169.893 47.3661 170.204 47.1669 170.601 47.0341C170.997 46.8943 171.456 46.8244 171.978 46.8244C172.533 46.8244 173.025 46.9083 173.455 47.076C173.891 47.2438 174.238 47.4779 174.495 47.7785C174.753 48.0791 174.895 48.4251 174.922 48.8165H174C173.966 48.5929 173.867 48.3901 173.703 48.2084C173.537 48.0197 173.306 47.8694 173.009 47.7575C172.718 47.6457 172.358 47.5898 171.929 47.5898C171.4 47.5898 170.987 47.6702 170.69 47.8309C170.399 47.9917 170.254 48.2259 170.254 48.5334C170.254 48.7571 170.349 48.9353 170.541 49.0682C170.733 49.201 171.073 49.2954 171.562 49.3512L172.791 49.4875C173.352 49.5434 173.795 49.6414 174.119 49.7811C174.442 49.9209 174.67 50.1027 174.803 50.3263C174.941 50.55 175.011 50.8191 175.011 51.1337ZM185.926 45V52.4233L185.509 51.9934H191.128V52.8637H184.994V45H185.926ZM197.585 53C196.931 53 196.353 52.8707 195.85 52.6121C195.355 52.3534 194.968 51.99 194.691 51.5216C194.413 51.0533 194.275 50.5151 194.275 49.9069C194.275 49.2918 194.413 48.7536 194.691 48.2923C194.968 47.8309 195.355 47.471 195.85 47.2123C196.353 46.9537 196.931 46.8244 197.585 46.8244C198.246 46.8244 198.823 46.9537 199.319 47.2123C199.814 47.471 200.201 47.8309 200.478 48.2923C200.763 48.7536 200.905 49.2918 200.905 49.9069C200.905 50.5151 200.763 51.0533 200.478 51.5216C200.201 51.99 199.814 52.3534 199.319 52.6121C198.823 52.8707 198.246 53 197.585 53ZM197.585 52.1927C198.074 52.1927 198.496 52.1018 198.853 51.9201C199.21 51.7313 199.484 51.4657 199.676 51.1232C199.874 50.7807 199.973 50.3753 199.973 49.9069C199.973 49.4456 199.874 49.0437 199.676 48.7012C199.484 48.3586 199.21 48.0931 198.853 47.9043C198.496 47.7156 198.074 47.6212 197.585 47.6212C197.103 47.6212 196.68 47.7156 196.316 47.9043C195.959 48.0931 195.686 48.3586 195.494 48.7012C195.302 49.0437 195.206 49.4456 195.206 49.9069C195.206 50.3753 195.302 50.7807 195.494 51.1232C195.686 51.4657 195.959 51.7313 196.316 51.9201C196.68 52.1018 197.103 52.1927 197.585 52.1927ZM207.601 52.4128H207.244L209.712 46.9607H210.683L207.908 52.8637H206.897L204.112 46.9607H205.123L207.601 52.4128ZM217.176 53C216.535 53 215.967 52.8707 215.471 52.6121C214.983 52.3465 214.596 51.983 214.312 51.5216C214.034 51.0533 213.895 50.5151 213.895 49.9069C213.895 49.2918 214.027 48.7536 214.292 48.2923C214.556 47.8309 214.923 47.471 215.392 47.2123C215.861 46.9537 216.4 46.8244 217.007 46.8244C217.609 46.8244 218.134 46.9641 218.583 47.2438C219.032 47.5234 219.379 47.9183 219.623 48.4286C219.874 48.9318 220 49.519 220 50.19H214.589V49.4246H219.614L219.078 49.7706C219.059 49.3303 218.959 48.9494 218.781 48.6278C218.603 48.3062 218.362 48.0581 218.058 47.8834C217.753 47.7086 217.401 47.6212 216.997 47.6212C216.561 47.6212 216.182 47.7156 215.858 47.9043C215.534 48.086 215.28 48.3447 215.095 48.6802C214.916 49.0157 214.827 49.4107 214.827 49.865C214.827 50.3403 214.929 50.7528 215.134 51.1022C215.339 51.4517 215.627 51.7208 215.996 51.9096C216.366 52.0983 216.802 52.1927 217.304 52.1927C217.76 52.1927 218.206 52.1122 218.642 51.9515C219.085 51.7908 219.482 51.5706 219.832 51.291V52.0459C219.488 52.3394 219.078 52.5736 218.603 52.7484C218.127 52.9161 217.651 53 217.176 53Z" fill="#565656"/>
<path d="M29.033 0.0317954C30.79 -0.0916331 33.5692 0.161896 35.338 0.488814C35.5384 0.525509 35.7388 0.563872 35.9392 0.605571C36.1396 0.64727 36.3384 0.688968 36.5388 0.734003C36.7376 0.779038 36.9363 0.82574 37.1351 0.874111C37.3338 0.922482 37.5309 0.974188 37.728 1.02756C37.9251 1.08094 38.1222 1.13598 38.3176 1.19269C38.513 1.2494 38.7084 1.30778 38.9038 1.36949C39.0992 1.43121 39.293 1.49292 39.4867 1.55797C39.6805 1.62302 39.8725 1.68974 40.0663 1.75813C40.2583 1.82651 40.4504 1.89823 40.6408 1.96996C40.8312 2.04335 41.0216 2.11674 41.2104 2.19346C41.3991 2.27019 41.5878 2.34858 41.7765 2.42864C41.9636 2.5087 42.1507 2.59043 42.3377 2.6755C42.5231 2.7589 42.7085 2.84563 42.8939 2.93403C43.0776 3.02243 43.2614 3.11083 43.4434 3.20257C43.6255 3.29431 43.8075 3.38771 43.9879 3.48279C44.1683 3.57786 44.3486 3.6746 44.5274 3.77468C44.7061 3.87309 44.8831 3.97483 45.0601 4.07658C45.2372 4.17832 45.4126 4.2834 45.5863 4.39015C45.76 4.4969 45.9337 4.60365 46.1057 4.71374C46.2777 4.82382 46.4498 4.93391 46.6184 5.04733C46.7888 5.16075 46.9575 5.27584 47.1245 5.39092C47.2915 5.50768 47.4585 5.62611 47.6239 5.7462C47.7892 5.86629 47.9529 5.98805 48.1166 6.11148C48.2786 6.23491 48.4406 6.36 48.601 6.4851C48.7613 6.61187 48.92 6.7403 49.0786 6.86873C49.2356 6.99883 49.3926 7.12893 49.548 7.26237C49.7033 7.3958 49.8569 7.52924 50.0089 7.66601C50.1609 7.80111 50.3112 7.93955 50.4616 8.07799C50.6102 8.21643 50.7588 8.35821 50.9058 8.49999C51.0528 8.64176 51.1981 8.78521 51.3417 8.93032C51.4854 9.07543 51.6273 9.22221 51.7676 9.36899C51.9079 9.51744 52.0482 9.66588 52.1852 9.816C53.0036 10.7184 53.7619 11.6324 54.4533 12.6365C55.2032 13.7273 55.9214 14.8215 56.5394 15.9941C56.6379 16.1809 56.7331 16.3694 56.8267 16.5595C56.9202 16.7497 57.012 16.9398 57.1022 17.13C57.1924 17.3218 57.2809 17.5136 57.3661 17.7071C57.453 17.9006 57.5365 18.094 57.6183 18.2892C57.7002 18.4843 57.7803 18.6795 57.8588 18.8763C57.9373 19.0731 58.0125 19.27 58.086 19.4684C58.1595 19.6669 58.2313 19.8654 58.3014 20.0656C58.3716 20.2657 58.4384 20.4659 58.5035 20.666C58.5687 20.8678 58.6321 21.068 58.6939 21.2715C58.7557 21.475 58.8142 21.6768 58.871 21.8803C58.9278 22.0838 58.9829 22.2889 59.0363 22.4924C59.0898 22.6976 59.1399 22.9028 59.1883 23.1079C59.2367 23.3131 59.2835 23.5199 59.3269 23.7267C59.3704 23.9335 59.4138 24.1404 59.4539 24.3489C59.494 24.5574 59.5307 24.7642 59.5674 24.9727C59.6025 25.1812 59.6359 25.3897 59.6677 25.5998C59.6994 25.8083 59.7278 26.0185 59.7545 26.2286C59.7812 26.4388 59.8063 26.649 59.828 26.8591C59.8497 27.0693 59.8714 27.2795 59.8881 27.4913C59.9065 27.7014 59.9215 27.9133 59.9349 28.1234C59.9482 28.3336 59.9599 28.5454 59.97 28.7573C59.98 28.9691 59.9867 29.1793 59.9917 29.3911C59.9967 29.6029 59.9984 29.8131 60 30.0249C60 30.2367 59.9984 30.4469 59.995 30.6587C59.9917 30.8706 59.985 31.0807 59.9766 31.2925C59.9683 31.5044 59.9583 31.7145 59.9449 31.9264C59.9315 32.1382 59.9165 32.3484 59.8998 32.5585C59.8831 32.7687 59.8631 32.9805 59.8414 33.1907C59.8196 33.4008 59.7963 33.611 59.7695 33.8212C59.7428 34.0313 59.7161 34.2398 59.6844 34.45C59.6543 34.6585 59.6209 34.8686 59.5875 35.0771C59.5524 35.2856 59.5157 35.4941 59.4773 35.7009C59.4338 35.9411 59.3854 36.1813 59.3353 36.4215C59.2852 36.6617 59.2317 36.9002 59.1766 37.1387C59.1198 37.3772 59.0614 37.6141 58.9996 37.8509C58.9378 38.0878 58.8726 38.3246 58.8042 38.5598C58.7357 38.795 58.6655 39.0302 58.592 39.2637C58.5186 39.4972 58.4417 39.7291 58.3616 39.9609C58.2814 40.1927 58.1996 40.4229 58.1144 40.6531C58.0292 40.8833 57.9407 41.1118 57.8505 41.3386C57.7603 41.5655 57.6651 41.7923 57.5699 42.0175C57.473 42.2427 57.3745 42.4662 57.2726 42.6897C57.1707 42.9115 57.0655 43.1333 56.9586 43.3535C56.8517 43.5737 56.7398 43.7922 56.6279 44.009C56.5143 44.2258 56.3991 44.4427 56.2805 44.6562C56.1619 44.8713 56.0417 45.0832 55.9164 45.295C55.7928 45.5068 55.6659 45.7153 55.5373 45.9238C55.4087 46.1323 55.2767 46.3391 55.1431 46.5443C55.0095 46.7495 54.8725 46.953 54.7322 47.1548C54.5936 47.3566 54.4516 47.5567 54.3063 47.7536C54.1627 47.9521 54.0157 48.1472 53.8671 48.3424C53.7184 48.5375 53.5664 48.7293 53.4128 48.9195C53.2591 49.1096 53.1021 49.2981 52.9435 49.4849C52.7848 49.6717 52.6244 49.8569 52.4608 50.0387C52.2971 50.2221 52.1317 50.4023 51.9647 50.5807C51.7977 50.7592 51.6273 50.936 51.4553 51.1095C51.2833 51.2846 51.1096 51.4564 50.9325 51.6265C50.7555 51.7967 50.5768 51.9651 50.3964 52.1303C50.216 52.2954 50.0323 52.4589 49.8486 52.6206C49.6632 52.7824 49.4778 52.9409 49.2891 53.0977C49.1003 53.2545 48.9099 53.4079 48.7179 53.5597C48.5258 53.7115 48.3304 53.8599 48.135 54.0067C47.9396 54.1535 47.7408 54.2986 47.5404 54.4404C47.34 54.5822 47.1395 54.7223 46.9358 54.859C46.7905 54.9558 46.6435 55.0525 46.4965 55.1459C46.3495 55.241 46.2009 55.3344 46.0522 55.4261C45.9036 55.5179 45.7533 55.6096 45.603 55.698C45.4526 55.7881 45.3023 55.8748 45.1503 55.9632C44.9984 56.05 44.8464 56.135 44.6927 56.2201C44.539 56.3035 44.3854 56.3869 44.2301 56.4686C44.0747 56.5503 43.9194 56.6304 43.7641 56.7088C43.6088 56.7872 43.4518 56.8656 43.2931 56.9423C43.1361 57.019 42.9774 57.0941 42.8188 57.1675C42.6601 57.2409 42.5014 57.3126 42.3411 57.3843C42.1807 57.4544 42.0204 57.5244 41.8601 57.5928C41.6981 57.6612 41.5377 57.7279 41.374 57.793C41.212 57.858 41.0483 57.9214 40.8847 57.9848C40.721 58.0465 40.5573 58.1082 40.392 58.1683C40.2283 58.2283 40.0629 58.2867 39.8976 58.3434C39.7322 58.4001 39.5669 58.4551 39.3999 58.5102C39.2328 58.5636 39.0658 58.6169 38.8988 58.667C38.7318 58.7187 38.5631 58.7671 38.3961 58.8154C38.2274 58.8638 38.0587 58.9105 37.89 58.9555C37.7213 59.0006 37.551 59.0439 37.3823 59.0873C37.2119 59.129 37.0416 59.1707 36.8712 59.2107C36.7008 59.2508 36.5305 59.2875 36.3584 59.3241C36.1881 59.3608 36.0161 59.3959 35.844 59.4292C35.672 59.4626 35.5 59.4943 35.3279 59.526C35.1559 59.556 34.9839 59.586 34.8102 59.6127C34.6381 59.6411 34.4644 59.6661 34.2907 59.6911C34.117 59.7161 33.9433 59.7395 33.7696 59.7611C33.5959 59.7828 33.4222 59.8028 33.2485 59.8212C33.0748 59.8395 32.9011 59.8579 32.7258 59.8729C32.5521 59.8879 32.3767 59.9029 32.203 59.9163C32.0293 59.9296 31.8539 59.9396 31.6786 59.9496C31.5032 59.9596 31.3295 59.968 31.1541 59.9746C30.0167 60.0247 28.1311 60.0147 27.0521 59.8145C27.8572 59.6461 28.6572 59.3759 29.4405 59.1273C29.5942 59.079 29.7478 59.0306 29.9015 58.9806C30.0551 58.9305 30.2088 58.8788 30.3608 58.8254C30.5128 58.7721 30.6664 58.7187 30.8167 58.6636C30.9687 58.6086 31.119 58.5519 31.271 58.4935C31.4214 58.4351 31.5717 58.3768 31.722 58.3167C31.8723 58.2567 32.021 58.1949 32.1696 58.1332C32.3182 58.0715 32.4669 58.0065 32.6139 57.9414C32.7625 57.8764 32.9095 57.8096 33.0565 57.7429C33.2034 57.6762 33.3488 57.6078 33.4957 57.5378C33.641 57.4677 33.7863 57.3977 33.9317 57.3259C34.077 57.2542 34.2206 57.1808 34.3626 57.1058C34.5062 57.0307 34.6482 56.9557 34.7901 56.8789C34.9321 56.8022 35.0741 56.7238 35.2144 56.6454C35.3547 56.567 35.495 56.487 35.6353 56.4052C35.7755 56.3235 35.9142 56.2418 36.0511 56.1584C36.1898 56.075 36.3267 55.9899 36.4637 55.9048C36.6006 55.8198 36.7359 55.733 36.8712 55.6446C37.0065 55.5562 37.1418 55.4678 37.2754 55.3778C37.409 55.2877 37.5426 55.196 37.6746 55.1042C37.8065 55.0125 37.9384 54.9191 38.0704 54.824C38.2007 54.7289 38.3309 54.6339 38.4612 54.5371C38.5915 54.4404 38.7201 54.3436 38.847 54.2452C38.9756 54.1468 39.1026 54.0467 39.2278 53.9467C39.3548 53.8466 39.48 53.7448 39.6036 53.6414C39.7272 53.538 39.8525 53.4346 39.9744 53.3312C40.098 53.2261 40.2199 53.121 40.3402 53.0143C40.4621 52.9075 40.5824 52.8008 40.7009 52.6907C40.8212 52.5823 40.9381 52.4722 41.0567 52.3621C41.1736 52.252 41.2905 52.1403 41.4074 52.0285C41.5227 51.9168 41.6379 51.8034 41.7515 51.6883C41.8651 51.5748 41.9786 51.4581 42.0905 51.343C42.2024 51.2262 42.3144 51.1095 42.4246 50.9927C42.5482 50.8626 42.6701 50.7309 42.792 50.5974C42.9123 50.464 43.0325 50.3306 43.1511 50.1938C43.2697 50.0587 43.3866 49.9219 43.5019 49.7835C43.6171 49.645 43.7307 49.5066 43.8442 49.3665C43.9562 49.2264 44.0681 49.0846 44.1783 48.9428C44.2885 48.801 44.3971 48.6576 44.504 48.5125C44.6109 48.3674 44.7161 48.2223 44.8196 48.0755C44.9232 47.9287 45.0267 47.7803 45.127 47.6318C45.2288 47.4834 45.3274 47.3332 45.4259 47.1831C45.5245 47.033 45.6197 46.8812 45.7149 46.7278C45.8101 46.5743 45.9036 46.4209 45.9955 46.2674C46.0873 46.1123 46.1775 45.9572 46.266 45.8004C46.3545 45.6436 46.4414 45.4868 46.5282 45.3284C46.6134 45.1699 46.6986 45.0115 46.7804 44.8513C46.8623 44.6912 46.9441 44.5311 47.0226 44.3693C47.1011 44.2075 47.1796 44.0457 47.2548 43.8822C47.3299 43.7188 47.4051 43.5553 47.4769 43.3902C47.5504 43.2251 47.6206 43.0599 47.6907 42.8948C47.7609 42.7297 47.8277 42.5629 47.8945 42.3944C47.9613 42.2276 48.0247 42.0592 48.0882 41.8907C48.1517 41.7223 48.2118 41.5538 48.2703 41.3837C48.3287 41.2135 48.3872 41.0434 48.4423 40.8733C48.4974 40.7031 48.5525 40.5313 48.6043 40.3595C48.6561 40.1877 48.7079 40.0143 48.7563 39.8425C48.8047 39.669 48.8532 39.4955 48.8983 39.3221C48.9433 39.1486 48.9868 38.9735 49.0285 38.7983C49.0703 38.6232 49.1104 38.4481 49.1488 38.2729C49.1872 38.0978 49.2239 37.921 49.259 37.7442C49.2941 37.5674 49.3275 37.3906 49.3576 37.2138C49.3876 37.037 49.4177 36.8602 49.4461 36.6817C49.4745 36.5049 49.4995 36.3264 49.5246 36.148C49.548 35.9695 49.5713 35.791 49.5914 35.6125C49.7634 34.018 49.7567 32.4418 49.6949 30.8422C49.7868 31.2108 49.9455 31.5744 50.0774 31.9314C50.2845 32.4818 50.4732 33.0406 50.6403 33.6043C50.7004 33.8045 50.7572 34.0046 50.8106 34.2065C50.8641 34.4083 50.9158 34.6101 50.9643 34.8136C51.0127 35.0171 51.0578 35.2206 51.0996 35.4257C51.1413 35.6309 51.1814 35.8361 51.2181 36.0412C51.2549 36.2464 51.2883 36.4532 51.3184 36.66C51.3484 36.8668 51.3768 37.0737 51.4002 37.2805C51.4253 37.4873 51.447 37.6958 51.4653 37.9043C51.4837 38.1128 51.4987 38.3213 51.5121 38.5298C51.5255 38.7383 51.5338 38.9468 51.5405 39.1553C51.5472 39.3638 51.5505 39.5723 51.5505 39.7824C51.5505 39.9909 51.5488 40.1994 51.5438 40.4096C51.5388 40.6181 51.5305 40.8266 51.5188 41.0351C51.5071 41.2435 51.4921 41.452 51.4754 41.6605C51.4587 41.869 51.4369 42.0759 51.4136 42.2844C51.3902 42.4912 51.3635 42.6997 51.3334 42.9065C51.3033 43.1133 51.2716 43.3201 51.2365 43.5253C51.6457 42.4578 52.0766 41.3853 52.394 40.2845C53.2174 37.4256 53.4195 34.1764 53.0938 31.2242C53.0754 31.0707 53.057 30.9156 53.037 30.7621C53.0169 30.6087 52.9936 30.4552 52.9702 30.3018C52.9468 30.1483 52.9217 29.9949 52.895 29.8431C52.8683 29.6896 52.8399 29.5379 52.8115 29.3861C52.7814 29.2343 52.7514 29.0825 52.718 28.9307C52.6862 28.7789 52.6512 28.6272 52.6161 28.477C52.581 28.3253 52.5443 28.1751 52.5059 28.025C52.4675 27.8749 52.4274 27.7248 52.3873 27.5747C52.3455 27.4246 52.3038 27.2761 52.2603 27.1277C52.2169 26.9792 52.1702 26.8308 52.1234 26.6823C52.0766 26.5339 52.0282 26.3871 51.9781 26.2403C51.928 26.0935 51.8779 25.9468 51.8244 25.8C51.7727 25.6532 51.7175 25.5081 51.6624 25.363C51.6073 25.2179 51.5505 25.0744 51.4921 24.9293C51.4336 24.7859 51.3751 24.6424 51.3133 24.499C51.2532 24.3555 51.1898 24.2138 51.1263 24.072C51.0628 23.9302 50.9977 23.7901 50.9309 23.65C50.8641 23.5099 50.7973 23.3698 50.7271 23.2313C50.6586 23.0929 50.5885 22.9545 50.5167 22.816C50.4448 22.6776 50.3714 22.5408 50.2979 22.4057C50.2227 22.2689 50.1476 22.1338 50.0707 21.9987C49.9939 21.8636 49.9154 21.7302 49.8352 21.5967C49.7551 21.4633 49.6749 21.3315 49.5931 21.1998C49.5112 21.068 49.4277 20.9379 49.3425 20.8078C49.2573 20.6777 49.1722 20.5493 49.0853 20.4192C48.9985 20.2907 48.9099 20.1623 48.8198 20.0372C48.7296 19.9121 48.6394 19.7853 48.5475 19.6603C48.4557 19.5352 48.3621 19.4117 48.2686 19.2883C48.1734 19.1649 48.0782 19.0431 47.9813 18.9213C47.8844 18.7996 47.7859 18.6795 47.6874 18.5594C47.5888 18.4393 47.4886 18.3209 47.3867 18.2041C47.2848 18.0874 47.183 17.9706 47.0794 17.8539C46.1374 16.8097 45.0936 15.874 43.9979 14.9967C46.4748 15.8557 48.8749 17.19 50.8691 18.8963C51.3635 19.32 51.8344 19.7753 52.3121 20.2173C52.546 20.4342 52.7781 20.681 53.0403 20.8628C53.0504 20.8695 53.0587 20.8745 53.0687 20.8812C52.6528 20.1089 52.1551 19.4151 51.6223 18.7212C49.6148 16.0408 47.0393 13.6373 44.1599 11.916C44.0029 11.8209 43.8442 11.7275 43.6856 11.6357C43.5269 11.544 43.3666 11.4539 43.2062 11.3655C43.0459 11.2771 42.8839 11.1904 42.7202 11.1053C42.5565 11.0203 42.3929 10.9369 42.2292 10.8568C42.0638 10.7751 41.8985 10.6967 41.7331 10.6183C41.5661 10.5399 41.3991 10.4648 41.2321 10.3898C41.0634 10.3164 40.8947 10.243 40.726 10.1729C40.5556 10.1029 40.3853 10.0345 40.2149 9.96612C40.0446 9.8994 39.8725 9.83435 39.6988 9.77097C39.5268 9.70758 39.3531 9.64587 39.1794 9.58749C39.0057 9.52744 38.8303 9.47073 38.6566 9.41402C38.4813 9.35898 38.3059 9.30394 38.1289 9.25223C37.9518 9.20053 37.7764 9.15049 37.5977 9.10212C37.4207 9.05375 37.242 9.00704 37.0649 8.96368C36.8862 8.91864 36.7075 8.87694 36.5288 8.83691C36.3501 8.79688 36.1697 8.75852 35.9893 8.72182C35.809 8.68513 35.6286 8.6501 35.4482 8.61841C35.2678 8.58505 35.0858 8.55503 34.9054 8.52667C34.7233 8.49832 34.5413 8.47163 34.3592 8.44661C34.1772 8.42159 33.9951 8.39824 33.8131 8.37823C33.631 8.35654 33.4473 8.3382 33.2652 8.32152C33.0815 8.30484 32.8995 8.28982 32.7158 8.27648C32.532 8.26314 32.3483 8.25313 32.1663 8.24312C31.9825 8.23478 31.7988 8.22644 31.6151 8.22144C31.4314 8.21643 31.2477 8.2131 31.0639 8.21143C30.8802 8.20976 30.6965 8.21143 30.5128 8.21477C30.329 8.2181 30.1453 8.22311 29.9616 8.22978C29.7779 8.23645 29.5942 8.24479 29.4104 8.25647C29.2267 8.26647 29.043 8.27982 28.8609 8.29483C28.6772 8.30984 28.4952 8.32652 28.3115 8.34487C28.1294 8.36321 27.9457 8.3849 27.7636 8.40658C27.5816 8.42993 27.3995 8.45328 27.2175 8.47997C25.9849 8.66345 24.8024 9.00204 23.5965 9.30394C23.7685 9.54412 23.9823 9.76096 24.1744 9.98446C24.5736 10.4482 24.9393 10.9302 25.2333 11.4673C25.3068 11.4556 25.3803 11.4473 25.4554 11.4406C26.2889 11.3605 27.1507 11.3872 27.9841 11.4289C28.1177 11.4356 28.253 11.4439 28.3866 11.4523C28.5202 11.4623 28.6538 11.4723 28.7875 11.484C28.9211 11.4956 29.0547 11.509 29.1883 11.524C29.3219 11.539 29.4555 11.554 29.5892 11.5724C29.7228 11.589 29.8547 11.6074 29.9883 11.6274C30.1219 11.6474 30.2539 11.6691 30.3858 11.6908C30.5178 11.7141 30.6497 11.7375 30.7817 11.7625C30.9136 11.7875 31.0456 11.8142 31.1758 11.8426C31.3078 11.8709 31.4381 11.8993 31.5683 11.9293C31.6986 11.9593 31.8289 11.991 31.9592 12.0244C32.0894 12.0577 32.2197 12.0928 32.3483 12.1278C32.4786 12.1628 32.6072 12.2012 32.7358 12.2395C32.8644 12.2779 32.993 12.3179 33.1199 12.358C33.2485 12.3997 33.3755 12.4414 33.5024 12.4847C33.6293 12.5281 33.7563 12.5731 33.8815 12.6182C34.0085 12.6649 34.1338 12.7116 34.259 12.7599C34.3843 12.8083 34.5095 12.8583 34.6331 12.9084C34.7567 12.9601 34.8803 13.0118 35.0039 13.0652C35.1275 13.1185 35.2494 13.1736 35.3714 13.2286C35.4933 13.2853 35.6152 13.3421 35.7355 13.4004C35.8557 13.4588 35.976 13.5189 36.0962 13.5789C36.2165 13.6389 36.3351 13.7023 36.4536 13.7657C36.5722 13.8291 36.6891 13.8925 36.8077 13.9592C36.9246 14.0242 37.0416 14.091 37.1568 14.1593C37.272 14.2277 37.3873 14.2961 37.5025 14.3662C37.6178 14.4362 37.7313 14.5079 37.8432 14.5797C37.9568 14.6514 38.0687 14.7265 38.1806 14.7998C38.2925 14.8749 38.4028 14.95 38.513 15.0267C38.6232 15.1034 38.7318 15.1818 38.8403 15.2602C38.9489 15.3386 39.0558 15.4203 39.1627 15.5004C39.2696 15.5821 39.3748 15.6638 39.48 15.7472C39.5853 15.8306 39.6888 15.9157 39.7924 16.0008C39.9276 16.1108 40.0596 16.2243 40.1915 16.3377C40.3235 16.4511 40.4538 16.5679 40.5824 16.6846C40.711 16.8014 40.8396 16.9198 40.9648 17.0399C41.0901 17.16 41.2154 17.2818 41.339 17.4052C41.4626 17.5286 41.5828 17.6537 41.7031 17.7788C41.8233 17.9056 41.9419 18.0323 42.0588 18.1624C42.1757 18.2909 42.291 18.4226 42.4045 18.5544C42.5181 18.6862 42.63 18.8196 42.7402 18.9547C42.8505 19.0898 42.959 19.2249 43.0659 19.3617C43.1728 19.4985 43.2781 19.6369 43.3816 19.777C43.4852 19.9171 43.587 20.0572 43.6873 20.2007C43.7875 20.3424 43.886 20.4859 43.9829 20.631C44.0797 20.7761 44.1749 20.9212 44.2685 21.068C44.362 21.2148 44.4539 21.3632 44.5424 21.5117C44.6326 21.6618 44.7194 21.8119 44.8063 21.962C44.8915 22.1138 44.9766 22.2656 45.0585 22.419C45.1403 22.5725 45.2205 22.7276 45.299 22.8827C45.3775 23.0379 45.4543 23.1946 45.5278 23.3514C45.6013 23.5082 45.6748 23.6667 45.7466 23.8251C45.8167 23.9836 45.8869 24.1437 45.9537 24.3055C46.0205 24.4656 46.0856 24.6274 46.1474 24.7909C46.2109 24.9527 46.271 25.1161 46.3295 25.2796C46.388 25.443 46.4447 25.6082 46.4999 25.7733C46.555 25.9384 46.6084 26.1035 46.6585 26.2703C46.7086 26.4371 46.7587 26.6039 46.8055 26.7724C46.8523 26.9409 46.8974 27.1077 46.9391 27.2778C46.9809 27.4479 47.0226 27.6164 47.061 27.7848C47.0995 27.955 47.1362 28.1251 47.1696 28.2952C47.2047 28.4654 47.2364 28.6372 47.2665 28.809C47.2965 28.9808 47.3249 29.1526 47.35 29.3244C47.3767 29.4962 47.4001 29.6696 47.4218 29.8414C47.4435 30.0149 47.4636 30.1867 47.4803 30.3602C47.497 30.5353 47.5137 30.7104 47.527 30.8872C47.5404 31.0624 47.5521 31.2392 47.5621 31.4143C47.5721 31.5894 47.5788 31.7662 47.5855 31.943C47.5905 32.1199 47.5955 32.295 47.5972 32.4718C47.5988 32.6486 47.5988 32.8237 47.5972 33.0005C47.5955 33.1773 47.5905 33.3525 47.5855 33.5293C47.5788 33.7061 47.5721 33.8812 47.5621 34.058C47.5521 34.2331 47.5404 34.41 47.527 34.5851C47.5137 34.7602 47.497 34.937 47.4803 35.1122C47.4619 35.2873 47.4435 35.4624 47.4218 35.6376C47.4001 35.8127 47.3767 35.9878 47.3517 36.1613C47.3266 36.3364 47.2999 36.5099 47.2698 36.6834C47.2414 36.8568 47.2097 37.0303 47.1763 37.2038C47.1429 37.3772 47.1078 37.549 47.0711 37.7225C47.0343 37.8943 46.9959 38.0661 46.9558 38.2379C46.9157 38.4097 46.8723 38.5798 46.8289 38.7516C46.7838 38.9218 46.7387 39.0919 46.6903 39.262C46.6418 39.4322 46.5917 39.6006 46.5399 39.7691C46.4882 39.9375 46.4347 40.106 46.3796 40.2728C46.3245 40.4396 46.266 40.6064 46.2076 40.7732C46.1491 40.94 46.0873 41.1051 46.0238 41.2686C45.9604 41.4337 45.8969 41.5972 45.8301 41.7606C45.7633 41.9241 45.6948 42.0859 45.6247 42.2477C45.5545 42.4094 45.4827 42.5696 45.4092 42.7297C45.3357 42.8898 45.2606 43.0499 45.1837 43.2084C45.1069 43.3669 45.0284 43.5253 44.9466 43.6804C44.8664 43.8372 44.7829 43.9923 44.6994 44.1475C44.6159 44.3026 44.529 44.456 44.4422 44.6095C44.3553 44.7629 44.2651 44.9147 44.1749 45.0665C44.0848 45.2183 43.9912 45.3684 43.8977 45.5168C43.8042 45.6653 43.7073 45.8137 43.6104 45.9605C43.5136 46.1073 43.415 46.2541 43.3131 46.3975C42.8271 47.1081 42.2826 47.7886 41.7365 48.4524C41.3991 48.8611 41.0483 49.2597 40.6842 49.645C40.3201 50.032 39.946 50.4056 39.5585 50.7692C39.171 51.1312 38.7719 51.4814 38.3627 51.8184C37.9535 52.1553 37.5326 52.4789 37.1017 52.7891C33.2769 55.5963 29.2284 57.2042 24.5752 58.0832C23.8587 58.2183 23.1372 58.3167 22.4173 58.4285C22.0516 58.4852 21.6691 58.5819 21.3 58.6053C20.8758 58.6319 19.8269 58.1749 19.4043 58.0098C15.8084 56.6037 12.6367 54.789 9.77058 52.1803C9.59028 52.0168 9.40988 51.8501 9.23278 51.6816C9.05578 51.5131 8.88042 51.343 8.70839 51.1695C8.53636 50.9961 8.36433 50.8209 8.19564 50.6441C8.02695 50.4673 7.8616 50.2872 7.69625 50.107C7.53257 49.9252 7.37056 49.7434 7.21022 49.5583C7.04988 49.3731 6.89289 49.1863 6.73923 48.9979C6.5839 48.8094 6.43191 48.6176 6.2816 48.4258C6.13128 48.2323 5.9843 48.0388 5.839 47.842C5.69369 47.6451 5.55005 47.4467 5.40976 47.2482C5.26946 47.048 5.13083 46.8462 4.99555 46.6427C4.86026 46.4392 4.72665 46.2341 4.59637 46.0272C4.4661 45.8204 4.33749 45.6119 4.21223 45.4034C4.08696 45.1933 3.96504 44.9831 3.84479 44.7696C3.72453 44.5561 3.60762 44.3426 3.49237 44.1274C3.37713 43.9123 3.26523 43.6954 3.15667 43.4769C3.04643 43.2584 2.94121 43.0383 2.83599 42.8181C2.73244 42.5963 2.63056 42.3744 2.53201 42.1509C2.43347 41.9274 2.33827 41.7022 2.24474 41.4771C2.15121 41.2519 2.06102 41.0234 1.97417 40.7965C1.88732 40.568 1.80214 40.3395 1.7203 40.1093C1.63846 39.8792 1.55996 39.6473 1.48313 39.4155C1.40797 39.1836 1.33449 38.9501 1.26434 38.7166C1.19419 38.4831 1.12738 38.2479 1.06224 38.0127C0.997108 37.7775 0.936978 37.5407 0.878518 37.3038C0.820068 37.067 0.764948 36.8285 0.711498 36.59C0.658058 36.3514 0.609618 36.1129 0.562858 35.8727C0.516088 35.6326 0.472668 35.3924 0.430908 35.1522C0.390828 34.912 0.352408 34.6702 0.317338 34.4283C0.282258 34.1864 0.250528 33.9446 0.222138 33.7011C0.193738 33.4592 0.167018 33.2157 0.143638 32.9722C0.120258 32.7287 0.100208 32.4851 0.083508 32.2416C0.066808 31.9981 0.0534481 31.7546 0.0417581 31.5094C0.0283981 31.2642 0.018368 31.0173 0.011691 30.7721C0.00501003 30.5253 0.00167 30.2801 0 30.0332C0 29.7864 0.00167002 29.5412 0.00668103 29.2943C0.011691 29.0475 0.020038 28.8023 0.031738 28.5571C0.043428 28.3119 0.058458 28.0651 0.075158 27.8199C0.093528 27.5747 0.113568 27.3295 0.136958 27.0843C0.160338 26.8391 0.187058 26.5939 0.217128 26.3504C0.247188 26.1069 0.280588 25.8617 0.315668 25.6182C0.352408 25.3747 0.390828 25.1311 0.432578 24.8893C0.474338 24.6474 0.519428 24.4056 0.567868 24.1637C0.616298 23.9219 0.668078 23.6817 0.721528 23.4415C0.774968 23.2013 0.833428 22.9628 0.893548 22.7226C0.953678 22.4841 1.01715 22.2456 1.08396 22.0087C1.15076 21.7719 1.21924 21.535 1.29106 21.2998C1.36288 21.0647 1.43804 20.8295 1.51654 20.596C1.59504 20.3625 1.6752 20.1306 1.75871 19.8988C1.84222 19.6669 1.92907 19.4367 2.01926 19.2082C2.10946 18.9797 2.20132 18.7512 2.29652 18.5244C2.39172 18.2975 2.49026 18.0724 2.59047 17.8472C2.69068 17.622 2.7959 17.3985 2.90113 17.1767C3.00802 16.9548 3.11658 16.7347 3.22848 16.5145C3.34039 16.296 3.45563 16.0775 3.57254 15.8607C3.68946 15.6438 3.80971 15.4287 3.93331 15.2152C4.0569 15.0017 4.18216 14.7898 4.3091 14.5797C4.4377 14.3695 4.56798 14.161 4.70159 13.9542C4.83521 13.7474 4.97049 13.5422 5.10912 13.3387C5.24775 13.1352 5.38804 12.9334 5.53168 12.7332C5.67532 12.5331 5.82062 12.3346 5.96927 12.1378C6.11792 11.941 6.26823 11.7475 6.42189 11.554C6.57555 11.3605 6.73088 11.1704 6.88955 10.9819C7.04821 10.7934 7.20855 10.6066 7.37056 10.4215C7.53257 10.2363 7.69792 10.0545 7.86661 9.87271C8.03363 9.68757 8.20399 9.50576 8.37602 9.32395C8.54805 9.14382 8.72175 8.96535 8.89879 8.78854C9.07578 8.61174 9.25458 8.43827 9.43488 8.26647C9.61528 8.09467 9.79898 7.92454 9.98438 7.75775C10.1698 7.59095 10.3569 7.42583 10.5456 7.26237C10.7343 7.10058 10.9264 6.94045 11.1185 6.782C11.3122 6.62354 11.506 6.46842 11.7031 6.31664C11.9001 6.16319 12.0989 6.01307 12.2993 5.86462C12.4997 5.71618 12.7035 5.57106 12.9073 5.42762C13.111 5.28418 13.3181 5.14407 13.5252 5.0073C13.734 4.86886 13.9428 4.73375 14.1549 4.60198C14.367 4.47022 14.5791 4.34011 14.7946 4.21168C15.0084 4.08492 15.2255 3.95982 15.4426 3.83806C15.6597 3.7163 15.8802 3.59788 16.1007 3.48112C16.3211 3.36436 16.5433 3.25094 16.7671 3.14086C16.9909 3.03077 17.2147 2.92236 17.4418 2.81727C17.6673 2.71219 17.8961 2.61045 18.125 2.51037C18.3538 2.41029 18.5843 2.31355 18.8147 2.22015C19.0452 2.12674 19.2791 2.03501 19.5112 1.9466C19.745 1.8582 19.9789 1.77314 20.2144 1.69141C20.4499 1.60968 20.687 1.52962 20.9242 1.45456C21.1614 1.37783 21.4002 1.30444 21.639 1.23439C21.8779 1.16433 22.1184 1.09595 22.3606 1.03257C22.6011 0.967516 22.8432 0.90747 23.0854 0.849092C23.3276 0.790713 23.5714 0.735671 23.8153 0.683965C24.0591 0.632258 24.3047 0.582219 24.5485 0.537185C24.794 0.490482 25.0395 0.447115 25.2851 0.407085C25.5306 0.367054 25.7778 0.330359 26.025 0.297C26.2721 0.263641 26.5193 0.23195 26.7682 0.205262C27.0154 0.176907 27.2642 0.153556 27.5131 0.131872C27.762 0.110189 28.0108 0.0918416 28.2597 0.0768301C28.5353 0.0534787 28.7841 0.0418031 29.033 0.0317954Z" fill="#344E41"/>
<path d="M12.8613 8.64943C13.2371 8.63775 13.6747 8.73117 14.0388 8.81624C15.5904 9.17822 17.3491 9.99225 18.4498 11.1616C18.864 11.6003 19.1763 12.1091 19.4953 12.6178C19.492 12.6195 19.4887 12.6229 19.4853 12.6245C19.1212 12.8764 18.7872 13.1667 18.4481 13.4519C18.0256 13.8005 17.6397 14.1775 17.2556 14.5679C16.9967 14.1442 16.788 13.6821 16.5458 13.2484C16.3136 12.8314 16.0531 12.4294 15.8009 12.024C14.9808 10.7029 14.1557 9.55688 12.8613 8.64943Z" fill="#F3ECDC"/>
<path d="M30.0898 13.1475C30.1032 13.1475 30.1166 13.1475 30.1299 13.1491C30.7329 13.1975 31.9237 13.6028 32.5267 13.813C36.0975 15.0556 38.9803 16.897 41.397 19.8293C41.4939 19.946 41.5891 20.0645 41.6827 20.1845C41.7762 20.303 41.8697 20.4247 41.9599 20.5448C42.0518 20.6666 42.1403 20.7883 42.2305 20.9118C42.319 21.0352 42.4058 21.1586 42.4927 21.2837C42.5779 21.4088 42.6631 21.5356 42.7466 21.6624C42.8301 21.7891 42.9119 21.9176 42.9921 22.046C43.0723 22.1744 43.1508 22.3045 43.2276 22.4346C43.3044 22.5647 43.3812 22.6965 43.4547 22.8283C43.5299 22.96 43.6017 23.0935 43.6735 23.2269C43.7453 23.3603 43.8155 23.4954 43.884 23.6305C43.9524 23.7656 44.0192 23.9024 44.0844 24.0392C44.1495 24.176 44.213 24.3144 44.2765 24.4528C44.3383 24.5913 44.4001 24.7297 44.4585 24.8698C44.517 25.0099 44.5754 25.15 44.6322 25.2901C44.689 25.4319 44.7424 25.572 44.7959 25.7155C44.8493 25.8573 44.8994 26.0007 44.9495 26.1441C44.9997 26.2876 45.0481 26.431 45.0949 26.5761C45.1416 26.7213 45.1867 26.8647 45.2301 27.0115C45.2736 27.1566 45.3153 27.3034 45.3554 27.4485C45.3955 27.5953 45.4339 27.742 45.4706 27.8888C45.5074 28.0356 45.5425 28.184 45.5759 28.3308C45.6093 28.4793 45.641 28.6277 45.6711 28.7762C45.7011 28.9246 45.7295 29.0731 45.7562 29.2232C45.783 29.3733 45.808 29.5217 45.8314 29.6719C45.8548 29.822 45.8765 29.9721 45.8965 30.1222C45.9166 30.2723 45.935 30.4224 45.9517 30.5742C45.9684 30.7243 45.9834 30.8761 45.9968 31.0262C46.0101 31.178 46.0218 31.3281 46.0318 31.4799C46.0419 31.6317 46.0502 31.7835 46.0569 31.9336C46.0636 32.0854 46.0686 32.2372 46.0719 32.389C46.0753 32.5407 46.0769 32.6925 46.0769 32.8443C46.0769 32.9961 46.0753 33.1479 46.0719 33.2997C46.0602 34.1486 45.9634 34.9926 45.8815 35.8383L45.8581 35.9417L45.8331 35.9484C45.7763 35.6598 45.8231 35.3145 45.8197 35.016C45.8114 34.4989 45.7897 33.9835 45.7512 33.4681C45.5842 31.2781 45.0865 29.0164 44.3182 26.9581C42.4359 21.9176 38.825 17.5192 34.0833 14.9188C33.315 14.4968 32.5083 14.0965 31.6949 13.7696C31.1755 13.5594 30.626 13.3943 30.1182 13.1591L30.0898 13.1475Z" fill="#588157"/>
<path d="M29.2513 19.0645C29.5235 19.2179 29.8609 19.77 30.0647 20.0385C31.6981 22.1952 32.8455 24.2535 33.6389 26.8538C35.2473 32.1228 34.1884 36.6897 31.3023 41.2799C29.8125 43.6484 28.1122 45.8684 26.7961 48.347C25.7773 50.2652 24.8737 52.7887 25.5418 54.9538C25.5969 55.1105 25.6721 55.264 25.7355 55.4174C25.2512 54.9304 24.8219 54.4617 24.4545 53.8763C22.6073 50.9307 22.7459 47.3729 23.8165 44.1855C24.1973 43.0513 24.7017 41.9671 25.2361 40.8996C25.652 40.0706 26.0646 39.245 26.5489 38.4527C27.085 37.5737 27.718 36.7514 28.311 35.9124C29.749 33.8775 30.701 32.1062 31.2555 29.6493C32.0656 26.0699 31.2021 22.1435 29.2513 19.0645Z" fill="#FEE074"/>
<path d="M17.458 5.93945C17.782 6.08957 18.0793 6.34977 18.3866 6.53491C18.9478 6.87351 19.5307 7.17374 20.0852 7.52568C22.5337 9.08187 24.7651 11.4837 25.6185 14.2959C25.9092 15.255 25.9559 16.3241 26.3802 17.2348C26.6156 17.7402 26.9597 18.2139 27.2353 18.701C27.9685 19.9936 28.8337 21.7416 29.1493 23.1827C29.4633 24.6222 29.2713 26.0933 28.4646 27.3409C27.6161 28.6503 26.133 29.521 24.6248 29.8345C22.8794 30.1981 21.3295 29.5577 19.8881 28.6153C19.9399 28.677 19.9933 28.737 20.0485 28.7971C20.3491 29.1257 20.7015 29.4192 21.0539 29.6894C22.1746 30.5467 23.1082 30.8153 24.5029 30.8837C23.2068 31.0805 22.1028 31.4658 21.0489 32.2647C20.147 32.9486 18.2196 34.8017 18.3282 35.9793C18.3783 36.5364 18.6705 36.9467 18.5753 37.5421C18.4434 38.3644 17.6952 38.9616 17.0571 39.4102C16.1619 40.0024 15.407 40.1508 14.3581 40.2192C15.0729 39.894 15.6124 39.5037 16.0467 38.8348C16.7147 37.8007 16.9469 36.4346 16.6914 35.2337C16.6028 36.1561 16.4225 37.0117 15.9448 37.8207C15.3686 38.7981 14.5235 39.537 13.4111 39.8189C12.6311 39.4686 11.2933 38.9482 11.0561 38.0292C10.9209 37.5021 10.8674 36.9634 10.6954 36.4413C10.5851 36.106 10.4398 35.7724 10.2611 35.4672C10.1342 35.252 9.98887 35.0452 9.88867 34.8167C10.0757 34.4781 10.3463 34.1962 10.5217 33.8493C10.971 32.9586 11.315 32.0079 11.6791 31.0805C12.1084 29.973 12.5576 28.8738 13.0253 27.783C13.5197 26.6204 14.3882 24.9374 14.6688 23.7515C14.7823 23.2745 14.6771 22.7974 14.6621 22.3154C14.5986 20.3322 16.1669 18.2006 17.331 16.6877C17.8254 16.0439 18.3265 15.4134 18.871 14.8096C19.3336 14.2959 19.8347 13.8222 20.3073 13.3168C19.8631 12.2326 19.4939 11.1134 19.058 10.0243L17.9858 7.31218C17.8004 6.85849 17.6016 6.40481 17.458 5.93945Z" fill="#F3ECDC"/>
<path d="M19.8248 19.3594C19.8933 19.693 19.7747 20.3402 19.6661 20.6738C19.4021 21.4795 18.7539 22.04 17.8985 22.1218C17.6529 22.1451 17.277 22.1151 17.0665 22.2385C16.7508 22.422 16.6104 23.0542 16.5069 23.3878C16.5035 23.3728 16.4985 23.3595 16.4952 23.3445C16.42 22.9842 16.5119 22.5004 16.567 22.1434C16.9245 19.8314 18.5701 21.0258 19.8248 19.3594Z" fill="#344E41"/>
</g>
<defs>
<clipPath id="clip0_1397_53">
<rect width="220" height="60" fill="white"/>
</clipPath>
</defs>
</svg>
